<svg width="911" height="260" viewBox="0 0 911 260" fill="none" xmlns="http://www.w3.org/2000/svg">
<path d="M54.9865 66.0654H78.5053C86.1071 66.0654 92.64 67.4658 98.1041 70.2668C103.568 73.0677 107.785 77.1474 110.754 82.5057C113.724 87.7422 115.209 94.0139 115.209 101.321C115.209 106.923 114.139 111.977 112.001 116.482C109.863 120.866 107.013 124.581 103.449 127.625C99.8858 130.67 95.8473 132.983 91.3335 134.567C86.8199 136.028 82.1279 136.576 77.258 136.211C72.5067 135.845 67.8743 134.445 63.3607 132.009V130.182C63.3607 130.182 64.3702 130.365 66.3896 130.731C68.4087 130.974 70.9625 131.035 74.051 130.913C77.258 130.67 80.5839 130 84.0284 128.904C87.592 127.686 90.8584 125.616 93.828 122.693C96.9162 119.77 99.2325 115.691 100.777 110.454C101.133 109.115 101.43 107.471 101.667 105.522C101.905 103.452 101.964 101.442 101.846 99.494C101.727 91.0913 99.5888 84.3323 95.4315 79.2176C91.2742 74.1028 85.3945 71.5455 77.7925 71.5455H56.7682C56.7682 71.5455 56.5901 71.1192 56.2338 70.2668C55.9963 69.2926 55.6993 68.3792 55.3428 67.5268C55.1054 66.5526 54.9865 66.0654 54.9865 66.0654ZM57.3029 66.0654V193.934H45.7216V66.0654H57.3029ZM46.2561 180.599V193.934H32.0024V192.108C32.0024 192.108 32.3587 192.108 33.0715 192.108C33.903 192.108 34.3188 192.108 34.3188 192.108C37.407 192.108 40.0201 191.012 42.1583 188.82C44.4151 186.506 45.6028 183.766 45.7216 180.599H46.2561ZM46.2561 79.4002H45.7216C45.7216 76.234 44.5932 73.5549 42.3364 71.3628C40.0796 69.049 37.407 67.892 34.3188 67.892C34.3188 67.892 33.9623 67.892 33.2497 67.892C32.5369 67.892 32.1806 67.892 32.1806 67.892L32.0024 66.0654H46.2561V79.4002ZM56.7682 180.599H57.3029C57.4215 183.766 58.5501 186.506 60.6881 188.82C62.9449 191.012 65.6175 192.108 68.7057 192.108C68.7057 192.108 69.0622 192.108 69.7748 192.108C70.6062 192.108 71.022 192.108 71.022 192.108V193.934H56.7682V180.599Z" fill="#70521D"/>
<path d="M161.261 123.606L213.082 184.618C215.636 187.054 218.192 188.88 220.746 190.098C223.421 191.316 226.645 191.986 230.417 192.108V193.934H222.57C221.354 193.934 219.589 193.873 217.279 193.752C215.09 193.508 212.656 193.082 209.98 192.473C207.426 191.742 204.81 190.707 202.134 189.367C199.58 187.906 197.268 185.958 195.2 183.522C195.2 183.522 194.105 182.243 191.916 179.686C189.848 177.129 187.111 173.841 183.705 169.822C180.42 165.803 176.892 161.541 173.121 157.035C169.472 152.407 165.944 148.084 162.538 144.065C159.254 140.047 156.517 136.759 154.327 134.201C152.259 131.644 151.225 130.365 151.225 130.365L161.261 123.606ZM213.995 67.3441L159.436 130.365H151.225L201.404 67.3441H213.995ZM226.585 66.0654V67.7094H225.855C221.84 67.7094 218.07 68.5011 214.541 70.0841C211.136 71.6674 208.216 73.8593 205.783 76.6602L194.288 76.2949C195.869 74.2247 196.113 72.2762 195.018 70.4494C194.045 68.6228 192.341 67.7094 189.909 67.7094H188.084V66.0654H226.585ZM145.386 66.0654V193.934H133.525V66.0654H145.386ZM134.073 180.599V193.934H119.475V192.108C119.475 192.108 119.84 192.108 120.57 192.108C121.422 192.108 121.847 192.108 121.847 192.108C125.01 192.108 127.687 191.012 129.876 188.82C132.187 186.506 133.404 183.766 133.525 180.599H134.073ZM134.073 79.4002H133.525C133.404 76.234 132.187 73.5549 129.876 71.3628C127.687 69.049 125.01 67.892 121.847 67.892C121.847 67.892 121.422 67.892 120.57 67.892C119.84 67.892 119.475 67.892 119.475 67.892V66.0654H134.073V79.4002ZM144.839 180.599H145.386C145.508 183.766 146.663 186.506 148.853 188.82C151.164 191.012 153.901 192.108 157.064 192.108C157.064 192.108 157.429 192.108 158.159 192.108C158.889 192.108 159.314 192.108 159.436 192.108V193.934H144.839V180.599ZM144.839 79.4002V66.0654H159.436V67.892C159.314 67.892 158.889 67.892 158.159 67.892C157.429 67.892 157.064 67.892 157.064 67.892C153.901 67.892 151.164 69.049 148.853 71.3628C146.663 73.5549 145.508 76.234 145.386 79.4002H144.839Z" fill="#70521D"/>
<path d="M244.46 79.2783H254.035C257.13 79.2783 259.791 79.8339 262.014 80.9449C264.239 82.0558 265.957 83.6742 267.164 85.7996C268.374 87.8769 268.978 90.3646 268.978 93.2629C268.978 95.4851 268.542 97.4896 267.672 99.277C266.801 101.016 265.641 102.489 264.19 103.697C262.739 104.905 261.096 105.822 259.257 106.45C257.42 107.03 255.511 107.248 253.527 107.103C251.594 106.958 249.708 106.402 247.869 105.436V104.711C247.869 104.711 248.281 104.784 249.102 104.929C249.926 105.025 250.965 105.05 252.221 105.001C253.527 104.905 254.882 104.639 256.283 104.204C257.734 103.721 259.065 102.9 260.273 101.741C261.532 100.581 262.475 98.9631 263.102 96.8859C263.247 96.3546 263.369 95.7024 263.465 94.9295C263.563 94.1083 263.586 93.3113 263.537 92.5383C263.49 89.2052 262.62 86.5242 260.926 84.4954C259.234 82.4665 256.84 81.4521 253.744 81.4521H245.185C245.185 81.4521 245.112 81.2831 244.967 80.9449C244.871 80.5585 244.75 80.1962 244.605 79.858C244.509 79.4716 244.46 79.2783 244.46 79.2783ZM245.403 79.2783V130H240.688V79.2783H245.403ZM240.905 124.71V130H235.102V129.275C235.102 129.275 235.247 129.275 235.537 129.275C235.877 129.275 236.045 129.275 236.045 129.275C237.304 129.275 238.366 128.84 239.237 127.971C240.156 127.053 240.641 125.966 240.688 124.71H240.905ZM240.905 84.5678H240.688C240.688 83.3119 240.229 82.2491 239.309 81.3796C238.392 80.4617 237.304 80.0029 236.045 80.0029C236.045 80.0029 235.9 80.0029 235.61 80.0029C235.32 80.0029 235.175 80.0029 235.175 80.0029L235.102 79.2783H240.905V84.5678ZM245.185 124.71H245.403C245.452 125.966 245.91 127.053 246.781 127.971C247.7 128.84 248.788 129.275 250.045 129.275C250.045 129.275 250.19 129.275 250.48 129.275C250.819 129.275 250.988 129.275 250.988 129.275V130H245.185V124.71ZM290.473 85.5098L310.421 129.565H304.69L289.239 91.9587L290.473 85.5098ZM276.473 124.71C275.939 126.159 276.012 127.295 276.69 128.116C277.366 128.889 278.141 129.275 279.011 129.275H279.592V130H265.737V129.275C265.737 129.275 265.833 129.275 266.027 129.275C266.219 129.275 266.317 129.275 266.317 129.275C267.333 129.275 268.372 128.937 269.436 128.261C270.499 127.536 271.418 126.353 272.193 124.71H276.473ZM290.473 85.5098L290.98 90.5095L274.369 129.782H269.799L286.991 92.9731C286.991 92.9731 287.11 92.6832 287.353 92.1036C287.643 91.5239 287.957 90.8234 288.296 90.0023C288.683 89.1327 289.022 88.2873 289.312 87.4662C289.602 86.6451 289.771 85.9929 289.82 85.5098H290.473ZM299.032 113.117V115.29H279.809V113.117H299.032ZM302.732 124.71H308.244C308.97 126.353 309.864 127.536 310.928 128.261C311.991 128.937 313.006 129.275 313.975 129.275C313.975 129.275 314.071 129.275 314.265 129.275C314.457 129.275 314.555 129.275 314.555 129.275V130H299.685V129.275H300.265C301.087 129.275 301.835 128.889 302.514 128.116C303.19 127.295 303.263 126.159 302.732 124.71ZM323.407 86.5242V113.914C323.407 118.599 324.593 122.295 326.962 125C329.381 127.705 332.669 129.058 336.827 129.058C341.422 129.058 345.024 127.777 347.635 125.217C350.296 122.657 351.625 119.155 351.625 114.711V86.5242H354.962V114.711C354.962 119.735 353.342 123.72 350.101 126.667C346.91 129.565 342.51 131.014 336.899 131.014C331.34 131.014 326.915 129.565 323.625 126.667C320.386 123.768 318.765 119.807 318.765 114.783V86.5242H323.407ZM318.91 86.5242V90.3645H318.765C318.718 89.495 318.355 88.7705 317.677 88.1908C317.049 87.5627 316.251 87.2488 315.283 87.2488C315.283 87.2488 315.091 87.2488 314.703 87.2488C314.365 87.2488 314.195 87.2488 314.195 87.2488V86.5242H318.91ZM327.977 86.5242V87.2488C327.977 87.2488 327.785 87.2488 327.397 87.2488C327.06 87.2488 326.889 87.2488 326.889 87.2488C325.972 87.2488 325.148 87.5627 324.423 88.1908C323.746 88.7705 323.407 89.495 323.407 90.3645H323.262V86.5242H327.977ZM351.77 86.5242V90.3645H351.625C351.625 89.495 351.288 88.7705 350.609 88.1908C349.933 87.5627 349.111 87.2488 348.143 87.2488C348.143 87.2488 347.951 87.2488 347.563 87.2488C347.225 87.2488 347.055 87.2488 347.055 87.2488V86.5242H351.77ZM359.531 86.5242V87.2488C359.531 87.2488 359.339 87.2488 358.951 87.2488C358.614 87.2488 358.443 87.2488 358.443 87.2488C357.526 87.2488 356.728 87.5627 356.05 88.1908C355.373 88.7705 355.011 89.495 354.962 90.3645H354.816V86.5242H359.531ZM375.94 86.5242V130H371.298V86.5242H375.94ZM395.453 127.753L395.308 130H375.795V127.753H395.453ZM399.515 119.638L395.526 130H384.5L386.966 127.753C389.383 127.753 391.318 127.415 392.769 126.739C394.269 126.014 395.476 125.048 396.396 123.841C397.316 122.585 398.113 121.184 398.79 119.638H399.515ZM371.443 125.362L372.386 130H366.075V129.275C366.075 129.275 366.243 129.275 366.583 129.275C366.922 129.275 367.09 129.275 367.09 129.275C368.3 129.275 369.29 128.889 370.064 128.116C370.839 127.343 371.249 126.425 371.298 125.362H371.443ZM375.722 91.1616V86.5242H381.09V87.2488C381.09 87.2488 380.945 87.2488 380.655 87.2488C380.365 87.2488 380.22 87.2488 380.22 87.2488C379.059 87.2488 378.044 87.6352 377.173 88.4082C376.352 89.1327 375.94 90.0506 375.94 91.1616H375.722ZM371.443 91.1616H371.298C371.249 90.0506 370.813 89.1327 369.992 88.4082C369.171 87.6352 368.155 87.2488 366.945 87.2488C366.945 87.2488 366.8 87.2488 366.51 87.2488C366.22 87.2488 366.075 87.2488 366.075 87.2488V86.5242H371.443V91.1616ZM413.711 86.5242V130H409.141V86.5242H413.711ZM409.359 125.362V130H403.193V129.275C403.193 129.275 403.364 129.275 403.701 129.275C404.04 129.275 404.209 129.275 404.209 129.275C405.564 129.275 406.701 128.889 407.618 128.116C408.587 127.343 409.095 126.425 409.141 125.362H409.359ZM413.494 125.362H413.711C413.76 126.425 414.245 127.343 415.162 128.116C416.131 128.889 417.291 129.275 418.644 129.275C418.644 129.275 418.789 129.275 419.079 129.275C419.418 129.275 419.587 129.275 419.587 129.275L419.66 130H413.494V125.362ZM413.494 91.1616V86.5242H419.66L419.587 87.2488C419.587 87.2488 419.418 87.2488 419.079 87.2488C418.789 87.2488 418.644 87.2488 418.644 87.2488C417.291 87.2488 416.131 87.6352 415.162 88.4082C414.245 89.1327 413.76 90.0506 413.711 91.1616H413.494ZM409.359 91.1616H409.141C409.095 90.0506 408.587 89.1327 407.618 88.4082C406.701 87.6352 405.564 87.2488 404.209 87.2488C404.162 87.2488 403.968 87.2488 403.629 87.2488C403.338 87.2488 403.193 87.2488 403.193 87.2488V86.5242H409.359V91.1616ZM431.407 85.4373L471.593 123.261L472.318 131.014L432.132 92.9731L431.407 85.4373ZM431.552 125.507V130H426.111V129.275C426.111 129.275 426.305 129.275 426.692 129.275C427.127 129.275 427.344 129.275 427.344 129.275C428.456 129.275 429.399 128.913 430.173 128.188C430.948 127.464 431.334 126.57 431.334 125.507H431.552ZM434.598 125.507C434.598 126.57 434.984 127.464 435.759 128.188C436.58 128.913 437.523 129.275 438.588 129.275C438.588 129.275 438.782 129.275 439.168 129.275C439.603 129.275 439.821 129.275 439.821 129.275V130H434.381V125.507H434.598ZM431.407 85.4373L434.526 89.495L434.598 130H431.334V94.4947C431.334 92.0311 431.212 89.9057 430.971 88.1183C430.777 86.3309 430.681 85.4373 430.681 85.4373H431.407ZM472.318 86.5242V121.739C472.318 123.285 472.367 124.783 472.463 126.232C472.559 127.633 472.658 128.792 472.754 129.71C472.899 130.579 472.971 131.014 472.971 131.014H472.318L469.127 127.174V86.5242H472.318ZM472.101 91.0167V86.5242H477.541V87.2488C477.541 87.2488 477.324 87.2488 476.888 87.2488C476.502 87.2488 476.308 87.2488 476.308 87.2488C475.243 87.2488 474.3 87.6111 473.479 88.3357C472.705 89.0603 472.318 89.9539 472.318 91.0167H472.101ZM469.127 91.0167C469.078 89.9539 468.668 89.0603 467.894 88.3357C467.119 87.6111 466.176 87.2488 465.065 87.2488C465.065 87.2488 464.847 87.2488 464.412 87.2488C464.025 87.2488 463.831 87.2488 463.831 87.2488V86.5242H469.272V91.0167H469.127ZM504.474 85.5098L524.422 129.565H518.692L503.241 91.9587L504.474 85.5098ZM490.474 124.71C489.943 126.159 490.016 127.295 490.692 128.116C491.37 128.889 492.143 129.275 493.013 129.275H493.594V130H479.739V129.275C479.739 129.275 479.837 129.275 480.029 129.275C480.223 129.275 480.319 129.275 480.319 129.275C481.334 129.275 482.376 128.937 483.438 128.261C484.503 127.536 485.422 126.353 486.195 124.71H490.474ZM504.474 85.5098L504.982 90.5095L488.371 129.782H483.801L500.992 92.9731C500.992 92.9731 501.114 92.6832 501.355 92.1036C501.645 91.5239 501.961 90.8234 502.298 90.0023C502.686 89.1327 503.024 88.2873 503.314 87.4662C503.604 86.6451 503.775 85.9929 503.821 85.5098H504.474ZM513.034 113.117V115.29H493.811V113.117H513.034ZM516.733 124.71H522.246C522.972 126.353 523.868 127.536 524.93 128.261C525.995 128.937 527.01 129.275 527.977 129.275C527.977 129.275 528.075 129.275 528.267 129.275C528.461 129.275 528.557 129.275 528.557 129.275V130H513.687V129.275H514.267C515.091 129.275 515.839 128.889 516.516 128.116C517.194 127.295 517.267 126.159 516.733 124.71ZM567.299 102.103L587.9 126.304C588.916 127.27 589.931 127.995 590.947 128.478C592.011 128.961 593.294 129.227 594.791 129.275V130H591.672C591.19 130 590.488 129.976 589.569 129.927C588.698 129.831 587.732 129.661 586.667 129.42C585.651 129.13 584.612 128.719 583.548 128.188C582.532 127.608 581.615 126.836 580.791 125.869C580.791 125.869 580.356 125.362 579.486 124.348C578.664 123.333 577.576 122.029 576.221 120.435C574.916 118.841 573.514 117.15 572.014 115.363C570.563 113.527 569.162 111.812 567.807 110.218C566.501 108.624 565.413 107.32 564.543 106.306C563.721 105.291 563.31 104.784 563.31 104.784L567.299 102.103ZM588.263 79.7855L566.574 104.784H563.31L583.258 79.7855H588.263ZM593.268 79.2783V79.9305H592.978C591.382 79.9305 589.884 80.2444 588.48 80.8724C587.128 81.5005 585.967 82.37 584.999 83.4809L580.429 83.336C581.058 82.5149 581.154 81.7419 580.719 81.0173C580.333 80.2927 579.656 79.9305 578.688 79.9305H577.962V79.2783H592.978H593.268ZM560.988 79.2783V130H556.273V79.2783H560.988ZM556.491 124.71V130H550.688V129.275C550.688 129.275 550.833 129.275 551.123 129.275C551.462 129.275 551.631 129.275 551.631 129.275C552.89 129.275 553.952 128.84 554.823 127.971C555.742 127.053 556.226 125.966 556.273 124.71H556.491ZM556.491 84.5678H556.273C556.226 83.3119 555.742 82.2491 554.823 81.3796C553.952 80.4617 552.89 80.0029 551.631 80.0029C551.631 80.0029 551.462 80.0029 551.123 80.0029C550.833 80.0029 550.688 80.0029 550.688 80.0029V79.2783H556.491V84.5678ZM560.771 124.71H560.988C561.037 125.966 561.496 127.053 562.367 127.971C563.286 128.84 564.374 129.275 565.631 129.275C565.631 129.275 565.776 129.275 566.066 129.275C566.356 129.275 566.527 129.275 566.574 129.275V130H560.771V124.71ZM560.771 84.5678V79.2783H566.574V80.0029C566.527 80.0029 566.356 80.0029 566.066 80.0029C565.776 80.0029 565.631 80.0029 565.631 80.0029C564.374 80.0029 563.286 80.4617 562.367 81.3796C561.496 82.2491 561.037 83.3119 560.988 84.5678H560.771ZM619.179 85.5098C622.563 85.5098 625.731 86.0654 628.682 87.1763C631.679 88.2392 634.291 89.7849 636.516 91.8137C638.788 93.8426 640.553 96.2578 641.811 99.0596C643.068 101.813 643.697 104.88 643.697 108.262C643.697 111.643 643.068 114.735 641.811 117.537C640.553 120.29 638.788 122.681 636.516 124.71C634.291 126.739 631.679 128.309 628.682 129.42C625.731 130.483 622.563 131.014 619.179 131.014C615.793 131.014 612.625 130.483 609.677 129.42C606.726 128.309 604.115 126.739 601.842 124.71C599.617 122.681 597.876 120.29 596.62 117.537C595.361 114.735 594.734 111.643 594.734 108.262C594.734 104.88 595.361 101.813 596.62 99.0596C597.876 96.2578 599.617 93.8426 601.842 91.8137C604.115 89.7849 606.726 88.2392 609.677 87.1763C612.625 86.0654 615.793 85.5098 619.179 85.5098ZM619.179 128.84C622.757 128.84 625.998 127.971 628.899 126.232C631.801 124.493 634.097 122.078 635.791 118.986C637.482 115.894 638.329 112.32 638.329 108.262C638.329 104.156 637.482 100.581 635.791 97.538C634.097 94.4463 631.801 92.0311 628.899 90.2921C625.998 88.5531 622.757 87.6836 619.179 87.6836C615.648 87.6836 612.433 88.5531 609.532 90.2921C606.63 92.0311 604.332 94.4463 602.64 97.538C600.946 100.581 600.102 104.156 600.102 108.262C600.102 112.32 600.946 115.894 602.64 118.986C604.332 122.078 606.63 124.493 609.532 126.232C612.433 127.971 615.648 128.84 619.179 128.84ZM697.205 85.5098L697.858 90.2196L680.884 123.623C680.884 123.623 680.69 124.034 680.304 124.855C679.964 125.676 679.602 126.667 679.216 127.826C678.827 128.937 678.537 130 678.345 131.014H677.62L676.604 126.449L697.205 85.5098ZM654.698 125.145V130H647.154V129.275C647.154 129.275 647.322 129.275 647.661 129.275C648.048 129.275 648.242 129.275 648.242 129.275C649.498 129.275 650.586 128.913 651.506 128.188C652.472 127.464 653.029 126.449 653.174 125.145H654.698ZM656.874 126.232C656.825 126.956 656.993 127.657 657.382 128.333C657.768 128.961 658.493 129.299 659.558 129.348H660.573V130H656.439V126.232H656.874ZM658.832 85.5098H659.558L661.008 89.7849L656.511 130H652.521L658.832 85.5098ZM659.558 85.5098L679.288 123.406L677.62 131.014L658.179 93.4803L659.558 85.5098ZM697.858 85.5098L704.387 130H698.874L694.159 93.5527L697.205 85.5098H697.858ZM702.21 125.145H703.661C703.853 126.449 704.433 127.464 705.402 128.188C706.369 128.913 707.457 129.275 708.666 129.275C708.666 129.275 708.835 129.275 709.174 129.275C709.56 129.275 709.754 129.275 709.754 129.275V130H702.21V125.145ZM698.366 126.232H698.874V130H694.666V129.348H695.754C696.866 129.299 697.591 128.937 697.931 128.261C698.317 127.584 698.462 126.908 698.366 126.232ZM724.111 86.5242V130H719.468V86.5242H724.111ZM743.624 127.753L743.479 130H723.966V127.753H743.624ZM740.214 107.175V109.349H723.966V107.175H740.214ZM743.551 86.5242V88.7704H723.966V86.5242H743.551ZM747.686 119.638L743.696 130H732.67L735.137 127.753C737.556 127.753 739.489 127.415 740.94 126.739C742.439 126.014 743.649 125.048 744.567 123.841C745.486 122.585 746.284 121.184 746.96 119.638H747.686ZM740.214 109.204V113.334H739.416V112.392C739.416 111.571 739.175 110.87 738.691 110.291C738.209 109.663 737.458 109.349 736.442 109.349V109.204H740.214ZM740.214 103.19V107.32H736.442V107.175C737.458 107.175 738.209 106.885 738.691 106.306C739.175 105.677 739.416 104.953 739.416 104.132V103.19H740.214ZM743.551 88.5531V93.5527H742.753V92.4659C742.753 91.4514 742.416 90.5819 741.738 89.8573C741.11 89.1327 740.24 88.7704 739.126 88.7704V88.5531H743.551ZM743.551 85.3649V87.2488L735.282 86.5242C736.781 86.5242 738.377 86.4034 740.069 86.1619C741.763 85.8721 742.924 85.6063 743.551 85.3649ZM719.613 125.362L720.556 130H714.245V129.275C714.245 129.275 714.416 129.275 714.753 129.275C715.092 129.275 715.261 129.275 715.261 129.275C716.471 129.275 717.463 128.889 718.235 128.116C719.01 127.343 719.421 126.425 719.468 125.362H719.613ZM719.613 91.0891H719.468C719.421 89.9782 719.01 89.0603 718.235 88.3357C717.463 87.6111 716.471 87.2488 715.261 87.2488C715.261 87.2488 715.092 87.2488 714.753 87.2488C714.416 87.2488 714.245 87.2488 714.245 87.2488V86.5242H720.556L719.613 91.0891ZM757.69 85.4373L797.876 123.261L798.601 131.014L758.415 92.9731L757.69 85.4373ZM757.835 125.507V130H752.394V129.275C752.394 129.275 752.586 129.275 752.975 129.275C753.41 129.275 753.627 129.275 753.627 129.275C754.739 129.275 755.682 128.913 756.456 128.188C757.229 127.464 757.617 126.57 757.617 125.507H757.835ZM760.881 125.507C760.881 126.57 761.268 127.464 762.042 128.188C762.863 128.913 763.806 129.275 764.871 129.275C764.871 129.275 765.063 129.275 765.451 129.275C765.887 129.275 766.104 129.275 766.104 129.275V130H760.664V125.507H760.881ZM757.69 85.4373L760.809 89.495L760.881 130H757.617V94.4947C757.617 92.0311 757.496 89.9057 757.254 88.1183C757.06 86.3309 756.964 85.4373 756.964 85.4373H757.69ZM798.601 86.5242V121.739C798.601 123.285 798.648 124.783 798.747 126.232C798.843 127.633 798.939 128.792 799.037 129.71C799.182 130.579 799.254 131.014 799.254 131.014H798.601L795.41 127.174V86.5242H798.601ZM798.384 91.0167V86.5242H803.824V87.2488C803.824 87.2488 803.607 87.2488 803.171 87.2488C802.783 87.2488 802.591 87.2488 802.591 87.2488C801.527 87.2488 800.583 87.6111 799.762 88.3357C798.988 89.0603 798.601 89.9539 798.601 91.0167H798.384ZM795.41 91.0167C795.361 89.9539 794.949 89.0603 794.177 88.3357C793.402 87.6111 792.459 87.2488 791.348 87.2488C791.348 87.2488 791.13 87.2488 790.695 87.2488C790.306 87.2488 790.114 87.2488 790.114 87.2488V86.5242H795.555V91.0167H795.41ZM834.602 86.5242C839.39 86.5242 843.524 87.3937 847.006 89.1327C850.488 90.8718 853.172 93.3837 855.058 96.6685C856.944 99.9051 857.887 103.769 857.887 108.262C857.887 112.754 856.944 116.619 855.058 119.855C853.172 123.092 850.488 125.604 847.006 127.391C843.524 129.13 839.39 130 834.602 130H819.151L819.006 127.826C822.392 127.826 825.221 127.826 827.493 127.826C829.814 127.826 831.579 127.826 832.789 127.826C833.998 127.826 834.602 127.826 834.602 127.826C840.211 127.826 844.612 126.087 847.804 122.609C851.045 119.082 852.664 114.3 852.664 108.262C852.664 102.224 851.045 97.4655 847.804 93.9875C844.612 90.4611 840.211 88.698 834.602 88.698C834.602 88.698 833.973 88.698 832.716 88.698C831.459 88.698 829.62 88.698 827.203 88.698C824.786 88.698 821.812 88.698 818.281 88.698V86.5242H834.602ZM820.167 86.5242V130H815.452V86.5242H820.167ZM815.597 125.29V130H810.374V129.275C810.374 129.275 810.519 129.275 810.809 129.275C811.149 129.275 811.317 129.275 811.317 129.275C812.478 129.275 813.444 128.889 814.219 128.116C814.993 127.295 815.403 126.353 815.452 125.29H815.597ZM815.597 91.2341H815.452C815.403 90.0747 814.967 89.1327 814.146 88.4082C813.372 87.6352 812.405 87.2488 811.245 87.2488C811.245 87.2488 811.099 87.2488 810.809 87.2488C810.519 87.2488 810.374 87.2488 810.374 87.2488V86.5242H815.597V91.2341ZM884.807 85.5098L904.755 129.565H899.025L883.574 91.9587L884.807 85.5098ZM870.807 124.71C870.274 126.159 870.346 127.295 871.025 128.116C871.701 128.889 872.476 129.275 873.346 129.275H873.926V130H860.072V129.275C860.072 129.275 860.168 129.275 860.362 129.275C860.554 129.275 860.652 129.275 860.652 129.275C861.667 129.275 862.706 128.937 863.771 128.261C864.833 127.536 865.753 126.353 866.527 124.71H870.807ZM884.807 85.5098L885.315 90.5095L868.704 129.782H864.134L881.325 92.9731C881.325 92.9731 881.445 92.6832 881.688 92.1036C881.978 91.5239 882.292 90.8234 882.631 90.0023C883.017 89.1327 883.356 88.2873 883.647 87.4662C883.937 86.6451 884.105 85.9929 884.154 85.5098H884.807ZM893.367 113.117V115.29H874.144V113.117H893.367ZM897.066 124.71H902.579C903.305 126.353 904.199 127.536 905.263 128.261C906.326 128.937 907.341 129.275 908.31 129.275C908.31 129.275 908.406 129.275 908.6 129.275C908.792 129.275 908.89 129.275 908.89 129.275V130H894.02V129.275H894.6C895.421 129.275 896.17 128.889 896.849 128.116C897.525 127.295 897.598 126.159 897.066 124.71Z" fill="#70521D"/>
<path d="M246.115 158.834L259.445 174.494C260.102 175.119 260.759 175.588 261.416 175.901C262.105 176.213 262.933 176.385 263.904 176.416V176.885H261.886C261.572 176.885 261.12 176.87 260.525 176.838C259.961 176.776 259.336 176.666 258.647 176.51C257.99 176.323 257.318 176.057 256.629 175.713C255.972 175.338 255.376 174.838 254.845 174.213C254.845 174.213 254.564 173.885 254 173.228C253.469 172.572 252.765 171.728 251.888 170.696C251.043 169.665 250.137 168.571 249.166 167.414C248.227 166.227 247.32 165.117 246.444 164.086C245.599 163.054 244.895 162.21 244.331 161.554C243.8 160.897 243.533 160.569 243.533 160.569L246.115 158.834ZM259.68 144.394L245.646 160.569H243.533L256.441 144.394H259.68ZM262.918 144.066V144.488H262.731C261.698 144.488 260.727 144.691 259.821 145.097C258.944 145.503 258.193 146.066 257.568 146.785L254.611 146.691C255.018 146.16 255.08 145.66 254.798 145.191C254.549 144.722 254.109 144.488 253.484 144.488H253.015V144.066H262.731H262.918ZM242.031 144.066V176.885H238.981V144.066H242.031ZM239.121 173.463V176.885H235.366V176.416C235.366 176.416 235.46 176.416 235.648 176.416C235.868 176.416 235.977 176.416 235.977 176.416C236.789 176.416 237.479 176.135 238.042 175.572C238.637 174.979 238.949 174.275 238.981 173.463H239.121ZM239.121 147.488H238.981C238.949 146.676 238.637 145.988 238.042 145.425C237.479 144.831 236.789 144.534 235.977 144.534C235.977 144.534 235.868 144.534 235.648 144.534C235.46 144.534 235.366 144.534 235.366 144.534V144.066H239.121V147.488ZM241.891 173.463H242.031C242.063 174.275 242.36 174.979 242.923 175.572C243.519 176.135 244.223 176.416 245.035 176.416C245.035 176.416 245.129 176.416 245.317 176.416C245.505 176.416 245.614 176.416 245.646 176.416V176.885H241.891V173.463ZM241.891 147.488V144.066H245.646V144.534C245.614 144.534 245.505 144.534 245.317 144.534C245.129 144.534 245.035 144.534 245.035 144.534C244.223 144.534 243.519 144.831 242.923 145.425C242.36 145.988 242.063 146.676 242.031 147.488H241.891ZM279.169 148.098L292.077 176.604H288.369L278.371 152.27L279.169 148.098ZM270.11 173.463C269.767 174.4 269.814 175.135 270.251 175.666C270.689 176.166 271.19 176.416 271.753 176.416H272.129V176.885H263.164V176.416C263.164 176.416 263.226 176.416 263.351 176.416C263.477 176.416 263.539 176.416 263.539 176.416C264.196 176.416 264.868 176.198 265.557 175.76C266.247 175.291 266.84 174.525 267.341 173.463H270.11ZM279.169 148.098L279.498 151.333L268.749 176.745H265.792L276.916 152.927C276.916 152.927 276.995 152.739 277.151 152.364C277.339 151.989 277.541 151.536 277.761 151.005C278.011 150.442 278.23 149.895 278.418 149.364C278.606 148.832 278.715 148.41 278.747 148.098H279.169ZM284.708 165.961V167.368H272.269V165.961H284.708ZM287.101 173.463H290.669C291.138 174.525 291.716 175.291 292.405 175.76C293.094 176.198 293.752 176.416 294.377 176.416C294.377 176.416 294.439 176.416 294.564 176.416C294.69 176.416 294.752 176.416 294.752 176.416V176.885H285.13V176.416H285.506C286.037 176.416 286.523 176.166 286.961 175.666C287.398 175.135 287.445 174.4 287.101 173.463ZM299.591 148.051L325.594 172.525L326.063 177.542L300.06 152.927L299.591 148.051ZM299.685 173.978V176.885H296.165V176.416C296.165 176.416 296.29 176.416 296.54 176.416C296.822 176.416 296.962 176.416 296.962 176.416C297.681 176.416 298.292 176.182 298.793 175.713C299.294 175.244 299.544 174.666 299.544 173.978H299.685ZM301.656 173.978C301.656 174.666 301.906 175.244 302.407 175.713C302.938 176.182 303.549 176.416 304.238 176.416C304.238 176.416 304.363 176.416 304.613 176.416C304.895 176.416 305.036 176.416 305.036 176.416V176.885H301.515V173.978H301.656ZM299.591 148.051L301.609 150.676L301.656 176.885H299.544V153.911C299.544 152.317 299.465 150.942 299.309 149.786C299.183 148.629 299.122 148.051 299.122 148.051H299.591ZM326.063 148.754V171.54C326.063 172.54 326.095 173.51 326.157 174.447C326.219 175.354 326.283 176.104 326.345 176.698C326.439 177.26 326.486 177.542 326.486 177.542H326.063L323.998 175.057V148.754H326.063ZM325.922 151.661V148.754H329.443V149.223C329.443 149.223 329.302 149.223 329.02 149.223C328.771 149.223 328.645 149.223 328.645 149.223C327.956 149.223 327.345 149.457 326.814 149.926C326.313 150.395 326.063 150.973 326.063 151.661H325.922ZM323.998 151.661C323.966 150.973 323.701 150.395 323.2 149.926C322.699 149.457 322.089 149.223 321.37 149.223C321.37 149.223 321.229 149.223 320.947 149.223C320.697 149.223 320.572 149.223 320.572 149.223V148.754H324.092V151.661H323.998ZM362.13 165.07L361.614 171.493C360.801 172.744 359.736 173.822 358.422 174.729C357.108 175.635 355.621 176.338 353.963 176.838C352.305 177.307 350.551 177.542 348.706 177.542C345.546 177.51 342.792 176.901 340.445 175.713C338.13 174.525 336.347 172.838 335.094 170.65C333.842 168.461 333.217 165.852 333.217 162.82C333.217 159.757 333.842 157.131 335.094 154.943C336.347 152.755 338.13 151.067 340.445 149.879C342.792 148.692 345.546 148.098 348.706 148.098C350.645 148.098 352.602 148.348 354.573 148.848C356.544 149.348 358.249 150.051 359.689 150.958L360.722 157.569H360.299C359.61 154.693 358.219 152.63 356.122 151.38C354.057 150.129 351.569 149.504 348.659 149.504C346.186 149.504 344.044 150.051 342.229 151.145C340.445 152.208 339.052 153.739 338.051 155.74C337.081 157.709 336.596 160.069 336.596 162.82C336.596 165.508 337.081 167.852 338.051 169.852C339.052 171.822 340.46 173.353 342.276 174.447C344.091 175.51 346.233 176.057 348.706 176.088C351.053 176.088 353.165 175.713 355.042 174.963C356.952 174.181 358.501 172.978 359.689 171.353C360.877 169.727 361.552 167.633 361.707 165.07H362.13ZM372.93 148.754V176.885H369.926V148.754H372.93ZM385.556 175.432L385.462 176.885H372.836V175.432H385.556ZM383.35 162.116V163.523H372.836V162.116H383.35ZM385.509 148.754V150.208H372.836V148.754H385.509ZM388.184 170.181L385.603 176.885H378.468L380.064 175.432C381.628 175.432 382.88 175.213 383.819 174.775C384.788 174.307 385.571 173.681 386.166 172.9C386.759 172.087 387.275 171.181 387.715 170.181H388.184ZM383.35 163.429V166.102H382.833V165.492C382.833 164.961 382.675 164.508 382.364 164.132C382.05 163.726 381.566 163.523 380.909 163.523V163.429H383.35ZM383.35 159.538V162.21H380.909V162.116C381.566 162.116 382.05 161.929 382.364 161.554C382.675 161.147 382.833 160.679 382.833 160.147V159.538H383.35ZM385.509 150.067V153.302H384.992V152.599C384.992 151.942 384.773 151.38 384.335 150.911C383.928 150.442 383.364 150.208 382.646 150.208V150.067H385.509ZM385.509 148.004V149.223L380.158 148.754C381.126 148.754 382.159 148.676 383.256 148.52C384.35 148.332 385.101 148.16 385.509 148.004ZM370.02 173.885L370.63 176.885H366.546V176.416C366.546 176.416 366.655 176.416 366.875 176.416C367.092 176.416 367.203 176.416 367.203 176.416C367.984 176.416 368.626 176.166 369.128 175.666C369.627 175.166 369.894 174.572 369.926 173.885H370.02ZM370.02 151.708H369.926C369.894 150.989 369.627 150.395 369.128 149.926C368.626 149.457 367.984 149.223 367.203 149.223C367.203 149.223 367.092 149.223 366.875 149.223C366.655 149.223 366.546 149.223 366.546 149.223V148.754H370.63L370.02 151.708ZM398.094 148.754V176.885H395.09V148.754H398.094ZM410.72 175.432L410.626 176.885H398V175.432H410.72ZM413.349 170.181L410.767 176.885H403.633L405.228 175.432C406.792 175.432 408.045 175.213 408.983 174.775C409.952 174.307 410.735 173.681 411.33 172.9C411.923 172.087 412.44 171.181 412.879 170.181H413.349ZM395.184 173.885L395.794 176.885H391.711V176.416C391.711 176.416 391.82 176.416 392.039 176.416C392.257 176.416 392.368 176.416 392.368 176.416C393.149 176.416 393.791 176.166 394.292 175.666C394.791 175.166 395.058 174.572 395.09 173.885H395.184ZM397.953 151.755V148.754H401.427V149.223C401.427 149.223 401.333 149.223 401.145 149.223C400.957 149.223 400.863 149.223 400.863 149.223C400.112 149.223 399.455 149.473 398.892 149.973C398.359 150.442 398.094 151.036 398.094 151.755H397.953ZM395.184 151.755H395.09C395.058 151.036 394.777 150.442 394.245 149.973C393.712 149.473 393.055 149.223 392.274 149.223C392.274 149.223 392.18 149.223 391.992 149.223C391.805 149.223 391.711 149.223 391.711 149.223V148.754H395.184V151.755ZM430.064 148.098L442.972 176.604H439.264L429.266 152.27L430.064 148.098ZM421.006 173.463C420.66 174.4 420.707 175.135 421.146 175.666C421.584 176.166 422.085 176.416 422.648 176.416H423.024V176.885H414.059V176.416C414.059 176.416 414.121 176.416 414.247 176.416C414.37 176.416 414.434 176.416 414.434 176.416C415.092 176.416 415.764 176.198 416.453 175.76C417.14 175.291 417.735 174.525 418.236 173.463H421.006ZM430.064 148.098L430.393 151.333L419.644 176.745H416.687L427.811 152.927C427.811 152.927 427.888 152.739 428.046 152.364C428.234 151.989 428.437 151.536 428.656 151.005C428.906 150.442 429.126 149.895 429.313 149.364C429.501 148.832 429.61 148.41 429.642 148.098H430.064ZM435.603 165.961V167.368H423.165V165.961H435.603ZM437.997 173.463H441.564C442.033 174.525 442.611 175.291 443.301 175.76C443.988 176.198 444.645 176.416 445.272 176.416C445.272 176.416 445.334 176.416 445.46 176.416C445.583 176.416 445.647 176.416 445.647 176.416V176.885H436.025V176.416H436.401C436.932 176.416 437.416 176.166 437.856 175.666C438.293 175.135 438.34 174.4 437.997 173.463ZM453.723 148.754H459.778C461.25 148.754 462.564 148.926 463.72 149.27C464.911 149.614 465.911 150.114 466.724 150.77C467.569 151.427 468.211 152.224 468.649 153.161C469.088 154.099 469.306 155.162 469.306 156.35C469.306 157.662 468.994 158.881 468.367 160.007C467.742 161.132 466.865 162.054 465.738 162.773C464.644 163.492 463.392 163.929 461.984 164.086C462.517 164.304 463.127 164.789 463.814 165.539C464.535 166.289 465.145 167.024 465.645 167.743C465.645 167.743 465.849 168.024 466.255 168.587C466.662 169.118 467.179 169.79 467.804 170.603C468.461 171.384 469.103 172.134 469.728 172.853C470.385 173.572 470.98 174.197 471.512 174.729C472.075 175.26 472.67 175.682 473.295 175.994C473.952 176.276 474.703 176.416 475.548 176.416V176.885H474.093C472.374 176.885 470.948 176.666 469.822 176.229C468.728 175.791 467.836 175.26 467.147 174.635C466.46 173.978 465.864 173.353 465.363 172.759C465.239 172.603 464.941 172.212 464.471 171.587C464.034 170.931 463.55 170.228 463.016 169.477C462.485 168.727 462.001 168.055 461.561 167.461C461.124 166.836 460.857 166.461 460.763 166.336C460.138 165.523 459.419 164.804 458.604 164.179C457.791 163.523 456.931 163.195 456.023 163.195V162.726C456.023 162.726 456.274 162.741 456.774 162.773C457.275 162.773 457.917 162.757 458.698 162.726C459.575 162.695 460.452 162.632 461.326 162.538C462.203 162.413 463.016 162.07 463.767 161.507C464.55 160.944 465.16 160.007 465.598 158.694C465.724 158.35 465.817 157.944 465.879 157.475C465.943 157.006 465.958 156.521 465.926 156.021C465.896 155.146 465.724 154.365 465.41 153.677C465.128 152.989 464.706 152.396 464.143 151.895C463.611 151.395 462.969 151.005 462.218 150.723C461.467 150.442 460.622 150.286 459.684 150.254C458.214 150.192 456.931 150.176 455.835 150.208C454.74 150.239 454.192 150.239 454.192 150.208C454.192 150.176 454.145 150.051 454.051 149.832C453.989 149.582 453.91 149.348 453.817 149.129C453.755 148.879 453.723 148.754 453.723 148.754ZM454.286 148.754V176.885H451.282V148.754H454.286ZM451.423 173.885L451.986 176.885H447.996V176.416C447.996 176.416 448.107 176.416 448.325 176.416C448.545 176.416 448.654 176.416 448.654 176.416C449.405 176.416 450.032 176.166 450.531 175.666C451.032 175.166 451.299 174.572 451.329 173.885H451.423ZM451.423 151.708H451.329C451.299 150.989 451.032 150.395 450.531 149.926C450.032 149.457 449.405 149.223 448.654 149.223C448.654 149.223 448.545 149.223 448.325 149.223C448.107 149.223 447.996 149.223 447.996 149.223V148.754H451.986L451.423 151.708ZM454.145 173.885H454.286C454.318 174.572 454.585 175.166 455.084 175.666C455.585 176.166 456.21 176.416 456.961 176.416C456.961 176.416 457.055 176.416 457.243 176.416C457.463 176.416 457.571 176.416 457.571 176.416L457.618 176.885H453.582L454.145 173.885ZM484.229 148.754V176.885H481.272V148.754H484.229ZM481.413 173.885V176.885H477.424V176.416C477.424 176.416 477.535 176.416 477.752 176.416C477.972 176.416 478.081 176.416 478.081 176.416C478.958 176.416 479.694 176.166 480.287 175.666C480.914 175.166 481.243 174.572 481.272 173.885H481.413ZM484.089 173.885H484.229C484.261 174.572 484.575 175.166 485.168 175.666C485.795 176.166 486.546 176.416 487.421 176.416C487.421 176.416 487.515 176.416 487.703 176.416C487.923 176.416 488.031 176.416 488.031 176.416L488.078 176.885H484.089V173.885ZM484.089 151.755V148.754H488.078L488.031 149.223C488.031 149.223 487.923 149.223 487.703 149.223C487.515 149.223 487.421 149.223 487.421 149.223C486.546 149.223 485.795 149.473 485.168 149.973C484.575 150.442 484.261 151.036 484.229 151.755H484.089ZM481.413 151.755H481.272C481.243 151.036 480.914 150.442 480.287 149.973C479.694 149.473 478.958 149.223 478.081 149.223C478.051 149.223 477.925 149.223 477.705 149.223C477.518 149.223 477.424 149.223 477.424 149.223V148.754H481.413V151.755ZM506.381 148.098L519.289 176.604H515.581L505.584 152.27L506.381 148.098ZM497.323 173.463C496.979 174.4 497.026 175.135 497.464 175.666C497.901 176.166 498.402 176.416 498.965 176.416H499.341V176.885H490.376V176.416C490.376 176.416 490.438 176.416 490.564 176.416C490.69 176.416 490.752 176.416 490.752 176.416C491.409 176.416 492.081 176.198 492.77 175.76C493.459 175.291 494.052 174.525 494.553 173.463H497.323ZM506.381 148.098L506.71 151.333L495.962 176.745H493.004L504.129 152.927C504.129 152.927 504.207 152.739 504.363 152.364C504.551 151.989 504.754 151.536 504.973 151.005C505.223 150.442 505.443 149.895 505.63 149.364C505.818 148.832 505.927 148.41 505.959 148.098H506.381ZM511.92 165.961V167.368H499.482V165.961H511.92ZM514.314 173.463H517.881C518.35 174.525 518.929 175.291 519.618 175.76C520.307 176.198 520.964 176.416 521.589 176.416C521.589 176.416 521.651 176.416 521.777 176.416C521.903 176.416 521.964 176.416 521.964 176.416V176.885H512.342V176.416H512.718C513.249 176.416 513.736 176.166 514.173 175.666C514.61 175.135 514.657 174.4 514.314 173.463ZM550.319 143.409L564.212 176.604H560.222L549.38 147.863L550.319 143.409ZM540.227 173.463C540.007 174.088 539.978 174.619 540.133 175.057C540.289 175.494 540.541 175.838 540.884 176.088C541.26 176.307 541.635 176.416 542.011 176.416H542.433V176.885H532.999V176.416C532.999 176.416 533.078 176.416 533.234 176.416C533.359 176.416 533.421 176.416 533.421 176.416C534.14 176.416 534.876 176.198 535.627 175.76C536.41 175.291 537.05 174.525 537.552 173.463H540.227ZM550.319 143.409L550.741 146.691L538.96 176.745H536.144L548.159 148.238C548.159 148.238 548.238 148.051 548.394 147.676C548.582 147.269 548.785 146.785 549.004 146.222C549.254 145.66 549.459 145.113 549.615 144.581C549.802 144.05 549.896 143.659 549.896 143.409H550.319ZM556.937 164.086V165.492H542.245V164.086H556.937ZM559.049 173.463H562.898C563.367 174.525 563.992 175.291 564.775 175.76C565.558 176.198 566.309 176.416 567.028 176.416C567.028 176.416 567.09 176.416 567.216 176.416C567.342 176.416 567.403 176.416 567.403 176.416V176.885H556.843V176.416H557.265C557.86 176.416 558.392 176.166 558.861 175.666C559.33 175.135 559.392 174.4 559.049 173.463ZM585.141 148.754C588.239 148.754 590.915 149.317 593.168 150.442C595.421 151.567 597.157 153.193 598.378 155.318C599.598 157.412 600.208 159.913 600.208 162.82C600.208 165.727 599.598 168.227 598.378 170.321C597.157 172.416 595.421 174.041 593.168 175.197C590.915 176.323 588.239 176.885 585.141 176.885H575.144L575.05 175.479C577.241 175.479 579.072 175.479 580.542 175.479C582.044 175.479 583.185 175.479 583.968 175.479C584.751 175.479 585.141 175.479 585.141 175.479C588.77 175.479 591.619 174.353 593.684 172.103C595.781 169.821 596.829 166.727 596.829 162.82C596.829 158.913 595.781 155.834 593.684 153.583C591.619 151.301 588.77 150.161 585.141 150.161C585.141 150.161 584.734 150.161 583.921 150.161C583.108 150.161 581.918 150.161 580.354 150.161C578.79 150.161 576.866 150.161 574.581 150.161V148.754H585.141ZM575.801 148.754V176.885H572.75V148.754H575.801ZM572.844 173.838V176.885H569.464V176.416C569.464 176.416 569.558 176.416 569.746 176.416C569.966 176.416 570.075 176.416 570.075 176.416C570.826 176.416 571.451 176.166 571.952 175.666C572.454 175.135 572.718 174.525 572.75 173.838H572.844ZM572.844 151.802H572.75C572.718 151.051 572.436 150.442 571.905 149.973C571.404 149.473 570.779 149.223 570.028 149.223C570.028 149.223 569.934 149.223 569.746 149.223C569.558 149.223 569.464 149.223 569.464 149.223V148.754H572.844V151.802ZM604.761 149.035H608.516L616.12 172.15L615.697 177.448L604.761 149.035ZM624.052 148.004L624.427 151.802L617.152 172.244C617.152 172.244 617.073 172.525 616.918 173.088C616.762 173.619 616.589 174.291 616.401 175.104C616.245 175.885 616.152 176.666 616.12 177.448H615.697L614.805 173.275L623.583 148.004H624.052ZM624.052 148.051L633.064 170.978L631.984 177.448L622.456 153.114L624.052 148.051ZM641.325 149.035L633.533 172.244C633.533 172.244 633.439 172.525 633.252 173.088C633.096 173.65 632.923 174.338 632.735 175.15C632.579 175.932 632.486 176.698 632.454 177.448H631.984L631.421 172.806L638.649 149.035H641.325ZM637.711 152.036C638.054 151.036 638.024 150.317 637.617 149.879C637.241 149.442 636.804 149.223 636.302 149.223H635.927V148.754H644.516V149.223C644.516 149.223 644.454 149.223 644.329 149.223C644.235 149.223 644.188 149.223 644.188 149.223C643.217 149.223 642.404 149.489 641.747 150.02C641.09 150.551 640.621 151.223 640.339 152.036H637.711ZM609.502 151.989L605.934 152.036C605.621 151.223 605.151 150.551 604.526 150.02C603.901 149.489 603.086 149.223 602.086 149.223C602.086 149.223 602.024 149.223 601.898 149.223C601.772 149.223 601.71 149.223 601.71 149.223V148.754H611.379V149.223H611.003C610.502 149.223 610.05 149.442 609.642 149.879C609.235 150.286 609.188 150.989 609.502 151.989ZM662.007 148.098C664.198 148.098 666.248 148.457 668.155 149.176C670.097 149.864 671.787 150.864 673.225 152.177C674.697 153.49 675.838 155.052 676.651 156.865C677.466 158.647 677.871 160.632 677.871 162.82C677.871 165.008 677.466 167.008 676.651 168.821C675.838 170.603 674.697 172.15 673.225 173.463C671.787 174.775 670.097 175.791 668.155 176.51C666.248 177.198 664.198 177.542 662.007 177.542C659.818 177.542 657.767 177.198 655.858 176.51C653.951 175.791 652.261 174.775 650.789 173.463C649.351 172.15 648.224 170.603 647.409 168.821C646.596 167.008 646.189 165.008 646.189 162.82C646.189 160.632 646.596 158.647 647.409 156.865C648.224 155.052 649.351 153.49 650.789 152.177C652.261 150.864 653.951 149.864 655.858 149.176C657.767 148.457 659.818 148.098 662.007 148.098ZM662.007 176.135C664.324 176.135 666.419 175.572 668.296 174.447C670.174 173.322 671.661 171.759 672.755 169.759C673.852 167.758 674.398 165.445 674.398 162.82C674.398 160.163 673.852 157.85 672.755 155.881C671.661 153.88 670.174 152.317 668.296 151.192C666.419 150.067 664.324 149.504 662.007 149.504C659.724 149.504 657.642 150.067 655.764 151.192C653.887 152.317 652.402 153.88 651.305 155.881C650.211 157.85 649.662 160.163 649.662 162.82C649.662 165.445 650.211 167.758 651.305 169.759C652.402 171.759 653.887 173.322 655.764 174.447C657.642 175.572 659.724 176.135 662.007 176.135ZM692.693 161.179L704.943 174.494C705.474 175.119 706.038 175.588 706.633 175.901C707.228 176.213 708.026 176.385 709.027 176.416V176.885H707.29C706.915 176.885 706.445 176.87 705.882 176.838C705.351 176.776 704.755 176.666 704.098 176.51C703.473 176.323 702.831 176.057 702.174 175.713C701.549 175.338 700.954 174.838 700.39 174.213C700.39 174.213 700.141 173.947 699.639 173.416C699.17 172.853 698.545 172.15 697.762 171.306C696.979 170.431 696.134 169.524 695.227 168.587C694.35 167.618 693.523 166.711 692.74 165.867C691.957 164.992 691.317 164.289 690.815 163.757C690.314 163.195 690.064 162.913 690.064 162.913L692.693 161.179ZM705.225 149.082L692.27 162.913H690.064L701.845 149.082H705.225ZM708.276 148.754V149.223H708.088C707.117 149.223 706.21 149.379 705.366 149.692C704.553 150.004 703.879 150.473 703.347 151.098L700.156 151.051C700.499 150.614 700.546 150.208 700.296 149.832C700.077 149.426 699.686 149.223 699.123 149.223H698.701V148.754H708.088H708.276ZM688.421 148.754V176.885H685.417V148.754H688.421ZM685.511 173.885V176.885H682.085V176.416C682.085 176.416 682.179 176.416 682.367 176.416C682.554 176.416 682.648 176.416 682.648 176.416C683.399 176.416 684.041 176.166 684.573 175.666C685.104 175.166 685.385 174.572 685.417 173.885H685.511ZM688.281 173.885H688.421C688.421 174.572 688.688 175.166 689.219 175.666C689.751 176.166 690.408 176.416 691.191 176.416C691.191 176.416 691.27 176.416 691.425 176.416C691.613 176.416 691.707 176.416 691.707 176.416V176.885H688.281V173.885ZM688.281 151.755V148.754H691.707V149.223C691.707 149.223 691.613 149.223 691.425 149.223C691.27 149.223 691.176 149.223 691.144 149.223C690.393 149.223 689.751 149.473 689.219 149.973C688.688 150.442 688.421 151.036 688.421 151.755H688.281ZM685.511 151.755H685.417C685.385 151.036 685.104 150.442 684.573 149.973C684.041 149.473 683.399 149.223 682.648 149.223C682.648 149.223 682.554 149.223 682.367 149.223C682.179 149.223 682.085 149.223 682.085 149.223V148.754H685.511V151.755ZM724.565 148.098L737.473 176.604H733.764L723.767 152.27L724.565 148.098ZM715.506 173.463C715.16 174.4 715.207 175.135 715.647 175.666C716.084 176.166 716.586 176.416 717.149 176.416H717.524V176.885H708.559V176.416C708.559 176.416 708.621 176.416 708.747 176.416C708.871 176.416 708.935 176.416 708.935 176.416C709.592 176.416 710.264 176.198 710.953 175.76C711.64 175.291 712.235 174.525 712.737 173.463H715.506ZM724.565 148.098L724.893 151.333L714.145 176.745H711.188L722.312 152.927C722.312 152.927 722.389 152.739 722.547 152.364C722.734 151.989 722.937 151.536 723.157 151.005C723.406 150.442 723.626 149.895 723.814 149.364C724.002 148.832 724.11 148.41 724.142 148.098H724.565ZM730.103 165.961V167.368H717.665V165.961H730.103ZM732.497 173.463H736.064C736.534 174.525 737.112 175.291 737.801 175.76C738.488 176.198 739.145 176.416 739.772 176.416C739.772 176.416 739.834 176.416 739.96 176.416C740.084 176.416 740.148 176.416 740.148 176.416V176.885H730.526V176.416H730.901C731.433 176.416 731.917 176.166 732.356 175.666C732.794 175.135 732.841 174.4 732.497 173.463ZM770.488 165.07L769.972 171.493C769.159 172.744 768.094 173.822 766.78 174.729C765.466 175.635 763.981 176.338 762.321 176.838C760.664 177.307 758.912 177.542 757.064 177.542C753.905 177.51 751.15 176.901 748.803 175.713C746.489 174.525 744.705 172.838 743.453 170.65C742.202 168.461 741.575 165.852 741.575 162.82C741.575 159.757 742.202 157.131 743.453 154.943C744.705 152.755 746.489 151.067 748.803 149.879C751.15 148.692 753.905 148.098 757.064 148.098C759.006 148.098 760.96 148.348 762.931 148.848C764.903 149.348 766.61 150.051 768.048 150.958L769.08 157.569H768.658C767.971 154.693 766.578 152.63 764.48 151.38C762.415 150.129 759.927 149.504 757.017 149.504C754.547 149.504 752.403 150.051 750.587 151.145C748.803 152.208 747.412 153.739 746.41 155.74C745.441 157.709 744.955 160.069 744.955 162.82C744.955 165.508 745.441 167.852 746.41 169.852C747.412 171.822 748.821 173.353 750.634 174.447C752.45 175.51 754.594 176.057 757.064 176.088C759.411 176.088 761.523 175.713 763.401 174.963C765.31 174.181 766.859 172.978 768.048 171.353C769.238 169.727 769.91 167.633 770.066 165.07H770.488ZM785.512 161.179L797.763 174.494C798.294 175.119 798.857 175.588 799.453 175.901C800.048 176.213 800.846 176.385 801.846 176.416V176.885H800.11C799.734 176.885 799.265 176.87 798.702 176.838C798.17 176.776 797.575 176.666 796.918 176.51C796.293 176.323 795.651 176.057 794.994 175.713C794.368 175.338 793.773 174.838 793.21 174.213C793.21 174.213 792.96 173.947 792.459 173.416C791.99 172.853 791.364 172.15 790.581 171.306C789.798 170.431 788.954 169.524 788.047 168.587C787.17 167.618 786.342 166.711 785.559 165.867C784.776 164.992 784.136 164.289 783.635 163.757C783.133 163.195 782.884 162.913 782.884 162.913L785.512 161.179ZM798.044 149.082L785.09 162.913H782.884L794.665 149.082H798.044ZM801.095 148.754V149.223H800.908C799.937 149.223 799.03 149.379 798.185 149.692C797.372 150.004 796.698 150.473 796.167 151.098L792.975 151.051C793.319 150.614 793.366 150.208 793.116 149.832C792.896 149.426 792.506 149.223 791.943 149.223H791.52V148.754H800.908H801.095ZM781.241 148.754V176.885H778.237V148.754H781.241ZM778.331 173.885V176.885H774.905V176.416C774.905 176.416 774.998 176.416 775.186 176.416C775.374 176.416 775.468 176.416 775.468 176.416C776.219 176.416 776.861 176.166 777.392 175.666C777.923 175.166 778.205 174.572 778.237 173.885H778.331ZM781.1 173.885H781.241C781.241 174.572 781.508 175.166 782.039 175.666C782.57 176.166 783.227 176.416 784.01 176.416C784.01 176.416 784.089 176.416 784.245 176.416C784.433 176.416 784.527 176.416 784.527 176.416V176.885H781.1V173.885ZM781.1 151.755V148.754H784.527V149.223C784.527 149.223 784.433 149.223 784.245 149.223C784.089 149.223 783.995 149.223 783.963 149.223C783.212 149.223 782.57 149.473 782.039 149.973C781.508 150.442 781.241 151.036 781.241 151.755H781.1ZM778.331 151.755H778.237C778.205 151.036 777.923 150.442 777.392 149.973C776.861 149.473 776.219 149.223 775.468 149.223C775.468 149.223 775.374 149.223 775.186 149.223C774.998 149.223 774.905 149.223 774.905 149.223V148.754H778.331V151.755ZM817.384 148.098L830.292 176.604H826.584L816.587 152.27L817.384 148.098ZM808.326 173.463C807.98 174.4 808.027 175.135 808.467 175.666C808.904 176.166 809.405 176.416 809.968 176.416H810.344V176.885H801.379V176.416C801.379 176.416 801.441 176.416 801.567 176.416C801.691 176.416 801.755 176.416 801.755 176.416C802.412 176.416 803.084 176.198 803.773 175.76C804.46 175.291 805.055 174.525 805.556 173.463H808.326ZM817.384 148.098L817.713 151.333L806.965 176.745H804.008L815.132 152.927C815.132 152.927 815.208 152.739 815.366 152.364C815.554 151.989 815.757 151.536 815.976 151.005C816.226 150.442 816.446 149.895 816.634 149.364C816.821 148.832 816.93 148.41 816.962 148.098H817.384ZM822.923 165.961V167.368H810.485V165.961H822.923ZM825.317 173.463H828.884C829.353 174.525 829.932 175.291 830.621 175.76C831.308 176.198 831.965 176.416 832.592 176.416C832.592 176.416 832.654 176.416 832.78 176.416C832.903 176.416 832.967 176.416 832.967 176.416V176.885H823.345V176.416H823.721C824.252 176.416 824.736 176.166 825.176 175.666C825.613 175.135 825.66 174.4 825.317 173.463Z" fill="#70521D"/>
<path fill-rule="evenodd" clip-rule="evenodd" d="M235.998 201.923C212.957 235.694 174.142 257.869 130.143 257.869C59.4452 257.869 2.13349 200.62 2.13349 130C2.13349 59.38 59.4452 2.13115 130.143 2.13115C174.142 2.13115 212.957 24.3055 235.998 58.077C236.421 57.4415 236.849 56.8098 237.285 56.1824C213.803 22.2396 174.573 0 130.143 0C58.2669 0 0 58.2029 0 130C0 201.797 58.2669 260 130.143 260C174.573 260 213.803 237.761 237.285 203.818C236.849 203.19 236.421 202.559 235.998 201.923Z" fill="#70521D"/>
</svg>
