<svg width="122" height="122" viewBox="0 0 122 122" fill="none" xmlns="http://www.w3.org/2000/svg">
<g clip-path="url(#clip0_509_30)">
<path d="M26.773 31H37.7966C41.3597 31 44.4218 31.6571 46.9829 32.9714C49.5439 34.2857 51.5203 36.2 52.9122 38.7143C54.3041 41.1714 55 44.1143 55 47.5429C55 50.1714 54.4989 52.5429 53.4968 54.6571C52.4946 56.7143 51.1585 58.4571 49.4882 59.8857C47.818 61.3143 45.9251 62.4 43.8094 63.1429C41.6938 63.8286 39.4946 64.0857 37.212 63.9143C34.985 63.7429 32.8137 63.0857 30.6981 61.9429V61.0857C30.6981 61.0857 31.1713 61.1714 32.1178 61.3429C33.0642 61.4571 34.2612 61.4857 35.7088 61.4286C37.212 61.3143 38.7709 61 40.3854 60.4857C42.0557 59.9143 43.5867 58.9429 44.9786 57.5714C46.4261 56.2 47.5118 54.2857 48.2355 51.8286C48.4026 51.2 48.5418 50.4286 48.6531 49.5143C48.7645 48.5429 48.7923 47.6 48.7366 46.6857C48.6809 42.7429 47.6788 39.5714 45.7302 37.1714C43.7816 34.7714 41.0257 33.5714 37.4625 33.5714H27.6081C27.6081 33.5714 27.5246 33.3714 27.3576 32.9714C27.2463 32.5143 27.1071 32.0857 26.94 31.6857C26.8287 31.2286 26.773 31 26.773 31ZM27.8587 31V91H22.4304V31H27.8587ZM22.6809 84.7429V91H16V90.1429C16 90.1429 16.167 90.1429 16.5011 90.1429C16.8908 90.1429 17.0857 90.1429 17.0857 90.1429C18.5332 90.1429 19.758 89.6286 20.7602 88.6C21.818 87.5143 22.3747 86.2286 22.4304 84.7429H22.6809ZM22.6809 37.2571H22.4304C22.4304 35.7714 21.9015 34.5143 20.8437 33.4857C19.7859 32.4 18.5332 31.8571 17.0857 31.8571C17.0857 31.8571 16.9186 31.8571 16.5846 31.8571C16.2505 31.8571 16.0835 31.8571 16.0835 31.8571L16 31H22.6809V37.2571ZM27.6081 84.7429H27.8587C27.9143 86.2286 28.4433 87.5143 29.4454 88.6C30.5032 89.6286 31.7559 90.1429 33.2034 90.1429C33.2034 90.1429 33.3705 90.1429 33.7045 90.1429C34.0942 90.1429 34.2891 90.1429 34.2891 90.1429V91H27.6081V84.7429Z" fill="#70521D"/>
<path d="M75.5855 58L99.875 86.6286C101.072 87.7714 102.27 88.6286 103.467 89.2C104.721 89.7714 106.232 90.0857 108 90.1429V91H104.322C103.752 91 102.925 90.9714 101.842 90.9143C100.816 90.8 99.6754 90.6 98.4211 90.3143C97.2237 89.9714 95.9978 89.4857 94.7434 88.8571C93.5461 88.1714 92.4627 87.2571 91.4934 86.1143C91.4934 86.1143 90.9803 85.5143 89.9539 84.3143C88.9846 83.1143 87.7018 81.5714 86.1053 79.6857C84.5658 77.8 82.9123 75.8 81.1447 73.6857C79.4342 71.5143 77.7807 69.4857 76.1842 67.6C74.6447 65.7143 73.3618 64.1714 72.3355 62.9714C71.3662 61.7714 70.8816 61.1714 70.8816 61.1714L75.5855 58ZM100.303 31.6L74.7303 61.1714H70.8816L94.4013 31.6H100.303ZM106.204 31V31.7714H105.862C103.98 31.7714 102.213 32.1429 100.559 32.8857C98.9627 33.6286 97.5943 34.6571 96.4539 35.9714L91.0658 35.8C91.807 34.8286 91.9211 33.9143 91.4079 33.0571C90.9518 32.2 90.1535 31.7714 89.0132 31.7714H88.1579V31H106.204ZM68.1447 31V91H62.5855V31H68.1447ZM62.8421 84.7429V91H56V90.1429C56 90.1429 56.1711 90.1429 56.5132 90.1429C56.9123 90.1429 57.1118 90.1429 57.1118 90.1429C58.5943 90.1429 59.8487 89.6286 60.875 88.6C61.9583 87.5143 62.5285 86.2286 62.5855 84.7429H62.8421ZM62.8421 37.2571H62.5855C62.5285 35.7714 61.9583 34.5143 60.875 33.4857C59.8487 32.4 58.5943 31.8571 57.1118 31.8571C57.1118 31.8571 56.9123 31.8571 56.5132 31.8571C56.1711 31.8571 56 31.8571 56 31.8571V31H62.8421V37.2571ZM67.8882 84.7429H68.1447C68.2018 86.2286 68.7434 87.5143 69.7697 88.6C70.8531 89.6286 72.136 90.1429 73.6184 90.1429C73.6184 90.1429 73.7895 90.1429 74.1316 90.1429C74.4737 90.1429 74.6732 90.1429 74.7303 90.1429V91H67.8882V84.7429ZM67.8882 37.2571V31H74.7303V31.8571C74.6732 31.8571 74.4737 31.8571 74.1316 31.8571C73.7895 31.8571 73.6184 31.8571 73.6184 31.8571C72.136 31.8571 70.8531 32.4 69.7697 33.4857C68.7434 34.5143 68.2018 35.7714 68.1447 37.2571H67.8882Z" fill="#70521D"/>
<path d="M61 121C94.1371 121 121 94.1371 121 61C121 27.8629 94.1371 1 61 1C27.8629 1 1 27.8629 1 61C1 94.1371 27.8629 121 61 121Z" stroke="#70521D" stroke-width="2"/>
</g>
<defs>
<clipPath id="clip0_509_30">
<rect width="122" height="122" fill="white"/>
</clipPath>
</defs>
</svg>
