<svg width="28" height="28" viewBox="0 0 28 28" fill="none" xmlns="http://www.w3.org/2000/svg">
<mask id="mask0_33_29" style="mask-type:alpha" maskUnits="userSpaceOnUse" x="0" y="0" width="28" height="28">
<rect width="28" height="28" fill="#D9D9D9"/>
</mask>
<g mask="url(#mask0_33_29)">
<path d="M5.8335 19.8334V11.6667H8.16683V19.8334H5.8335ZM12.8335 19.8334V11.6667H15.1668V19.8334H12.8335ZM2.3335 9.33342V7.00008L14.0002 1.16675L25.6668 7.00008V9.33342H2.3335ZM7.55433 7.00008H20.446L14.0002 3.79175L7.55433 7.00008ZM2.3335 24.5001V22.1667H16.3918C16.4307 22.5751 16.4793 22.9688 16.5377 23.348C16.596 23.7272 16.6835 24.1112 16.8002 24.5001H2.3335ZM19.8335 15.4584V11.6667H22.1668V14.2917L19.8335 15.4584ZM23.3335 28.0001C21.9918 27.6695 20.8786 26.8966 19.9939 25.6813C19.1092 24.4661 18.6668 23.1195 18.6668 21.6418V18.6667L23.3335 16.3334L28.0002 18.6667V21.6418C28.0002 23.1195 27.5578 24.4661 26.6731 25.6813C25.7884 26.8966 24.6752 27.6695 23.3335 28.0001ZM22.4877 24.5001L26.5418 20.4751L25.3168 19.2501L22.4877 22.0209L21.3502 20.8834L20.1252 22.1376L22.4877 24.5001Z" fill="#1C1B1F"/>
</g>
</svg>
