<svg width="28" height="28" viewBox="0 0 28 28" fill="none" xmlns="http://www.w3.org/2000/svg">
<mask id="mask0_33_7" style="mask-type:alpha" maskUnits="userSpaceOnUse" x="0" y="0" width="28" height="28">
<rect width="28" height="28" fill="#D9D9D9"/>
</mask>
<g mask="url(#mask0_33_7)">
<path d="M14.0003 13.9999C14.642 13.9999 15.1913 13.7714 15.6482 13.3145C16.1052 12.8576 16.3337 12.3083 16.3337 11.6666C16.3337 11.0249 16.1052 10.4756 15.6482 10.0187C15.1913 9.56172 14.642 9.33325 14.0003 9.33325C13.3587 9.33325 12.8094 9.56172 12.3524 10.0187C11.8955 10.4756 11.667 11.0249 11.667 11.6666C11.667 12.3083 11.8955 12.8576 12.3524 13.3145C12.8094 13.7714 13.3587 13.9999 14.0003 13.9999ZM14.0003 22.5749C16.3725 20.3971 18.1323 18.4187 19.2795 16.6395C20.4267 14.8603 21.0003 13.2805 21.0003 11.8999C21.0003 9.78047 20.3246 8.04506 18.9732 6.69367C17.6219 5.34228 15.9642 4.66659 14.0003 4.66659C12.0364 4.66659 10.3788 5.34228 9.02741 6.69367C7.67602 8.04506 7.00033 9.78047 7.00033 11.8999C7.00033 13.2805 7.57394 14.8603 8.72116 16.6395C9.86838 18.4187 11.6281 20.3971 14.0003 22.5749ZM14.0003 25.6666C10.8698 23.0027 8.53158 20.5284 6.98574 18.2437C5.43991 15.9589 4.66699 13.8444 4.66699 11.8999C4.66699 8.98325 5.60519 6.65964 7.48158 4.92909C9.35796 3.19853 11.5309 2.33325 14.0003 2.33325C16.4698 2.33325 18.6427 3.19853 20.5191 4.92909C22.3955 6.65964 23.3337 8.98325 23.3337 11.8999C23.3337 13.8444 22.5607 15.9589 21.0149 18.2437C19.4691 20.5284 17.1309 23.0027 14.0003 25.6666Z" fill="currentColor"/>
</g>
</svg>
