<svg width="28" height="28" viewBox="0 0 28 28" fill="none" xmlns="http://www.w3.org/2000/svg">
<mask id="mask0_33_24" style="mask-type:alpha" maskUnits="userSpaceOnUse" x="0" y="0" width="28" height="28">
<rect width="28" height="28" fill="#D9D9D9"/>
</mask>
<g mask="url(#mask0_33_24)">
<path d="M14.0002 25.6666C12.3863 25.6666 10.8696 25.3603 9.45016 24.7478C8.03072 24.1353 6.796 23.3041 5.746 22.2541C4.696 21.2041 3.86475 19.9694 3.25225 18.5499C2.63975 17.1305 2.3335 15.6138 2.3335 13.9999C2.3335 12.386 2.63975 10.8694 3.25225 9.44992C3.86475 8.03047 4.696 6.79575 5.746 5.74575C6.796 4.69575 8.03072 3.8645 9.45016 3.252C10.8696 2.6395 12.3863 2.33325 14.0002 2.33325C15.6141 2.33325 17.1307 2.6395 18.5502 3.252C19.9696 3.8645 21.2043 4.69575 22.2543 5.74575C23.3043 6.79575 24.1356 8.03047 24.7481 9.44992C25.3606 10.8694 25.6668 12.386 25.6668 13.9999V15.6916C25.6668 16.8388 25.2731 17.8159 24.4856 18.6228C23.6981 19.4298 22.7307 19.8333 21.5835 19.8333C20.9029 19.8333 20.2613 19.6874 19.6585 19.3958C19.0557 19.1041 18.5502 18.686 18.1418 18.1416C17.5779 18.7055 16.9411 19.1284 16.2314 19.4103C15.5217 19.6923 14.7779 19.8333 14.0002 19.8333C12.3863 19.8333 11.0106 19.2645 9.87308 18.127C8.73558 16.9895 8.16683 15.6138 8.16683 13.9999C8.16683 12.386 8.73558 11.0103 9.87308 9.87284C11.0106 8.73534 12.3863 8.16659 14.0002 8.16659C15.6141 8.16659 16.9897 8.73534 18.1272 9.87284C19.2647 11.0103 19.8335 12.386 19.8335 13.9999V15.6916C19.8335 16.1971 19.9988 16.6249 20.3293 16.9749C20.6599 17.3249 21.0779 17.4999 21.5835 17.4999C22.0891 17.4999 22.5071 17.3249 22.8377 16.9749C23.1682 16.6249 23.3335 16.1971 23.3335 15.6916V13.9999C23.3335 11.3944 22.4293 9.18742 20.621 7.37909C18.8127 5.57075 16.6057 4.66659 14.0002 4.66659C11.3946 4.66659 9.18766 5.57075 7.37933 7.37909C5.571 9.18742 4.66683 11.3944 4.66683 13.9999C4.66683 16.6055 5.571 18.8124 7.37933 20.6208C9.18766 22.4291 11.3946 23.3333 14.0002 23.3333H19.8335V25.6666H14.0002ZM14.0002 17.4999C14.9724 17.4999 15.7988 17.1596 16.4793 16.4791C17.1599 15.7985 17.5002 14.9721 17.5002 13.9999C17.5002 13.0277 17.1599 12.2013 16.4793 11.5208C15.7988 10.8402 14.9724 10.4999 14.0002 10.4999C13.0279 10.4999 12.2016 10.8402 11.521 11.5208C10.8404 12.2013 10.5002 13.0277 10.5002 13.9999C10.5002 14.9721 10.8404 15.7985 11.521 16.4791C12.2016 17.1596 13.0279 17.4999 14.0002 17.4999Z" fill="#1C1B1F"/>
</g>
</svg>
