<svg width="28" height="28" viewBox="0 0 28 28" fill="none" xmlns="http://www.w3.org/2000/svg">
<mask id="mask0_33_13" style="mask-type:alpha" maskUnits="userSpaceOnUse" x="0" y="0" width="28" height="28">
<rect width="28" height="28" fill="#D9D9D9"/>
</mask>
<g mask="url(#mask0_33_13)">
<path d="M14.2634 24.5C12.7776 24.5 11.386 24.2229 10.0884 23.6687C8.79085 23.1146 7.66167 22.366 6.70088 21.4229C5.74008 20.4799 4.97739 19.3715 4.4128 18.0979C3.84821 16.8243 3.56592 15.4583 3.56592 14C3.56592 12.5417 3.84821 11.1757 4.4128 9.90208C4.97739 8.62847 5.74008 7.52014 6.70088 6.57708C7.66167 5.63403 8.79085 4.88542 10.0884 4.33125C11.386 3.77708 12.7776 3.5 14.2634 3.5C15.7492 3.5 17.1408 3.77708 18.4384 4.33125C19.736 4.88542 20.8652 5.63403 21.8259 6.57708C22.7867 7.52014 23.5494 8.62847 24.114 9.90208C24.6786 11.1757 24.9609 12.5417 24.9609 14C24.9609 15.4583 24.6786 16.8243 24.114 18.0979C23.5494 19.3715 22.7867 20.4799 21.8259 21.4229C20.8652 22.366 19.736 23.1146 18.4384 23.6687C17.1408 24.2229 15.7492 24.5 14.2634 24.5ZM17.5915 18.9L19.2556 17.2667L15.452 13.5333V8.16667H13.0748V14.4667L17.5915 18.9ZM14.2634 22.1667C16.5812 22.1667 18.5474 21.3743 20.1619 19.7896C21.7764 18.2049 22.5837 16.275 22.5837 14C22.5837 11.725 21.7764 9.79514 20.1619 8.21042C18.5474 6.62569 16.5812 5.83333 14.2634 5.83333C11.9456 5.83333 9.97946 6.62569 8.36493 8.21042C6.7504 9.79514 5.94314 11.725 5.94314 14C5.94314 16.275 6.7504 18.2049 8.36493 19.7896C9.97946 21.3743 11.9456 22.1667 14.2634 22.1667Z" fill="#1C1B1F"/>
</g>
</svg>
