<svg width="298" height="83" viewBox="0 0 298 83" fill="none" xmlns="http://www.w3.org/2000/svg">
<path d="M17.182 21H24.531C26.9065 21 28.9479 21.4381 30.6552 22.3143C32.3626 23.1905 33.6802 24.4667 34.6081 26.1429C35.536 27.781 36 29.7429 36 32.0286C36 33.781 35.666 35.3619 34.9979 36.7714C34.3298 38.1429 33.439 39.3048 32.3255 40.2571C31.212 41.2095 29.95 41.9333 28.5396 42.4286C27.1292 42.8857 25.6631 43.0571 24.1413 42.9429C22.6567 42.8286 21.2091 42.3905 19.7987 41.6286V41.0571C19.7987 41.0571 20.1142 41.1143 20.7452 41.2286C21.3762 41.3048 22.1742 41.3238 23.1392 41.2857C24.1413 41.2095 25.1806 41 26.257 40.6571C27.3705 40.2762 28.3911 39.6286 29.3191 38.7143C30.2841 37.8 31.0079 36.5238 31.4904 34.8857C31.6017 34.4667 31.6945 33.9524 31.7687 33.3429C31.843 32.6952 31.8615 32.0667 31.8244 31.4571C31.7873 28.8286 31.1192 26.7143 29.8201 25.1143C28.5211 23.5143 26.6838 22.7143 24.3084 22.7143H17.7388C17.7388 22.7143 17.6831 22.581 17.5717 22.3143C17.4975 22.0095 17.4047 21.7238 17.2934 21.4571C17.2191 21.1524 17.182 21 17.182 21ZM17.9058 21V61H14.2869V21H17.9058ZM14.454 56.8286V61H10V60.4286C10 60.4286 10.1113 60.4286 10.334 60.4286C10.5939 60.4286 10.7238 60.4286 10.7238 60.4286C11.6888 60.4286 12.5054 60.0857 13.1734 59.4C13.8787 58.6762 14.2498 57.819 14.2869 56.8286H14.454ZM14.454 25.1714H14.2869C14.2869 24.181 13.9343 23.3429 13.2291 22.6571C12.5239 21.9333 11.6888 21.5714 10.7238 21.5714C10.7238 21.5714 10.6124 21.5714 10.3897 21.5714C10.167 21.5714 10.0557 21.5714 10.0557 21.5714L10 21H14.454V25.1714ZM17.7388 56.8286H17.9058C17.9429 57.819 18.2955 58.6762 18.9636 59.4C19.6688 60.0857 20.5039 60.4286 21.469 60.4286C21.469 60.4286 21.5803 60.4286 21.803 60.4286C22.0628 60.4286 22.1927 60.4286 22.1927 60.4286V61H17.7388V56.8286Z" fill="#806434"/>
<path d="M51.0857 39L67.3143 58.0857C68.1143 58.8476 68.9143 59.419 69.7143 59.8C70.5524 60.181 71.5619 60.3905 72.7429 60.4286V61H70.2857C69.9048 61 69.3524 60.981 68.6286 60.9429C67.9429 60.8667 67.181 60.7333 66.3429 60.5429C65.5429 60.3143 64.7238 59.9905 63.8857 59.5714C63.0857 59.1143 62.3619 58.5048 61.7143 57.7429C61.7143 57.7429 61.3714 57.3429 60.6857 56.5429C60.0381 55.7429 59.181 54.7143 58.1143 53.4571C57.0857 52.2 55.981 50.8667 54.8 49.4571C53.6571 48.0095 52.5524 46.6571 51.4857 45.4C50.4571 44.1429 49.6 43.1143 48.9143 42.3143C48.2667 41.5143 47.9429 41.1143 47.9429 41.1143L51.0857 39ZM67.6 21.4L50.5143 41.1143H47.9429L63.6571 21.4H67.6ZM71.5429 21V21.5143H71.3143C70.0571 21.5143 68.8762 21.7619 67.7714 22.2571C66.7048 22.7524 65.7905 23.4381 65.0286 24.3143L61.4286 24.2C61.9238 23.5524 62 22.9429 61.6571 22.3714C61.3524 21.8 60.819 21.5143 60.0571 21.5143H59.4857V21H71.5429ZM46.1143 21V61H42.4V21H46.1143ZM42.5714 56.8286V61H38V60.4286C38 60.4286 38.1143 60.4286 38.3429 60.4286C38.6095 60.4286 38.7429 60.4286 38.7429 60.4286C39.7333 60.4286 40.5714 60.0857 41.2571 59.4C41.981 58.6762 42.3619 57.819 42.4 56.8286H42.5714ZM42.5714 25.1714H42.4C42.3619 24.181 41.981 23.3429 41.2571 22.6571C40.5714 21.9333 39.7333 21.5714 38.7429 21.5714C38.7429 21.5714 38.6095 21.5714 38.3429 21.5714C38.1143 21.5714 38 21.5714 38 21.5714V21H42.5714V25.1714ZM45.9429 56.8286H46.1143C46.1524 57.819 46.5143 58.6762 47.2 59.4C47.9238 60.0857 48.781 60.4286 49.7714 60.4286C49.7714 60.4286 49.8857 60.4286 50.1143 60.4286C50.3429 60.4286 50.4762 60.4286 50.5143 60.4286V61H45.9429V56.8286ZM45.9429 25.1714V21H50.5143V21.5714C50.4762 21.5714 50.3429 21.5714 50.1143 21.5714C49.8857 21.5714 49.7714 21.5714 49.7714 21.5714C48.781 21.5714 47.9238 21.9333 47.2 22.6571C46.5143 23.3429 46.1524 24.181 46.1143 25.1714H45.9429Z" fill="#806434"/>
<path d="M77.911 24.2H81.079C82.103 24.2 82.983 24.384 83.719 24.752C84.455 25.12 85.023 25.656 85.423 26.36C85.823 27.048 86.023 27.872 86.023 28.832C86.023 29.568 85.879 30.232 85.591 30.824C85.303 31.4 84.919 31.888 84.439 32.288C83.959 32.688 83.415 32.992 82.807 33.2C82.199 33.392 81.567 33.464 80.911 33.416C80.271 33.368 79.647 33.184 79.039 32.864V32.624C79.039 32.624 79.175 32.648 79.447 32.696C79.719 32.728 80.063 32.736 80.479 32.72C80.911 32.688 81.359 32.6 81.823 32.456C82.303 32.296 82.743 32.024 83.143 31.64C83.559 31.256 83.871 30.72 84.079 30.032C84.127 29.856 84.167 29.64 84.199 29.384C84.231 29.112 84.239 28.848 84.223 28.592C84.207 27.488 83.919 26.6 83.359 25.928C82.799 25.256 82.007 24.92 80.983 24.92H78.151C78.151 24.92 78.127 24.864 78.079 24.752C78.047 24.624 78.007 24.504 77.959 24.392C77.927 24.264 77.911 24.2 77.911 24.2ZM78.223 24.2V41H76.663V24.2H78.223ZM76.735 39.248V41H74.815V40.76C74.815 40.76 74.863 40.76 74.959 40.76C75.071 40.76 75.127 40.76 75.127 40.76C75.543 40.76 75.895 40.616 76.183 40.328C76.487 40.024 76.647 39.664 76.663 39.248H76.735ZM76.735 25.952H76.663C76.663 25.536 76.511 25.184 76.207 24.896C75.903 24.592 75.543 24.44 75.127 24.44C75.127 24.44 75.079 24.44 74.983 24.44C74.887 24.44 74.839 24.44 74.839 24.44L74.815 24.2H76.735V25.952ZM78.151 39.248H78.223C78.239 39.664 78.391 40.024 78.679 40.328C78.983 40.616 79.343 40.76 79.759 40.76C79.759 40.76 79.807 40.76 79.903 40.76C80.015 40.76 80.071 40.76 80.071 40.76V41H78.151V39.248ZM93.1343 26.264L99.7343 40.856H97.8383L92.7263 28.4L93.1343 26.264ZM88.5023 39.248C88.3263 39.728 88.3503 40.104 88.5743 40.376C88.7983 40.632 89.0543 40.76 89.3423 40.76H89.5343V41H84.9503V40.76C84.9503 40.76 84.9823 40.76 85.0463 40.76C85.1103 40.76 85.1423 40.76 85.1423 40.76C85.4783 40.76 85.8223 40.648 86.1743 40.424C86.5263 40.184 86.8303 39.792 87.0863 39.248H88.5023ZM93.1343 26.264L93.3023 27.92L87.8063 40.928H86.2943L91.9823 28.736C91.9823 28.736 92.0223 28.64 92.1023 28.448C92.1983 28.256 92.3023 28.024 92.4143 27.752C92.5423 27.464 92.6543 27.184 92.7503 26.912C92.8463 26.64 92.9023 26.424 92.9183 26.264H93.1343ZM95.9663 35.408V36.128H89.6063V35.408H95.9663ZM97.1903 39.248H99.0143C99.2543 39.792 99.5503 40.184 99.9023 40.424C100.254 40.648 100.59 40.76 100.91 40.76C100.91 40.76 100.942 40.76 101.006 40.76C101.07 40.76 101.102 40.76 101.102 40.76V41H96.1823V40.76H96.3743C96.6463 40.76 96.8943 40.632 97.1183 40.376C97.3423 40.104 97.3663 39.728 97.1903 39.248ZM104.031 26.6V35.672C104.031 37.224 104.423 38.448 105.207 39.344C106.007 40.24 107.095 40.688 108.471 40.688C109.991 40.688 111.183 40.264 112.047 39.416C112.927 38.568 113.367 37.408 113.367 35.936V26.6H114.471V35.936C114.471 37.6 113.935 38.92 112.863 39.896C111.807 40.856 110.351 41.336 108.495 41.336C106.655 41.336 105.191 40.856 104.103 39.896C103.031 38.936 102.495 37.624 102.495 35.96V26.6H104.031ZM102.543 26.6V27.872H102.495C102.479 27.584 102.359 27.344 102.135 27.152C101.927 26.944 101.663 26.84 101.343 26.84C101.343 26.84 101.279 26.84 101.151 26.84C101.039 26.84 100.983 26.84 100.983 26.84V26.6H102.543ZM105.543 26.6V26.84C105.543 26.84 105.479 26.84 105.351 26.84C105.239 26.84 105.183 26.84 105.183 26.84C104.879 26.84 104.607 26.944 104.367 27.152C104.143 27.344 104.031 27.584 104.031 27.872H103.983V26.6H105.543ZM113.415 26.6V27.872H113.367C113.367 27.584 113.255 27.344 113.031 27.152C112.807 26.944 112.535 26.84 112.215 26.84C112.215 26.84 112.151 26.84 112.023 26.84C111.911 26.84 111.855 26.84 111.855 26.84V26.6H113.415ZM115.983 26.6V26.84C115.983 26.84 115.919 26.84 115.791 26.84C115.679 26.84 115.623 26.84 115.623 26.84C115.319 26.84 115.055 26.944 114.831 27.152C114.607 27.344 114.487 27.584 114.471 27.872H114.423V26.6H115.983ZM121.412 26.6V41H119.876V26.6H121.412ZM127.868 40.256L127.82 41H121.364V40.256H127.868ZM129.212 37.568L127.892 41H124.244L125.06 40.256C125.86 40.256 126.5 40.144 126.98 39.92C127.476 39.68 127.876 39.36 128.18 38.96C128.484 38.544 128.748 38.08 128.972 37.568H129.212ZM119.924 39.464L120.236 41H118.148V40.76C118.148 40.76 118.204 40.76 118.316 40.76C118.428 40.76 118.484 40.76 118.484 40.76C118.884 40.76 119.212 40.632 119.468 40.376C119.724 40.12 119.86 39.816 119.876 39.464H119.924ZM121.34 28.136V26.6H123.116V26.84C123.116 26.84 123.068 26.84 122.972 26.84C122.876 26.84 122.828 26.84 122.828 26.84C122.444 26.84 122.108 26.968 121.82 27.224C121.548 27.464 121.412 27.768 121.412 28.136H121.34ZM119.924 28.136H119.876C119.86 27.768 119.716 27.464 119.444 27.224C119.172 26.968 118.836 26.84 118.436 26.84C118.436 26.84 118.388 26.84 118.292 26.84C118.196 26.84 118.148 26.84 118.148 26.84V26.6H119.924V28.136ZM133.909 26.6V41H132.397V26.6H133.909ZM132.469 39.464V41H130.429V40.76C130.429 40.76 130.485 40.76 130.597 40.76C130.709 40.76 130.765 40.76 130.765 40.76C131.213 40.76 131.589 40.632 131.893 40.376C132.213 40.12 132.381 39.816 132.397 39.464H132.469ZM133.837 39.464H133.909C133.925 39.816 134.085 40.12 134.389 40.376C134.709 40.632 135.093 40.76 135.541 40.76C135.541 40.76 135.589 40.76 135.685 40.76C135.797 40.76 135.853 40.76 135.853 40.76L135.877 41H133.837V39.464ZM133.837 28.136V26.6H135.877L135.853 26.84C135.853 26.84 135.797 26.84 135.685 26.84C135.589 26.84 135.541 26.84 135.541 26.84C135.093 26.84 134.709 26.968 134.389 27.224C134.085 27.464 133.925 27.768 133.909 28.136H133.837ZM132.469 28.136H132.397C132.381 27.768 132.213 27.464 131.893 27.224C131.589 26.968 131.213 26.84 130.765 26.84C130.749 26.84 130.685 26.84 130.573 26.84C130.477 26.84 130.429 26.84 130.429 26.84V26.6H132.469V28.136ZM139.764 26.24L153.06 38.768L153.3 41.336L140.004 28.736L139.764 26.24ZM139.812 39.512V41H138.012V40.76C138.012 40.76 138.076 40.76 138.204 40.76C138.348 40.76 138.42 40.76 138.42 40.76C138.788 40.76 139.1 40.64 139.356 40.4C139.612 40.16 139.74 39.864 139.74 39.512H139.812ZM140.82 39.512C140.82 39.864 140.948 40.16 141.204 40.4C141.476 40.64 141.788 40.76 142.14 40.76C142.14 40.76 142.204 40.76 142.332 40.76C142.476 40.76 142.548 40.76 142.548 40.76V41H140.748V39.512H140.82ZM139.764 26.24L140.796 27.584L140.82 41H139.74V29.24C139.74 28.424 139.7 27.72 139.62 27.128C139.556 26.536 139.524 26.24 139.524 26.24H139.764ZM153.3 26.6V38.264C153.3 38.776 153.316 39.272 153.348 39.752C153.38 40.216 153.412 40.6 153.444 40.904C153.492 41.192 153.516 41.336 153.516 41.336H153.3L152.244 40.064V26.6H153.3ZM153.228 28.088V26.6H155.028V26.84C155.028 26.84 154.956 26.84 154.812 26.84C154.684 26.84 154.62 26.84 154.62 26.84C154.268 26.84 153.956 26.96 153.684 27.2C153.428 27.44 153.3 27.736 153.3 28.088H153.228ZM152.244 28.088C152.228 27.736 152.092 27.44 151.836 27.2C151.58 26.96 151.268 26.84 150.9 26.84C150.9 26.84 150.828 26.84 150.684 26.84C150.556 26.84 150.492 26.84 150.492 26.84V26.6H152.292V28.088H152.244ZM163.939 26.264L170.539 40.856H168.643L163.531 28.4L163.939 26.264ZM159.307 39.248C159.131 39.728 159.155 40.104 159.379 40.376C159.603 40.632 159.859 40.76 160.147 40.76H160.339V41H155.755V40.76C155.755 40.76 155.787 40.76 155.851 40.76C155.915 40.76 155.947 40.76 155.947 40.76C156.283 40.76 156.627 40.648 156.979 40.424C157.331 40.184 157.635 39.792 157.891 39.248H159.307ZM163.939 26.264L164.107 27.92L158.611 40.928H157.099L162.787 28.736C162.787 28.736 162.827 28.64 162.907 28.448C163.003 28.256 163.107 28.024 163.219 27.752C163.347 27.464 163.459 27.184 163.555 26.912C163.651 26.64 163.707 26.424 163.723 26.264H163.939ZM166.771 35.408V36.128H160.411V35.408H166.771ZM167.995 39.248H169.819C170.059 39.792 170.355 40.184 170.707 40.424C171.059 40.648 171.395 40.76 171.715 40.76C171.715 40.76 171.747 40.76 171.811 40.76C171.875 40.76 171.907 40.76 171.907 40.76V41H166.987V40.76H167.179C167.451 40.76 167.699 40.632 167.923 40.376C168.147 40.104 168.171 39.728 167.995 39.248ZM184.725 31.76L191.541 39.776C191.877 40.096 192.213 40.336 192.549 40.496C192.901 40.656 193.325 40.744 193.821 40.76V41H192.789C192.629 41 192.397 40.992 192.093 40.976C191.805 40.944 191.485 40.888 191.133 40.808C190.797 40.712 190.453 40.576 190.101 40.4C189.765 40.208 189.461 39.952 189.189 39.632C189.189 39.632 189.045 39.464 188.757 39.128C188.485 38.792 188.125 38.36 187.677 37.832C187.245 37.304 186.781 36.744 186.285 36.152C185.805 35.544 185.341 34.976 184.893 34.448C184.461 33.92 184.101 33.488 183.813 33.152C183.541 32.816 183.405 32.648 183.405 32.648L184.725 31.76ZM191.661 24.368L184.485 32.648H183.405L190.005 24.368H191.661ZM193.317 24.2V24.416H193.221C192.693 24.416 192.197 24.52 191.733 24.728C191.285 24.936 190.901 25.224 190.581 25.592L189.069 25.544C189.277 25.272 189.309 25.016 189.165 24.776C189.037 24.536 188.813 24.416 188.493 24.416H188.253V24.2H193.221H193.317ZM182.637 24.2V41H181.077V24.2H182.637ZM181.149 39.248V41H179.229V40.76C179.229 40.76 179.277 40.76 179.373 40.76C179.485 40.76 179.541 40.76 179.541 40.76C179.957 40.76 180.309 40.616 180.597 40.328C180.901 40.024 181.061 39.664 181.077 39.248H181.149ZM181.149 25.952H181.077C181.061 25.536 180.901 25.184 180.597 24.896C180.309 24.592 179.957 24.44 179.541 24.44C179.541 24.44 179.485 24.44 179.373 24.44C179.277 24.44 179.229 24.44 179.229 24.44V24.2H181.149V25.952ZM182.565 39.248H182.637C182.653 39.664 182.805 40.024 183.093 40.328C183.397 40.616 183.757 40.76 184.173 40.76C184.173 40.76 184.221 40.76 184.317 40.76C184.413 40.76 184.469 40.76 184.485 40.76V41H182.565V39.248ZM182.565 25.952V24.2H184.485V24.44C184.469 24.44 184.413 24.44 184.317 24.44C184.221 24.44 184.173 24.44 184.173 24.44C183.757 24.44 183.397 24.592 183.093 24.896C182.805 25.184 182.653 25.536 182.637 25.952H182.565ZM201.89 26.264C203.01 26.264 204.058 26.448 205.034 26.816C206.026 27.168 206.89 27.68 207.626 28.352C208.378 29.024 208.962 29.824 209.378 30.752C209.794 31.664 210.002 32.68 210.002 33.8C210.002 34.92 209.794 35.944 209.378 36.872C208.962 37.784 208.378 38.576 207.626 39.248C206.89 39.92 206.026 40.44 205.034 40.808C204.058 41.16 203.01 41.336 201.89 41.336C200.77 41.336 199.722 41.16 198.746 40.808C197.77 40.44 196.906 39.92 196.154 39.248C195.418 38.576 194.842 37.784 194.426 36.872C194.01 35.944 193.802 34.92 193.802 33.8C193.802 32.68 194.01 31.664 194.426 30.752C194.842 29.824 195.418 29.024 196.154 28.352C196.906 27.68 197.77 27.168 198.746 26.816C199.722 26.448 200.77 26.264 201.89 26.264ZM201.89 40.616C203.074 40.616 204.146 40.328 205.106 39.752C206.066 39.176 206.826 38.376 207.386 37.352C207.946 36.328 208.226 35.144 208.226 33.8C208.226 32.44 207.946 31.256 207.386 30.248C206.826 29.224 206.066 28.424 205.106 27.848C204.146 27.272 203.074 26.984 201.89 26.984C200.722 26.984 199.658 27.272 198.698 27.848C197.738 28.424 196.978 29.224 196.418 30.248C195.858 31.256 195.578 32.44 195.578 33.8C195.578 35.144 195.858 36.328 196.418 37.352C196.978 38.376 197.738 39.176 198.698 39.752C199.658 40.328 200.722 40.616 201.89 40.616ZM227.705 26.264L227.921 27.824L222.305 38.888C222.305 38.888 222.241 39.024 222.113 39.296C222.001 39.568 221.881 39.896 221.753 40.28C221.625 40.648 221.529 41 221.465 41.336H221.225L220.889 39.824L227.705 26.264ZM213.641 39.392V41H211.145V40.76C211.145 40.76 211.201 40.76 211.313 40.76C211.441 40.76 211.505 40.76 211.505 40.76C211.921 40.76 212.281 40.64 212.585 40.4C212.905 40.16 213.089 39.824 213.137 39.392H213.641ZM214.361 39.752C214.345 39.992 214.401 40.224 214.529 40.448C214.657 40.656 214.897 40.768 215.249 40.784H215.585V41H214.217V39.752H214.361ZM215.009 26.264H215.249L215.729 27.68L214.241 41H212.921L215.009 26.264ZM215.249 26.264L221.777 38.816L221.225 41.336L214.793 28.904L215.249 26.264ZM227.921 26.264L230.081 41H228.257L226.697 28.928L227.705 26.264H227.921ZM229.361 39.392H229.841C229.905 39.824 230.097 40.16 230.417 40.4C230.737 40.64 231.097 40.76 231.497 40.76C231.497 40.76 231.553 40.76 231.665 40.76C231.793 40.76 231.857 40.76 231.857 40.76V41H229.361V39.392ZM228.089 39.752H228.257V41H226.865V40.784H227.225C227.593 40.768 227.833 40.648 227.945 40.424C228.073 40.2 228.121 39.976 228.089 39.752ZM236.607 26.6V41H235.071V26.6H236.607ZM243.063 40.256L243.015 41H236.559V40.256H243.063ZM241.935 33.44V34.16H236.559V33.44H241.935ZM243.039 26.6V27.344H236.559V26.6H243.039ZM244.407 37.568L243.087 41H239.439L240.255 40.256C241.055 40.256 241.695 40.144 242.175 39.92C242.671 39.68 243.071 39.36 243.375 38.96C243.679 38.544 243.943 38.08 244.167 37.568H244.407ZM241.935 34.112V35.48H241.671V35.168C241.671 34.896 241.591 34.664 241.431 34.472C241.271 34.264 241.023 34.16 240.687 34.16V34.112H241.935ZM241.935 32.12V33.488H240.687V33.44C241.023 33.44 241.271 33.344 241.431 33.152C241.591 32.944 241.671 32.704 241.671 32.432V32.12H241.935ZM243.039 27.272V28.928H242.775V28.568C242.775 28.232 242.663 27.944 242.439 27.704C242.231 27.464 241.943 27.344 241.575 27.344V27.272H243.039ZM243.039 26.216V26.84L240.303 26.6C240.799 26.6 241.327 26.56 241.887 26.48C242.447 26.384 242.831 26.296 243.039 26.216ZM235.119 39.464L235.431 41H233.343V40.76C233.343 40.76 233.399 40.76 233.511 40.76C233.623 40.76 233.679 40.76 233.679 40.76C234.079 40.76 234.407 40.632 234.663 40.376C234.919 40.12 235.055 39.816 235.071 39.464H235.119ZM235.119 28.112H235.071C235.055 27.744 234.919 27.44 234.663 27.2C234.407 26.96 234.079 26.84 233.679 26.84C233.679 26.84 233.623 26.84 233.511 26.84C233.399 26.84 233.343 26.84 233.343 26.84V26.6H235.431L235.119 28.112ZM247.717 26.24L261.013 38.768L261.253 41.336L247.957 28.736L247.717 26.24ZM247.765 39.512V41H245.965V40.76C245.965 40.76 246.029 40.76 246.157 40.76C246.301 40.76 246.373 40.76 246.373 40.76C246.741 40.76 247.053 40.64 247.309 40.4C247.565 40.16 247.693 39.864 247.693 39.512H247.765ZM248.773 39.512C248.773 39.864 248.901 40.16 249.157 40.4C249.429 40.64 249.741 40.76 250.093 40.76C250.093 40.76 250.157 40.76 250.285 40.76C250.429 40.76 250.501 40.76 250.501 40.76V41H248.701V39.512H248.773ZM247.717 26.24L248.749 27.584L248.773 41H247.693V29.24C247.693 28.424 247.653 27.72 247.573 27.128C247.509 26.536 247.477 26.24 247.477 26.24H247.717ZM261.253 26.6V38.264C261.253 38.776 261.269 39.272 261.301 39.752C261.333 40.216 261.365 40.6 261.397 40.904C261.445 41.192 261.469 41.336 261.469 41.336H261.253L260.197 40.064V26.6H261.253ZM261.181 28.088V26.6H262.981V26.84C262.981 26.84 262.909 26.84 262.765 26.84C262.637 26.84 262.573 26.84 262.573 26.84C262.221 26.84 261.909 26.96 261.637 27.2C261.381 27.44 261.253 27.736 261.253 28.088H261.181ZM260.197 28.088C260.181 27.736 260.045 27.44 259.789 27.2C259.533 26.96 259.221 26.84 258.853 26.84C258.853 26.84 258.781 26.84 258.637 26.84C258.509 26.84 258.445 26.84 258.445 26.84V26.6H260.245V28.088H260.197ZM273.164 26.6C274.748 26.6 276.116 26.888 277.268 27.464C278.42 28.04 279.308 28.872 279.932 29.96C280.556 31.032 280.868 32.312 280.868 33.8C280.868 35.288 280.556 36.568 279.932 37.64C279.308 38.712 278.42 39.544 277.268 40.136C276.116 40.712 274.748 41 273.164 41H268.052L268.004 40.28C269.124 40.28 270.06 40.28 270.812 40.28C271.58 40.28 272.164 40.28 272.564 40.28C272.964 40.28 273.164 40.28 273.164 40.28C275.02 40.28 276.476 39.704 277.532 38.552C278.604 37.384 279.14 35.8 279.14 33.8C279.14 31.8 278.604 30.224 277.532 29.072C276.476 27.904 275.02 27.32 273.164 27.32C273.164 27.32 272.956 27.32 272.54 27.32C272.124 27.32 271.516 27.32 270.716 27.32C269.916 27.32 268.932 27.32 267.764 27.32V26.6H273.164ZM268.388 26.6V41H266.828V26.6H268.388ZM266.876 39.44V41H265.148V40.76C265.148 40.76 265.196 40.76 265.292 40.76C265.404 40.76 265.46 40.76 265.46 40.76C265.844 40.76 266.164 40.632 266.42 40.376C266.676 40.104 266.812 39.792 266.828 39.44H266.876ZM266.876 28.16H266.828C266.812 27.776 266.668 27.464 266.396 27.224C266.14 26.968 265.82 26.84 265.436 26.84C265.436 26.84 265.388 26.84 265.292 26.84C265.196 26.84 265.148 26.84 265.148 26.84V26.6H266.876V28.16ZM289.775 26.264L296.375 40.856H294.479L289.367 28.4L289.775 26.264ZM285.143 39.248C284.967 39.728 284.991 40.104 285.215 40.376C285.439 40.632 285.695 40.76 285.983 40.76H286.175V41H281.591V40.76C281.591 40.76 281.623 40.76 281.687 40.76C281.751 40.76 281.783 40.76 281.783 40.76C282.119 40.76 282.463 40.648 282.815 40.424C283.167 40.184 283.471 39.792 283.727 39.248H285.143ZM289.775 26.264L289.943 27.92L284.447 40.928H282.935L288.623 28.736C288.623 28.736 288.663 28.64 288.743 28.448C288.839 28.256 288.943 28.024 289.055 27.752C289.183 27.464 289.295 27.184 289.391 26.912C289.487 26.64 289.543 26.424 289.559 26.264H289.775ZM292.607 35.408V36.128H286.247V35.408H292.607ZM293.831 39.248H295.655C295.895 39.792 296.191 40.184 296.543 40.424C296.895 40.648 297.231 40.76 297.551 40.76C297.551 40.76 297.583 40.76 297.647 40.76C297.711 40.76 297.743 40.76 297.743 40.76V41H292.823V40.76H293.015C293.287 40.76 293.535 40.632 293.759 40.376C293.983 40.104 294.007 39.728 293.831 39.248Z" fill="#70521D"/>
<path d="M78.496 50.64L82.672 55.184C82.8533 55.3973 83.0453 55.5573 83.248 55.664C83.4507 55.7707 83.7227 55.8293 84.064 55.84V56H83.472C83.344 56 83.184 55.9947 82.992 55.984C82.8107 55.9627 82.608 55.9253 82.384 55.872C82.1707 55.808 81.952 55.7173 81.728 55.6C81.5147 55.472 81.312 55.3013 81.12 55.088C81.12 55.088 81.0347 54.9973 80.864 54.816C80.704 54.624 80.4907 54.384 80.224 54.096C79.9573 53.7973 79.6693 53.488 79.36 53.168C79.0613 52.8373 78.7787 52.528 78.512 52.24C78.2453 51.9413 78.0267 51.7013 77.856 51.52C77.6853 51.328 77.6 51.232 77.6 51.232L78.496 50.64ZM82.768 46.512L78.352 51.232H77.6L81.616 46.512H82.768ZM83.808 46.4V46.56H83.744C83.4133 46.56 83.104 46.6133 82.816 46.72C82.5387 46.8267 82.3093 46.9867 82.128 47.2L81.04 47.184C81.1573 47.0347 81.1733 46.896 81.088 46.768C81.0133 46.6293 80.88 46.56 80.688 46.56H80.544V46.4H83.744H83.808ZM77.04 46.4V56H76.016V46.4H77.04ZM76.048 54.976V56H74.88V55.84C74.88 55.84 74.912 55.84 74.976 55.84C75.04 55.84 75.072 55.84 75.072 55.84C75.328 55.84 75.5467 55.7547 75.728 55.584C75.9093 55.4133 76.0053 55.2107 76.016 54.976H76.048ZM76.992 54.976H77.04C77.04 55.2107 77.1307 55.4133 77.312 55.584C77.4933 55.7547 77.7173 55.84 77.984 55.84C77.984 55.84 78.0107 55.84 78.064 55.84C78.128 55.84 78.16 55.84 78.16 55.84V56H76.992V54.976ZM76.992 47.424V46.4H78.16V46.56C78.16 46.56 78.128 46.56 78.064 46.56C78.0107 46.56 77.9787 46.56 77.968 46.56C77.712 46.56 77.4933 46.6453 77.312 46.816C77.1307 46.976 77.04 47.1787 77.04 47.424H76.992ZM76.048 47.424H76.016C76.0053 47.1787 75.9093 46.976 75.728 46.816C75.5467 46.6453 75.328 46.56 75.072 46.56C75.072 46.56 75.04 46.56 74.976 46.56C74.912 46.56 74.88 46.56 74.88 46.56V46.4H76.048V47.424ZM89.3604 46.176L93.7604 55.904H92.4964L89.0884 47.6L89.3604 46.176ZM86.2724 54.832C86.155 55.152 86.171 55.4027 86.3204 55.584C86.4697 55.7547 86.6404 55.84 86.8324 55.84H86.9604V56H83.9044V55.84C83.9044 55.84 83.9257 55.84 83.9684 55.84C84.011 55.84 84.0324 55.84 84.0324 55.84C84.2564 55.84 84.4857 55.7653 84.7204 55.616C84.955 55.456 85.1577 55.1947 85.3284 54.832H86.2724ZM89.3604 46.176L89.4724 47.28L85.8084 55.952H84.8004L88.5924 47.824C88.5924 47.824 88.619 47.76 88.6724 47.632C88.7364 47.504 88.8057 47.3493 88.8804 47.168C88.9657 46.976 89.0404 46.7893 89.1044 46.608C89.1684 46.4267 89.2057 46.2827 89.2164 46.176H89.3604ZM91.2484 52.272V52.752H87.0084V52.272H91.2484ZM92.0644 54.832H93.2804C93.4404 55.1947 93.6377 55.456 93.8724 55.616C94.107 55.7653 94.331 55.84 94.5444 55.84C94.5444 55.84 94.5657 55.84 94.6084 55.84C94.651 55.84 94.6724 55.84 94.6724 55.84V56H91.3924V55.84H91.5204C91.7017 55.84 91.867 55.7547 92.0164 55.584C92.1657 55.4027 92.1817 55.152 92.0644 54.832ZM96.3218 46.16L105.186 54.512L105.346 56.224L96.4818 47.824L96.3218 46.16ZM96.3538 55.008V56H95.1538V55.84C95.1538 55.84 95.1964 55.84 95.2818 55.84C95.3778 55.84 95.4258 55.84 95.4258 55.84C95.6711 55.84 95.8791 55.76 96.0498 55.6C96.2204 55.44 96.3058 55.2427 96.3058 55.008H96.3538ZM97.0258 55.008C97.0258 55.2427 97.1111 55.44 97.2818 55.6C97.4631 55.76 97.6711 55.84 97.9058 55.84C97.9058 55.84 97.9484 55.84 98.0338 55.84C98.1298 55.84 98.1778 55.84 98.1778 55.84V56H96.9778V55.008H97.0258ZM96.3218 46.16L97.0098 47.056L97.0258 56H96.3058V48.16C96.3058 47.616 96.2791 47.1467 96.2258 46.752C96.1831 46.3573 96.1618 46.16 96.1618 46.16H96.3218ZM105.346 46.4V54.176C105.346 54.5173 105.356 54.848 105.378 55.168C105.399 55.4773 105.42 55.7333 105.442 55.936C105.474 56.128 105.49 56.224 105.49 56.224H105.346L104.642 55.376V46.4H105.346ZM105.298 47.392V46.4H106.498V46.56C106.498 46.56 106.45 46.56 106.354 46.56C106.268 46.56 106.226 46.56 106.226 46.56C105.991 46.56 105.783 46.64 105.602 46.8C105.431 46.96 105.346 47.1573 105.346 47.392H105.298ZM104.642 47.392C104.631 47.1573 104.54 46.96 104.37 46.8C104.199 46.64 103.991 46.56 103.746 46.56C103.746 46.56 103.698 46.56 103.602 46.56C103.516 46.56 103.474 46.56 103.474 46.56V46.4H104.674V47.392H104.642ZM117.64 51.968L117.464 54.16C117.187 54.5867 116.824 54.9547 116.376 55.264C115.928 55.5733 115.422 55.8133 114.856 55.984C114.291 56.144 113.694 56.224 113.064 56.224C111.987 56.2133 111.048 56.0053 110.248 55.6C109.459 55.1947 108.851 54.6187 108.424 53.872C107.998 53.1253 107.784 52.2347 107.784 51.2C107.784 50.1547 107.998 49.2587 108.424 48.512C108.851 47.7653 109.459 47.1893 110.248 46.784C111.048 46.3787 111.987 46.176 113.064 46.176C113.726 46.176 114.392 46.2613 115.064 46.432C115.736 46.6027 116.318 46.8427 116.808 47.152L117.16 49.408H117.016C116.782 48.4267 116.307 47.7227 115.592 47.296C114.888 46.8693 114.04 46.656 113.048 46.656C112.206 46.656 111.475 46.8427 110.856 47.216C110.248 47.5787 109.774 48.1013 109.432 48.784C109.102 49.456 108.936 50.2613 108.936 51.2C108.936 52.1173 109.102 52.9173 109.432 53.6C109.774 54.272 110.254 54.7947 110.872 55.168C111.491 55.5307 112.222 55.7173 113.064 55.728C113.864 55.728 114.584 55.6 115.224 55.344C115.875 55.0773 116.403 54.6667 116.808 54.112C117.214 53.5573 117.443 52.8427 117.496 51.968H117.64ZM121.322 46.4V56H120.298V46.4H121.322ZM125.626 55.504L125.594 56H121.29V55.504H125.626ZM124.874 50.96V51.44H121.29V50.96H124.874ZM125.61 46.4V46.896H121.29V46.4H125.61ZM126.522 53.712L125.642 56H123.21L123.754 55.504C124.287 55.504 124.714 55.4293 125.034 55.28C125.364 55.12 125.631 54.9067 125.834 54.64C126.036 54.3627 126.212 54.0533 126.362 53.712H126.522ZM124.874 51.408V52.32H124.698V52.112C124.698 51.9307 124.644 51.776 124.538 51.648C124.431 51.5093 124.266 51.44 124.042 51.44V51.408H124.874ZM124.874 50.08V50.992H124.042V50.96C124.266 50.96 124.431 50.896 124.538 50.768C124.644 50.6293 124.698 50.4693 124.698 50.288V50.08H124.874ZM125.61 46.848V47.952H125.434V47.712C125.434 47.488 125.359 47.296 125.21 47.136C125.071 46.976 124.879 46.896 124.634 46.896V46.848H125.61ZM125.61 46.144V46.56L123.786 46.4C124.116 46.4 124.468 46.3733 124.842 46.32C125.215 46.256 125.471 46.1973 125.61 46.144ZM120.33 54.976L120.538 56H119.146V55.84C119.146 55.84 119.183 55.84 119.258 55.84C119.332 55.84 119.37 55.84 119.37 55.84C119.636 55.84 119.855 55.7547 120.026 55.584C120.196 55.4133 120.287 55.2107 120.298 54.976H120.33ZM120.33 47.408H120.298C120.287 47.1627 120.196 46.96 120.026 46.8C119.855 46.64 119.636 46.56 119.37 46.56C119.37 46.56 119.332 46.56 119.258 46.56C119.183 46.56 119.146 46.56 119.146 46.56V46.4H120.538L120.33 47.408ZM129.9 46.4V56H128.876V46.4H129.9ZM134.204 55.504L134.172 56H129.868V55.504H134.204ZM135.1 53.712L134.22 56H131.788L132.332 55.504C132.865 55.504 133.292 55.4293 133.612 55.28C133.942 55.12 134.209 54.9067 134.412 54.64C134.614 54.3627 134.79 54.0533 134.94 53.712H135.1ZM128.908 54.976L129.116 56H127.724V55.84C127.724 55.84 127.761 55.84 127.836 55.84C127.91 55.84 127.948 55.84 127.948 55.84C128.214 55.84 128.433 55.7547 128.604 55.584C128.774 55.4133 128.865 55.2107 128.876 54.976H128.908ZM129.852 47.424V46.4H131.036V46.56C131.036 46.56 131.004 46.56 130.94 46.56C130.876 46.56 130.844 46.56 130.844 46.56C130.588 46.56 130.364 46.6453 130.172 46.816C129.99 46.976 129.9 47.1787 129.9 47.424H129.852ZM128.908 47.424H128.876C128.865 47.1787 128.769 46.976 128.588 46.816C128.406 46.6453 128.182 46.56 127.916 46.56C127.916 46.56 127.884 46.56 127.82 46.56C127.756 46.56 127.724 46.56 127.724 46.56V46.4H128.908V47.424ZM140.798 46.176L145.198 55.904H143.934L140.526 47.6L140.798 46.176ZM137.71 54.832C137.593 55.152 137.609 55.4027 137.758 55.584C137.907 55.7547 138.078 55.84 138.27 55.84H138.398V56H135.342V55.84C135.342 55.84 135.363 55.84 135.406 55.84C135.449 55.84 135.47 55.84 135.47 55.84C135.694 55.84 135.923 55.7653 136.158 55.616C136.393 55.456 136.595 55.1947 136.766 54.832H137.71ZM140.798 46.176L140.91 47.28L137.246 55.952H136.238L140.03 47.824C140.03 47.824 140.057 47.76 140.11 47.632C140.174 47.504 140.243 47.3493 140.318 47.168C140.403 46.976 140.478 46.7893 140.542 46.608C140.606 46.4267 140.643 46.2827 140.654 46.176H140.798ZM142.686 52.272V52.752H138.446V52.272H142.686ZM143.502 54.832H144.718C144.878 55.1947 145.075 55.456 145.31 55.616C145.545 55.7653 145.769 55.84 145.982 55.84C145.982 55.84 146.003 55.84 146.046 55.84C146.089 55.84 146.11 55.84 146.11 55.84V56H142.83V55.84H142.958C143.139 55.84 143.305 55.7547 143.454 55.584C143.603 55.4027 143.619 55.152 143.502 54.832ZM148.863 46.4H150.927C151.429 46.4 151.877 46.4587 152.271 46.576C152.677 46.6933 153.018 46.864 153.295 47.088C153.583 47.312 153.802 47.584 153.951 47.904C154.101 48.224 154.175 48.5867 154.175 48.992C154.175 49.44 154.069 49.856 153.855 50.24C153.642 50.624 153.343 50.9387 152.959 51.184C152.586 51.4293 152.159 51.5787 151.679 51.632C151.861 51.7067 152.069 51.872 152.303 52.128C152.549 52.384 152.757 52.6347 152.927 52.88C152.927 52.88 152.997 52.976 153.135 53.168C153.274 53.3493 153.45 53.5787 153.663 53.856C153.887 54.1227 154.106 54.3787 154.319 54.624C154.543 54.8693 154.746 55.0827 154.927 55.264C155.119 55.4453 155.322 55.5893 155.535 55.696C155.759 55.792 156.015 55.84 156.303 55.84V56H155.807C155.221 56 154.735 55.9253 154.351 55.776C153.978 55.6267 153.674 55.4453 153.439 55.232C153.205 55.008 153.002 54.7947 152.831 54.592C152.789 54.5387 152.687 54.4053 152.527 54.192C152.378 53.968 152.213 53.728 152.031 53.472C151.85 53.216 151.685 52.9867 151.535 52.784C151.386 52.5707 151.295 52.4427 151.263 52.4C151.05 52.1227 150.805 51.8773 150.527 51.664C150.25 51.44 149.957 51.328 149.647 51.328V51.168C149.647 51.168 149.733 51.1733 149.903 51.184C150.074 51.184 150.293 51.1787 150.559 51.168C150.858 51.1573 151.157 51.136 151.455 51.104C151.754 51.0613 152.031 50.944 152.287 50.752C152.554 50.56 152.762 50.24 152.911 49.792C152.954 49.6747 152.986 49.536 153.007 49.376C153.029 49.216 153.034 49.0507 153.023 48.88C153.013 48.5813 152.954 48.3147 152.847 48.08C152.751 47.8453 152.607 47.6427 152.415 47.472C152.234 47.3013 152.015 47.168 151.759 47.072C151.503 46.976 151.215 46.9227 150.895 46.912C150.394 46.8907 149.957 46.8853 149.583 46.896C149.21 46.9067 149.023 46.9067 149.023 46.896C149.023 46.8853 149.007 46.8427 148.975 46.768C148.954 46.6827 148.927 46.6027 148.895 46.528C148.874 46.4427 148.863 46.4 148.863 46.4ZM149.055 46.4V56H148.031V46.4H149.055ZM148.079 54.976L148.271 56H146.911V55.84C146.911 55.84 146.949 55.84 147.023 55.84C147.098 55.84 147.135 55.84 147.135 55.84C147.391 55.84 147.605 55.7547 147.775 55.584C147.946 55.4133 148.037 55.2107 148.047 54.976H148.079ZM148.079 47.408H148.047C148.037 47.1627 147.946 46.96 147.775 46.8C147.605 46.64 147.391 46.56 147.135 46.56C147.135 46.56 147.098 46.56 147.023 46.56C146.949 46.56 146.911 46.56 146.911 46.56V46.4H148.271L148.079 47.408ZM149.007 54.976H149.055C149.066 55.2107 149.157 55.4133 149.327 55.584C149.498 55.7547 149.711 55.84 149.967 55.84C149.967 55.84 149.999 55.84 150.063 55.84C150.138 55.84 150.175 55.84 150.175 55.84L150.191 56H148.815L149.007 54.976ZM159.263 46.4V56H158.255V46.4H159.263ZM158.303 54.976V56H156.943V55.84C156.943 55.84 156.98 55.84 157.055 55.84C157.129 55.84 157.167 55.84 157.167 55.84C157.465 55.84 157.716 55.7547 157.919 55.584C158.132 55.4133 158.244 55.2107 158.255 54.976H158.303ZM159.215 54.976H159.263C159.273 55.2107 159.38 55.4133 159.583 55.584C159.796 55.7547 160.052 55.84 160.351 55.84C160.351 55.84 160.383 55.84 160.447 55.84C160.521 55.84 160.559 55.84 160.559 55.84L160.575 56H159.215V54.976ZM159.215 47.424V46.4H160.575L160.559 46.56C160.559 46.56 160.521 46.56 160.447 46.56C160.383 46.56 160.351 46.56 160.351 46.56C160.052 46.56 159.796 46.6453 159.583 46.816C159.38 46.976 159.273 47.1787 159.263 47.424H159.215ZM158.303 47.424H158.255C158.244 47.1787 158.132 46.976 157.919 46.816C157.716 46.6453 157.465 46.56 157.167 46.56C157.156 46.56 157.113 46.56 157.039 46.56C156.975 46.56 156.943 46.56 156.943 46.56V46.4H158.303V47.424ZM166.814 46.176L171.214 55.904H169.95L166.542 47.6L166.814 46.176ZM163.726 54.832C163.608 55.152 163.624 55.4027 163.774 55.584C163.923 55.7547 164.094 55.84 164.286 55.84H164.414V56H161.357V55.84C161.357 55.84 161.379 55.84 161.421 55.84C161.464 55.84 161.486 55.84 161.486 55.84C161.71 55.84 161.939 55.7653 162.174 55.616C162.408 55.456 162.611 55.1947 162.782 54.832H163.726ZM166.814 46.176L166.926 47.28L163.262 55.952H162.254L166.046 47.824C166.046 47.824 166.072 47.76 166.126 47.632C166.19 47.504 166.259 47.3493 166.334 47.168C166.419 46.976 166.494 46.7893 166.558 46.608C166.622 46.4267 166.659 46.2827 166.67 46.176H166.814ZM168.702 52.272V52.752H164.462V52.272H168.702ZM169.517 54.832H170.734C170.894 55.1947 171.091 55.456 171.326 55.616C171.56 55.7653 171.784 55.84 171.998 55.84C171.998 55.84 172.019 55.84 172.062 55.84C172.104 55.84 172.126 55.84 172.126 55.84V56H168.846V55.84H168.974C169.155 55.84 169.32 55.7547 169.47 55.584C169.619 55.4027 169.635 55.152 169.517 54.832ZM181.423 46.176L185.823 55.904H184.559L181.151 47.6L181.423 46.176ZM178.335 54.832C178.218 55.152 178.234 55.4027 178.383 55.584C178.532 55.7547 178.703 55.84 178.895 55.84H179.023V56H175.967V55.84C175.967 55.84 175.988 55.84 176.031 55.84C176.074 55.84 176.095 55.84 176.095 55.84C176.319 55.84 176.548 55.7653 176.783 55.616C177.018 55.456 177.22 55.1947 177.391 54.832H178.335ZM181.423 46.176L181.535 47.28L177.871 55.952H176.863L180.655 47.824C180.655 47.824 180.682 47.76 180.735 47.632C180.799 47.504 180.868 47.3493 180.943 47.168C181.028 46.976 181.103 46.7893 181.167 46.608C181.231 46.4267 181.268 46.2827 181.279 46.176H181.423ZM183.311 52.272V52.752H179.071V52.272H183.311ZM184.127 54.832H185.343C185.503 55.1947 185.7 55.456 185.935 55.616C186.17 55.7653 186.394 55.84 186.607 55.84C186.607 55.84 186.628 55.84 186.671 55.84C186.714 55.84 186.735 55.84 186.735 55.84V56H183.455V55.84H183.583C183.764 55.84 183.93 55.7547 184.079 55.584C184.228 55.4027 184.244 55.152 184.127 54.832ZM192.88 46.4C193.936 46.4 194.848 46.592 195.616 46.976C196.384 47.36 196.976 47.9147 197.392 48.64C197.808 49.3547 198.016 50.208 198.016 51.2C198.016 52.192 197.808 53.0453 197.392 53.76C196.976 54.4747 196.384 55.0293 195.616 55.424C194.848 55.808 193.936 56 192.88 56H189.472L189.44 55.52C190.187 55.52 190.811 55.52 191.312 55.52C191.824 55.52 192.214 55.52 192.48 55.52C192.747 55.52 192.88 55.52 192.88 55.52C194.118 55.52 195.088 55.136 195.792 54.368C196.507 53.5893 196.864 52.5333 196.864 51.2C196.864 49.8667 196.507 48.816 195.792 48.048C195.088 47.2693 194.118 46.88 192.88 46.88C192.88 46.88 192.742 46.88 192.464 46.88C192.187 46.88 191.782 46.88 191.248 46.88C190.715 46.88 190.059 46.88 189.28 46.88V46.4H192.88ZM189.696 46.4V56H188.656V46.4H189.696ZM188.688 54.96V56H187.536V55.84C187.536 55.84 187.568 55.84 187.632 55.84C187.707 55.84 187.744 55.84 187.744 55.84C188 55.84 188.214 55.7547 188.384 55.584C188.555 55.4027 188.646 55.1947 188.656 54.96H188.688ZM188.688 47.44H188.656C188.646 47.184 188.55 46.976 188.368 46.816C188.198 46.6453 187.984 46.56 187.728 46.56C187.728 46.56 187.696 46.56 187.632 46.56C187.568 46.56 187.536 46.56 187.536 46.56V46.4H188.688V47.44ZM199.568 46.496H200.848L203.44 54.384L203.296 56.192L199.568 46.496ZM206.144 46.144L206.272 47.44L203.792 54.416C203.792 54.416 203.766 54.512 203.712 54.704C203.659 54.8853 203.6 55.1147 203.536 55.392C203.483 55.6587 203.451 55.9253 203.44 56.192H203.296L202.992 54.768L205.984 46.144H206.144ZM206.144 46.16L209.216 53.984L208.848 56.192L205.6 47.888L206.144 46.16ZM212.032 46.496L209.376 54.416C209.376 54.416 209.344 54.512 209.28 54.704C209.227 54.896 209.168 55.1307 209.104 55.408C209.051 55.6747 209.019 55.936 209.008 56.192H208.848L208.656 54.608L211.12 46.496H212.032ZM210.8 47.52C210.918 47.1787 210.907 46.9333 210.768 46.784C210.64 46.6347 210.491 46.56 210.32 46.56H210.192V46.4H213.12V46.56C213.12 46.56 213.099 46.56 213.056 46.56C213.024 46.56 213.008 46.56 213.008 46.56C212.678 46.56 212.4 46.6507 212.176 46.832C211.952 47.0133 211.792 47.2427 211.696 47.52H210.8ZM201.184 47.504L199.968 47.52C199.862 47.2427 199.702 47.0133 199.488 46.832C199.275 46.6507 198.998 46.56 198.656 46.56C198.656 46.56 198.635 46.56 198.592 46.56C198.55 46.56 198.528 46.56 198.528 46.56V46.4H201.824V46.56H201.696C201.526 46.56 201.371 46.6347 201.232 46.784C201.094 46.9227 201.078 47.1627 201.184 47.504ZM219.083 46.176C219.829 46.176 220.528 46.2987 221.179 46.544C221.84 46.7787 222.416 47.12 222.907 47.568C223.408 48.016 223.797 48.5493 224.075 49.168C224.352 49.776 224.491 50.4533 224.491 51.2C224.491 51.9467 224.352 52.6293 224.075 53.248C223.797 53.856 223.408 54.384 222.907 54.832C222.416 55.28 221.84 55.6267 221.179 55.872C220.528 56.1067 219.829 56.224 219.083 56.224C218.336 56.224 217.637 56.1067 216.987 55.872C216.336 55.6267 215.76 55.28 215.259 54.832C214.768 54.384 214.384 53.856 214.107 53.248C213.829 52.6293 213.691 51.9467 213.691 51.2C213.691 50.4533 213.829 49.776 214.107 49.168C214.384 48.5493 214.768 48.016 215.259 47.568C215.76 47.12 216.336 46.7787 216.987 46.544C217.637 46.2987 218.336 46.176 219.083 46.176ZM219.083 55.744C219.872 55.744 220.587 55.552 221.227 55.168C221.867 54.784 222.373 54.2507 222.747 53.568C223.12 52.8853 223.307 52.096 223.307 51.2C223.307 50.2933 223.12 49.504 222.747 48.832C222.373 48.1493 221.867 47.616 221.227 47.232C220.587 46.848 219.872 46.656 219.083 46.656C218.304 46.656 217.595 46.848 216.955 47.232C216.315 47.616 215.808 48.1493 215.435 48.832C215.061 49.504 214.875 50.2933 214.875 51.2C214.875 52.096 215.061 52.8853 215.435 53.568C215.808 54.2507 216.315 54.784 216.955 55.168C217.595 55.552 218.304 55.744 219.083 55.744ZM229.543 50.64L233.719 55.184C233.9 55.3973 234.092 55.5573 234.295 55.664C234.498 55.7707 234.77 55.8293 235.111 55.84V56H234.519C234.391 56 234.231 55.9947 234.039 55.984C233.858 55.9627 233.655 55.9253 233.431 55.872C233.218 55.808 232.999 55.7173 232.775 55.6C232.562 55.472 232.359 55.3013 232.167 55.088C232.167 55.088 232.082 54.9973 231.911 54.816C231.751 54.624 231.538 54.384 231.271 54.096C231.004 53.7973 230.716 53.488 230.407 53.168C230.108 52.8373 229.826 52.528 229.559 52.24C229.292 51.9413 229.074 51.7013 228.903 51.52C228.732 51.328 228.647 51.232 228.647 51.232L229.543 50.64ZM233.815 46.512L229.399 51.232H228.647L232.663 46.512H233.815ZM234.855 46.4V46.56H234.791C234.46 46.56 234.151 46.6133 233.863 46.72C233.586 46.8267 233.356 46.9867 233.175 47.2L232.087 47.184C232.204 47.0347 232.22 46.896 232.135 46.768C232.06 46.6293 231.927 46.56 231.735 46.56H231.591V46.4H234.791H234.855ZM228.087 46.4V56H227.063V46.4H228.087ZM227.095 54.976V56H225.927V55.84C225.927 55.84 225.959 55.84 226.023 55.84C226.087 55.84 226.119 55.84 226.119 55.84C226.375 55.84 226.594 55.7547 226.775 55.584C226.956 55.4133 227.052 55.2107 227.063 54.976H227.095ZM228.039 54.976H228.087C228.087 55.2107 228.178 55.4133 228.359 55.584C228.54 55.7547 228.764 55.84 229.031 55.84C229.031 55.84 229.058 55.84 229.111 55.84C229.175 55.84 229.207 55.84 229.207 55.84V56H228.039V54.976ZM228.039 47.424V46.4H229.207V46.56C229.207 46.56 229.175 46.56 229.111 46.56C229.058 46.56 229.026 46.56 229.015 46.56C228.759 46.56 228.54 46.6453 228.359 46.816C228.178 46.976 228.087 47.1787 228.087 47.424H228.039ZM227.095 47.424H227.063C227.052 47.1787 226.956 46.976 226.775 46.816C226.594 46.6453 226.375 46.56 226.119 46.56C226.119 46.56 226.087 46.56 226.023 46.56C225.959 46.56 225.927 46.56 225.927 46.56V46.4H227.095V47.424ZM240.407 46.176L244.807 55.904H243.543L240.135 47.6L240.407 46.176ZM237.319 54.832C237.202 55.152 237.218 55.4027 237.367 55.584C237.517 55.7547 237.687 55.84 237.879 55.84H238.007V56H234.951V55.84C234.951 55.84 234.973 55.84 235.015 55.84C235.058 55.84 235.079 55.84 235.079 55.84C235.303 55.84 235.533 55.7653 235.767 55.616C236.002 55.456 236.205 55.1947 236.375 54.832H237.319ZM240.407 46.176L240.519 47.28L236.855 55.952H235.847L239.639 47.824C239.639 47.824 239.666 47.76 239.719 47.632C239.783 47.504 239.853 47.3493 239.927 47.168C240.013 46.976 240.087 46.7893 240.151 46.608C240.215 46.4267 240.253 46.2827 240.263 46.176H240.407ZM242.295 52.272V52.752H238.055V52.272H242.295ZM243.111 54.832H244.327C244.487 55.1947 244.685 55.456 244.919 55.616C245.154 55.7653 245.378 55.84 245.591 55.84C245.591 55.84 245.613 55.84 245.655 55.84C245.698 55.84 245.719 55.84 245.719 55.84V56H242.439V55.84H242.567C242.749 55.84 242.914 55.7547 243.063 55.584C243.213 55.4027 243.229 55.152 243.111 54.832ZM256.062 51.968L255.886 54.16C255.609 54.5867 255.246 54.9547 254.798 55.264C254.35 55.5733 253.844 55.8133 253.278 55.984C252.713 56.144 252.116 56.224 251.486 56.224C250.409 56.2133 249.47 56.0053 248.67 55.6C247.881 55.1947 247.273 54.6187 246.846 53.872C246.42 53.1253 246.206 52.2347 246.206 51.2C246.206 50.1547 246.42 49.2587 246.846 48.512C247.273 47.7653 247.881 47.1893 248.67 46.784C249.47 46.3787 250.409 46.176 251.486 46.176C252.148 46.176 252.814 46.2613 253.486 46.432C254.158 46.6027 254.74 46.8427 255.23 47.152L255.582 49.408H255.438C255.204 48.4267 254.729 47.7227 254.014 47.296C253.31 46.8693 252.462 46.656 251.47 46.656C250.628 46.656 249.897 46.8427 249.278 47.216C248.67 47.5787 248.196 48.1013 247.854 48.784C247.524 49.456 247.358 50.2613 247.358 51.2C247.358 52.1173 247.524 52.9173 247.854 53.6C248.196 54.272 248.676 54.7947 249.294 55.168C249.913 55.5307 250.644 55.7173 251.486 55.728C252.286 55.728 253.006 55.6 253.646 55.344C254.297 55.0773 254.825 54.6667 255.23 54.112C255.636 53.5573 255.865 52.8427 255.918 51.968H256.062ZM261.184 50.64L265.36 55.184C265.541 55.3973 265.733 55.5573 265.936 55.664C266.138 55.7707 266.41 55.8293 266.752 55.84V56H266.16C266.032 56 265.872 55.9947 265.68 55.984C265.498 55.9627 265.296 55.9253 265.072 55.872C264.858 55.808 264.64 55.7173 264.416 55.6C264.202 55.472 264 55.3013 263.808 55.088C263.808 55.088 263.722 54.9973 263.552 54.816C263.392 54.624 263.178 54.384 262.912 54.096C262.645 53.7973 262.357 53.488 262.048 53.168C261.749 52.8373 261.466 52.528 261.2 52.24C260.933 51.9413 260.714 51.7013 260.544 51.52C260.373 51.328 260.288 51.232 260.288 51.232L261.184 50.64ZM265.456 46.512L261.04 51.232H260.288L264.304 46.512H265.456ZM266.496 46.4V46.56H266.432C266.101 46.56 265.792 46.6133 265.503 46.72C265.226 46.8267 264.997 46.9867 264.816 47.2L263.728 47.184C263.845 47.0347 263.861 46.896 263.776 46.768C263.701 46.6293 263.568 46.56 263.376 46.56H263.232V46.4H266.432H266.496ZM259.728 46.4V56H258.704V46.4H259.728ZM258.736 54.976V56H257.568V55.84C257.568 55.84 257.6 55.84 257.664 55.84C257.728 55.84 257.76 55.84 257.76 55.84C258.016 55.84 258.234 55.7547 258.416 55.584C258.597 55.4133 258.693 55.2107 258.704 54.976H258.736ZM259.68 54.976H259.728C259.728 55.2107 259.818 55.4133 260 55.584C260.181 55.7547 260.405 55.84 260.672 55.84C260.672 55.84 260.698 55.84 260.752 55.84C260.816 55.84 260.848 55.84 260.848 55.84V56H259.68V54.976ZM259.68 47.424V46.4H260.848V46.56C260.848 46.56 260.816 46.56 260.752 46.56C260.698 46.56 260.666 46.56 260.656 46.56C260.4 46.56 260.181 46.6453 260 46.816C259.818 46.976 259.728 47.1787 259.728 47.424H259.68ZM258.736 47.424H258.704C258.693 47.1787 258.597 46.976 258.416 46.816C258.234 46.6453 258.016 46.56 257.76 46.56C257.76 46.56 257.728 46.56 257.664 46.56C257.6 46.56 257.568 46.56 257.568 46.56V46.4H258.736V47.424ZM272.048 46.176L276.448 55.904H275.184L271.776 47.6L272.048 46.176ZM268.96 54.832C268.843 55.152 268.859 55.4027 269.008 55.584C269.157 55.7547 269.328 55.84 269.52 55.84H269.648V56H266.592V55.84C266.592 55.84 266.613 55.84 266.656 55.84C266.699 55.84 266.72 55.84 266.72 55.84C266.944 55.84 267.173 55.7653 267.408 55.616C267.643 55.456 267.845 55.1947 268.016 54.832H268.96ZM272.048 46.176L272.16 47.28L268.496 55.952H267.488L271.28 47.824C271.28 47.824 271.307 47.76 271.36 47.632C271.424 47.504 271.493 47.3493 271.568 47.168C271.653 46.976 271.728 46.7893 271.792 46.608C271.856 46.4267 271.893 46.2827 271.904 46.176H272.048ZM273.936 52.272V52.752H269.696V52.272H273.936ZM274.752 54.832H275.968C276.128 55.1947 276.325 55.456 276.56 55.616C276.795 55.7653 277.019 55.84 277.232 55.84C277.232 55.84 277.253 55.84 277.296 55.84C277.339 55.84 277.36 55.84 277.36 55.84V56H274.08V55.84H274.208C274.389 55.84 274.555 55.7547 274.704 55.584C274.853 55.4027 274.869 55.152 274.752 54.832Z" fill="#70521D"/>
<path fill-rule="evenodd" clip-rule="evenodd" d="M74.7188 64.6742C67.3979 75.1488 55.249 82 41.5 82C19.1325 82 1 63.8675 1 41.5C1 19.1325 19.1325 1 41.5 1C55.249 1 67.3979 7.85117 74.7188 18.3258C74.9174 18.0314 75.1196 17.7397 75.3254 17.4507C67.8022 6.88847 55.4556 0 41.5 0C18.5802 0 0 18.5802 0 41.5C0 64.4198 18.5802 83 41.5 83C55.4556 83 67.8022 76.1115 75.3254 65.5493C75.1196 65.2603 74.9174 64.9686 74.7188 64.6742Z" fill="#806434"/>
</svg>
