<svg width="298" height="85" viewBox="0 0 298 85" fill="none" xmlns="http://www.w3.org/2000/svg">
<g clip-path="url(#clip0_133_24)">
<path d="M17.9867 21.5981H25.6799C28.1666 21.5981 30.3036 22.056 32.091 22.9717C33.8783 23.8874 35.2576 25.2211 36.229 26.9729C37.2004 28.6848 37.6861 30.7352 37.6861 33.1239C37.6861 34.9553 37.3363 36.6075 36.637 38.0806C35.9376 39.5138 35.0051 40.7281 33.8394 41.7234C32.6738 42.7188 31.3528 43.4752 29.8762 43.9928C28.3998 44.4705 26.865 44.6497 25.272 44.5302C23.7177 44.4108 22.2024 43.9529 20.726 43.1567V42.5595C20.726 42.5595 21.0562 42.6192 21.7167 42.7387C22.3772 42.8183 23.2126 42.8382 24.2229 42.7984C25.272 42.7188 26.3599 42.4998 27.4866 42.1415C28.6523 41.7434 29.7208 41.0666 30.6922 40.111C31.7024 39.1555 32.4601 37.8218 32.9652 36.1099C33.0818 35.6719 33.1789 35.1345 33.2566 34.4975C33.3343 33.8207 33.3538 33.1637 33.3149 32.5267C33.276 29.7797 32.5767 27.57 31.2167 25.8979C29.8568 24.2258 27.9335 23.3897 25.4468 23.3897H18.5695C18.5695 23.3897 18.5112 23.2504 18.3946 22.9717C18.317 22.6532 18.2198 22.3546 18.1032 22.0759C18.0255 21.7574 17.9867 21.5981 17.9867 21.5981ZM18.7444 21.5981V63.4014H14.956V21.5981H18.7444ZM15.1308 59.042V63.4014H10.4683V62.8043C10.4683 62.8043 10.5848 62.8043 10.818 62.8043C11.0899 62.8043 11.226 62.8043 11.226 62.8043C12.2362 62.8043 13.0909 62.4459 13.7904 61.7293C14.5286 60.9729 14.9171 60.0771 14.956 59.042H15.1308ZM15.1308 25.9576H14.956C14.956 24.9225 14.5869 24.0466 13.8486 23.33C13.1104 22.5736 12.2362 22.1953 11.226 22.1953C11.226 22.1953 11.1093 22.1953 10.8762 22.1953C10.6431 22.1953 10.5265 22.1953 10.5265 22.1953L10.4683 21.5981H15.1308V25.9576ZM18.5695 59.042H18.7444C18.7832 60.0771 19.1523 60.9729 19.8517 61.7293C20.5899 62.4459 21.4642 62.8043 22.4744 62.8043C22.4744 62.8043 22.591 62.8043 22.8241 62.8043C23.0961 62.8043 23.2321 62.8043 23.2321 62.8043V63.4014H18.5695V59.042Z" fill="#0E1F2A"/>
<path d="M52.7506 40.4096L69.7021 60.3558C70.5374 61.152 71.3735 61.7492 72.2089 62.1473C73.084 62.5454 74.1386 62.7644 75.3724 62.8043V63.4014H72.8056C72.4078 63.4014 71.8306 63.3815 71.0748 63.3417C70.3588 63.2621 69.5628 63.1227 68.6874 62.9237C67.8517 62.6848 66.9962 62.3464 66.1208 61.9084C65.2852 61.4307 64.5291 60.7937 63.8526 59.9975C63.8526 59.9975 63.4945 59.5794 62.7782 58.7434C62.1017 57.9073 61.2065 56.8323 60.0923 55.5185C59.0179 54.2047 57.8639 52.8113 56.6303 51.3382C55.4366 49.8253 54.2826 48.412 53.1684 47.0981C52.094 45.7843 51.1987 44.7094 50.4825 43.8733C49.806 43.0372 49.4678 42.6192 49.4678 42.6192L52.7506 40.4096ZM70.0008 22.0162L52.1538 42.6192H49.4678L65.882 22.0162H70.0008ZM74.119 21.5981V22.1356H73.8803C72.5669 22.1356 71.3337 22.3944 70.1794 22.912C69.0654 23.4295 68.1104 24.1461 67.3145 25.0618L63.5542 24.9424C64.0715 24.2656 64.1511 23.6286 63.7929 23.0314C63.4746 22.4342 62.9175 22.1356 62.1217 22.1356H61.5248V21.5981H74.119ZM47.5577 21.5981V63.4014H43.678V21.5981H47.5577ZM43.8571 59.042V63.4014H39.082V62.8043C39.082 62.8043 39.2014 62.8043 39.4402 62.8043C39.7187 62.8043 39.8579 62.8043 39.8579 62.8043C40.8926 62.8043 41.768 62.4459 42.4843 61.7293C43.2403 60.9729 43.6382 60.0771 43.678 59.042H43.8571ZM43.8571 25.9576H43.678C43.6382 24.9225 43.2403 24.0466 42.4843 23.33C41.768 22.5736 40.8926 22.1953 39.8579 22.1953C39.8579 22.1953 39.7187 22.1953 39.4402 22.1953C39.2014 22.1953 39.082 22.1953 39.082 22.1953V21.5981H43.8571V25.9576ZM47.3787 59.042H47.5577C47.5976 60.0771 47.9756 60.9729 48.6918 61.7293C49.4479 62.4459 50.3432 62.8043 51.3778 62.8043C51.3778 62.8043 51.4972 62.8043 51.7359 62.8043C51.9747 62.8043 52.1139 62.8043 52.1538 62.8043V63.4014H47.3787V59.042ZM47.3787 25.9576V21.5981H52.1538V22.1953C52.1139 22.1953 51.9747 22.1953 51.7359 22.1953C51.4972 22.1953 51.3778 22.1953 51.3778 22.1953C50.3432 22.1953 49.4479 22.5736 48.6918 23.33C47.9756 24.0466 47.5976 24.9225 47.5577 25.9576H47.3787Z" fill="#0E1F2A"/>
<path d="M79.9657 25.918H83.0979C84.1105 25.918 84.9808 26.0996 85.708 26.4628C86.4359 26.826 86.9977 27.3551 87.3927 28.0499C87.7884 28.729 87.9859 29.5423 87.9859 30.4899C87.9859 31.2163 87.8435 31.8717 87.5588 32.456C87.2741 33.0245 86.8944 33.5062 86.4198 33.901C85.9453 34.2958 85.4079 34.5958 84.8063 34.8012C84.2054 34.9907 83.5808 35.0617 82.9318 35.0144C82.2995 34.967 81.6826 34.7853 81.081 34.4695V34.2326C81.081 34.2326 81.2157 34.2563 81.4844 34.3037C81.7537 34.3353 82.0936 34.3432 82.5047 34.3274C82.9318 34.2958 83.3749 34.209 83.8335 34.0668C84.308 33.9089 84.7435 33.6404 85.1385 33.2614C85.5503 32.8824 85.8587 32.3534 86.0639 31.6743C86.1114 31.5006 86.1512 31.2874 86.1826 31.0347C86.2147 30.7662 86.2223 30.5057 86.2063 30.253C86.1909 29.1633 85.9062 28.2868 85.3521 27.6235C84.7986 26.9603 84.0156 26.6286 83.003 26.6286H80.203C80.203 26.6286 80.1793 26.5734 80.1318 26.4628C80.1004 26.3365 80.0607 26.218 80.0132 26.1075C79.9818 25.9812 79.9657 25.918 79.9657 25.918ZM80.2742 25.918V42.4999H78.7319V25.918H80.2742ZM78.8031 40.7707V42.4999H76.9048V42.2631C76.9048 42.2631 76.9522 42.2631 77.0472 42.2631C77.1581 42.2631 77.2133 42.2631 77.2133 42.2631C77.625 42.2631 77.9726 42.1209 78.2573 41.8367C78.5581 41.5366 78.7165 41.1813 78.7319 40.7707H78.8031ZM78.8031 27.6472H78.7319C78.7319 27.2367 78.5818 26.8892 78.281 26.6049C77.9809 26.3049 77.625 26.1549 77.2133 26.1549C77.2133 26.1549 77.1658 26.1549 77.0709 26.1549C76.976 26.1549 76.9285 26.1549 76.9285 26.1549L76.9048 25.918H78.8031V27.6472ZM80.203 40.7707H80.2742C80.2903 41.1813 80.4403 41.5366 80.725 41.8367C81.0258 42.1209 81.3818 42.2631 81.7928 42.2631C81.7928 42.2631 81.8403 42.2631 81.9352 42.2631C82.0462 42.2631 82.1013 42.2631 82.1013 42.2631V42.4999H80.203V40.7707ZM95.0172 27.9552L101.542 42.3578H99.6679L94.6138 30.0635L95.0172 27.9552ZM90.4376 40.7707C90.2631 41.2444 90.2869 41.6156 90.5088 41.884C90.73 42.1367 90.9834 42.2631 91.2681 42.2631H91.4579V42.4999H86.9258V42.2631C86.9258 42.2631 86.9572 42.2631 87.0207 42.2631C87.0835 42.2631 87.1156 42.2631 87.1156 42.2631C87.4478 42.2631 87.7877 42.1525 88.136 41.9314C88.4835 41.6945 88.7843 41.3076 89.0376 40.7707H90.4376ZM95.0172 27.9552L95.1833 29.5897L89.7495 42.4289H88.2546L93.8782 30.3951C93.8782 30.3951 93.9173 30.3003 93.9969 30.1108C94.0918 29.9213 94.1944 29.6923 94.3053 29.4239C94.4317 29.1396 94.5426 28.8632 94.6375 28.5948C94.7324 28.3263 94.7876 28.1131 94.8036 27.9552H95.0172ZM97.8171 36.9805V37.6912H91.5291V36.9805H97.8171ZM99.0273 40.7707H100.831C101.068 41.3076 101.36 41.6945 101.709 41.9314C102.056 42.1525 102.388 42.2631 102.705 42.2631C102.705 42.2631 102.737 42.2631 102.8 42.2631C102.863 42.2631 102.895 42.2631 102.895 42.2631V42.4999H98.0307V42.2631H98.2205C98.4892 42.2631 98.7342 42.1367 98.9561 41.884C99.1773 41.6156 99.2011 41.2444 99.0273 40.7707ZM105.791 28.2868V37.2411C105.791 38.773 106.179 39.9811 106.953 40.8654C107.745 41.7498 108.82 42.192 110.18 42.192C111.684 42.192 112.862 41.7735 113.716 40.9365C114.586 40.0995 115.021 38.9545 115.021 37.5017V28.2868H116.112V37.5017C116.112 39.144 115.583 40.4469 114.523 41.4103C113.479 42.3578 112.039 42.8316 110.204 42.8316C108.385 42.8316 106.938 42.3578 105.862 41.4103C104.802 40.4627 104.272 39.1677 104.272 37.5253V28.2868H105.791ZM104.319 28.2868V29.5423H104.272C104.257 29.2581 104.138 29.0212 103.916 28.8317C103.711 28.6263 103.45 28.5237 103.133 28.5237C103.133 28.5237 103.07 28.5237 102.943 28.5237C102.833 28.5237 102.777 28.5237 102.777 28.5237V28.2868H104.319ZM107.285 28.2868V28.5237C107.285 28.5237 107.223 28.5237 107.096 28.5237C106.985 28.5237 106.93 28.5237 106.93 28.5237C106.629 28.5237 106.36 28.6263 106.123 28.8317C105.902 29.0212 105.791 29.2581 105.791 29.5423H105.743V28.2868H107.285ZM115.068 28.2868V29.5423H115.021C115.021 29.2581 114.911 29.0212 114.689 28.8317C114.467 28.6263 114.199 28.5237 113.882 28.5237C113.882 28.5237 113.819 28.5237 113.692 28.5237C113.582 28.5237 113.526 28.5237 113.526 28.5237V28.2868H115.068ZM117.607 28.2868V28.5237C117.607 28.5237 117.544 28.5237 117.417 28.5237C117.307 28.5237 117.251 28.5237 117.251 28.5237C116.951 28.5237 116.69 28.6263 116.468 28.8317C116.247 29.0212 116.128 29.2581 116.112 29.5423H116.065V28.2868H117.607ZM122.975 28.2868V42.4999H121.456V28.2868H122.975ZM129.358 41.7656L129.31 42.4999H122.927V41.7656H129.358ZM130.686 39.1125L129.381 42.4999H125.775L126.581 41.7656C127.372 41.7656 128.005 41.655 128.48 41.434C128.97 41.1971 129.365 40.8812 129.666 40.4864C129.967 40.0758 130.228 39.6178 130.449 39.1125H130.686ZM121.504 40.9839L121.812 42.4999H119.748V42.2631C119.748 42.2631 119.803 42.2631 119.914 42.2631C120.025 42.2631 120.08 42.2631 120.08 42.2631C120.476 42.2631 120.799 42.1367 121.053 41.884C121.306 41.6313 121.44 41.3313 121.456 40.9839H121.504ZM122.904 29.8029V28.2868H124.659V28.5237C124.659 28.5237 124.612 28.5237 124.517 28.5237C124.422 28.5237 124.375 28.5237 124.375 28.5237C123.995 28.5237 123.663 28.65 123.378 28.9027C123.109 29.1396 122.975 29.4397 122.975 29.8029H122.904ZM121.504 29.8029H121.456C121.44 29.4397 121.298 29.1396 121.029 28.9027C120.76 28.65 120.428 28.5237 120.032 28.5237C120.032 28.5237 119.985 28.5237 119.89 28.5237C119.795 28.5237 119.748 28.5237 119.748 28.5237V28.2868H121.504V29.8029ZM135.33 28.2868V42.4999H133.835V28.2868H135.33ZM133.907 40.9839V42.4999H131.89V42.2631C131.89 42.2631 131.945 42.2631 132.056 42.2631C132.167 42.2631 132.222 42.2631 132.222 42.2631C132.665 42.2631 133.037 42.1367 133.337 41.884C133.654 41.6313 133.82 41.3313 133.835 40.9839H133.907ZM135.259 40.9839H135.33C135.346 41.3313 135.505 41.6313 135.805 41.884C136.122 42.1367 136.501 42.2631 136.944 42.2631C136.944 42.2631 136.991 42.2631 137.086 42.2631C137.197 42.2631 137.252 42.2631 137.252 42.2631L137.276 42.4999H135.259V40.9839ZM135.259 29.8029V28.2868H137.276L137.252 28.5237C137.252 28.5237 137.197 28.5237 137.086 28.5237C136.991 28.5237 136.944 28.5237 136.944 28.5237C136.501 28.5237 136.122 28.65 135.805 28.9027C135.505 29.1396 135.346 29.4397 135.33 29.8029H135.259ZM133.907 29.8029H133.835C133.82 29.4397 133.654 29.1396 133.337 28.9027C133.037 28.65 132.665 28.5237 132.222 28.5237C132.206 28.5237 132.143 28.5237 132.032 28.5237C131.937 28.5237 131.89 28.5237 131.89 28.5237V28.2868H133.907V29.8029ZM141.119 27.9315L154.264 40.2969L154.501 42.8316L141.356 30.3951L141.119 27.9315ZM141.166 41.0312V42.4999H139.386V42.2631C139.386 42.2631 139.45 42.2631 139.576 42.2631C139.719 42.2631 139.79 42.2631 139.79 42.2631C140.153 42.2631 140.462 42.1446 140.715 41.9077C140.969 41.6708 141.095 41.3787 141.095 41.0312H141.166ZM142.163 41.0312C142.163 41.3787 142.289 41.6708 142.542 41.9077C142.811 42.1446 143.119 42.2631 143.468 42.2631C143.468 42.2631 143.531 42.2631 143.657 42.2631C143.8 42.2631 143.871 42.2631 143.871 42.2631V42.4999H142.091V41.0312H142.163ZM141.119 27.9315L142.139 29.258L142.163 42.4999H141.095V30.8926C141.095 30.0871 141.055 29.3923 140.976 28.808C140.913 28.2236 140.881 27.9315 140.881 27.9315H141.119ZM154.501 28.2868V39.7994C154.501 40.3048 154.517 40.7944 154.549 41.2681C154.58 41.7261 154.612 42.1051 154.644 42.4052C154.691 42.6894 154.715 42.8316 154.715 42.8316H154.501L153.457 41.5761V28.2868H154.501ZM154.43 29.7555V28.2868H156.21V28.5237C156.21 28.5237 156.139 28.5237 155.996 28.5237C155.87 28.5237 155.806 28.5237 155.806 28.5237C155.458 28.5237 155.15 28.6421 154.881 28.879C154.628 29.1159 154.501 29.4081 154.501 29.7555H154.43ZM153.457 29.7555C153.441 29.4081 153.307 29.1159 153.054 28.879C152.801 28.6421 152.492 28.5237 152.128 28.5237C152.128 28.5237 152.057 28.5237 151.915 28.5237C151.789 28.5237 151.725 28.5237 151.725 28.5237V28.2868H153.505V29.7555H153.457ZM165.02 27.9552L171.545 42.3578H169.671L164.617 30.0635L165.02 27.9552ZM160.44 40.7707C160.267 41.2444 160.29 41.6156 160.512 41.884C160.734 42.1367 160.986 42.2631 161.271 42.2631H161.461V42.4999H156.929V42.2631C156.929 42.2631 156.961 42.2631 157.024 42.2631C157.087 42.2631 157.118 42.2631 157.118 42.2631C157.451 42.2631 157.791 42.1525 158.139 41.9314C158.487 41.6945 158.788 41.3076 159.04 40.7707H160.44ZM165.02 27.9552L165.186 29.5897L159.752 42.4289H158.257L163.881 30.3951C163.881 30.3951 163.921 30.3003 164 30.1108C164.095 29.9213 164.198 29.6923 164.308 29.4239C164.435 29.1396 164.545 28.8632 164.64 28.5948C164.735 28.3263 164.791 28.1131 164.806 27.9552H165.02ZM167.82 36.9805V37.6912H161.532V36.9805H167.82ZM169.03 40.7707H170.833C171.071 41.3076 171.364 41.6945 171.711 41.9314C172.06 42.1525 172.392 42.2631 172.708 42.2631C172.708 42.2631 172.74 42.2631 172.803 42.2631C172.866 42.2631 172.898 42.2631 172.898 42.2631V42.4999H168.033V42.2631H168.223C168.493 42.2631 168.738 42.1367 168.959 41.884C169.181 41.6156 169.205 41.2444 169.03 40.7707ZM185.571 33.3799L192.31 41.2918C192.642 41.6076 192.974 41.8445 193.306 42.0025C193.654 42.1604 194.074 42.2472 194.564 42.2631V42.4999H193.544C193.386 42.4999 193.156 42.4921 192.855 42.4762C192.571 42.4447 192.255 42.3894 191.906 42.3104C191.574 42.2157 191.234 42.0814 190.886 41.9077C190.554 41.7182 190.254 41.4655 189.984 41.1497C189.984 41.1497 189.842 40.9839 189.557 40.6522C189.288 40.3206 188.933 39.8942 188.489 39.3731C188.062 38.8519 187.604 38.2992 187.113 37.7149C186.639 37.1148 186.18 36.5541 185.737 36.033C185.31 35.5118 184.954 35.0854 184.669 34.7538C184.4 34.4221 184.266 34.2563 184.266 34.2563L185.571 33.3799ZM192.428 26.0838L185.334 34.2563H184.266L190.791 26.0838H192.428ZM194.066 25.918V26.1312H193.971C193.449 26.1312 192.959 26.2338 192.499 26.4391C192.057 26.6444 191.677 26.9287 191.361 27.2919L189.866 27.2445C190.072 26.9761 190.103 26.7234 189.961 26.4865C189.834 26.2496 189.613 26.1312 189.296 26.1312H189.059V25.918H193.971H194.066ZM183.506 25.918V42.4999H181.964V25.918H183.506ZM182.035 40.7707V42.4999H180.137V42.2631C180.137 42.2631 180.184 42.2631 180.279 42.2631C180.39 42.2631 180.445 42.2631 180.445 42.2631C180.857 42.2631 181.205 42.1209 181.49 41.8367C181.79 41.5366 181.949 41.1813 181.964 40.7707H182.035ZM182.035 27.6472H181.964C181.949 27.2367 181.79 26.8892 181.49 26.6049C181.205 26.3049 180.857 26.1549 180.445 26.1549C180.445 26.1549 180.39 26.1549 180.279 26.1549C180.184 26.1549 180.137 26.1549 180.137 26.1549V25.918H182.035V27.6472ZM183.435 40.7707H183.506C183.522 41.1813 183.673 41.5366 183.957 41.8367C184.258 42.1209 184.614 42.2631 185.025 42.2631C185.025 42.2631 185.073 42.2631 185.167 42.2631C185.262 42.2631 185.318 42.2631 185.334 42.2631V42.4999H183.435V40.7707ZM183.435 27.6472V25.918H185.334V26.1549C185.318 26.1549 185.262 26.1549 185.167 26.1549C185.073 26.1549 185.025 26.1549 185.025 26.1549C184.614 26.1549 184.258 26.3049 183.957 26.6049C183.673 26.8892 183.522 27.2367 183.506 27.6472H183.435ZM202.541 27.9552C203.648 27.9552 204.685 28.1368 205.65 28.5C206.63 28.8475 207.485 29.3528 208.213 30.0161C208.956 30.6794 209.533 31.469 209.945 32.3849C210.356 33.2851 210.562 34.2879 210.562 35.3934C210.562 36.4989 210.356 37.5095 209.945 38.4255C209.533 39.3257 208.956 40.1074 208.213 40.7707C207.485 41.434 206.63 41.9472 205.65 42.3104C204.685 42.6579 203.648 42.8316 202.541 42.8316C201.434 42.8316 200.398 42.6579 199.433 42.3104C198.468 41.9472 197.614 41.434 196.87 40.7707C196.142 40.1074 195.573 39.3257 195.162 38.4255C194.75 37.5095 194.545 36.4989 194.545 35.3934C194.545 34.2879 194.75 33.2851 195.162 32.3849C195.573 31.469 196.142 30.6794 196.87 30.0161C197.614 29.3528 198.468 28.8475 199.433 28.5C200.398 28.1368 201.434 27.9552 202.541 27.9552ZM202.541 42.1209C203.712 42.1209 204.772 41.8367 205.721 41.2681C206.67 40.6996 207.421 39.91 207.975 38.8993C208.529 37.8885 208.806 36.7199 208.806 35.3934C208.806 34.051 208.529 32.8824 207.975 31.8875C207.421 30.8767 206.67 30.0871 205.721 29.5186C204.772 28.9501 203.712 28.6658 202.541 28.6658C201.386 28.6658 200.335 28.9501 199.386 29.5186C198.436 30.0871 197.685 30.8767 197.131 31.8875C196.577 32.8824 196.301 34.051 196.301 35.3934C196.301 36.7199 196.577 37.8885 197.131 38.8993C197.685 39.91 198.436 40.6996 199.386 41.2681C200.335 41.8367 201.386 42.1209 202.541 42.1209ZM228.065 27.9552L228.278 29.4949L222.726 40.4153C222.726 40.4153 222.662 40.5496 222.536 40.818C222.425 41.0865 222.306 41.4103 222.18 41.7893C222.053 42.1525 221.958 42.4999 221.895 42.8316H221.658L221.326 41.3392L228.065 27.9552ZM214.16 40.9128V42.4999H211.692V42.2631C211.692 42.2631 211.747 42.2631 211.858 42.2631C211.985 42.2631 212.048 42.2631 212.048 42.2631C212.459 42.2631 212.815 42.1446 213.116 41.9077C213.432 41.6708 213.614 41.3392 213.662 40.9128H214.16ZM214.872 41.2681C214.856 41.505 214.911 41.734 215.038 41.9551C215.164 42.1604 215.401 42.2709 215.75 42.2867H216.082V42.4999H214.729V41.2681H214.872ZM215.512 27.9552H215.75L216.224 29.3528L214.753 42.4999H213.448L215.512 27.9552ZM215.75 27.9552L222.204 40.3443L221.658 42.8316L215.299 30.5609L215.75 27.9552ZM228.278 27.9552L230.414 42.4999H228.611L227.068 30.5846L228.065 27.9552H228.278ZM229.702 40.9128H230.177C230.239 41.3392 230.429 41.6708 230.746 41.9077C231.062 42.1446 231.418 42.2631 231.814 42.2631C231.814 42.2631 231.869 42.2631 231.98 42.2631C232.106 42.2631 232.17 42.2631 232.17 42.2631V42.4999H229.702V40.9128ZM228.444 41.2681H228.611V42.4999H227.234V42.2867H227.59C227.954 42.2709 228.191 42.1525 228.302 41.9314C228.428 41.7103 228.476 41.4892 228.444 41.2681ZM236.866 28.2868V42.4999H235.347V28.2868H236.866ZM243.249 41.7656L243.201 42.4999H236.818V41.7656H243.249ZM242.134 35.0381V35.7487H236.818V35.0381H242.134ZM243.225 28.2868V29.0212H236.818V28.2868H243.225ZM244.578 39.1125L243.273 42.4999H239.666L240.473 41.7656C241.264 41.7656 241.896 41.655 242.371 41.434C242.861 41.1971 243.257 40.8812 243.557 40.4864C243.858 40.0758 244.119 39.6178 244.34 39.1125H244.578ZM242.134 35.7013V37.0516H241.873V36.7436C241.873 36.4752 241.794 36.2462 241.635 36.0567C241.478 35.8513 241.232 35.7487 240.9 35.7487V35.7013H242.134ZM242.134 33.7352V35.0854H240.9V35.0381C241.232 35.0381 241.478 34.9433 241.635 34.7538C241.794 34.5485 241.873 34.3116 241.873 34.0431V33.7352H242.134ZM243.225 28.9501V30.5846H242.964V30.2293C242.964 29.8976 242.854 29.6134 242.632 29.3765C242.427 29.1396 242.142 29.0212 241.778 29.0212V28.9501H243.225ZM243.225 27.9078V28.5237L240.52 28.2868C241.011 28.2868 241.533 28.2473 242.086 28.1684C242.64 28.0736 243.02 27.9867 243.225 27.9078ZM235.395 40.9839L235.703 42.4999H233.639V42.2631C233.639 42.2631 233.695 42.2631 233.805 42.2631C233.916 42.2631 233.971 42.2631 233.971 42.2631C234.367 42.2631 234.691 42.1367 234.944 41.884C235.197 41.6313 235.332 41.3313 235.347 40.9839H235.395ZM235.395 29.7792H235.347C235.332 29.416 235.197 29.1159 234.944 28.879C234.691 28.6421 234.367 28.5237 233.971 28.5237C233.971 28.5237 233.916 28.5237 233.805 28.5237C233.695 28.5237 233.639 28.5237 233.639 28.5237V28.2868H235.703L235.395 29.7792ZM247.85 27.9315L260.996 40.2969L261.233 42.8316L248.087 30.3951L247.85 27.9315ZM247.897 41.0312V42.4999H246.118V42.2631C246.118 42.2631 246.181 42.2631 246.308 42.2631C246.45 42.2631 246.521 42.2631 246.521 42.2631C246.885 42.2631 247.193 42.1446 247.447 41.9077C247.699 41.6708 247.826 41.3787 247.826 41.0312H247.897ZM248.894 41.0312C248.894 41.3787 249.02 41.6708 249.274 41.9077C249.542 42.1446 249.851 42.2631 250.199 42.2631C250.199 42.2631 250.262 42.2631 250.389 42.2631C250.531 42.2631 250.602 42.2631 250.602 42.2631V42.4999H248.823V41.0312H248.894ZM247.85 27.9315L248.87 29.258L248.894 42.4999H247.826V30.8926C247.826 30.0871 247.787 29.3923 247.708 28.808C247.644 28.2236 247.613 27.9315 247.613 27.9315H247.85ZM261.233 28.2868V39.7994C261.233 40.3048 261.248 40.7944 261.28 41.2681C261.312 41.7261 261.343 42.1051 261.375 42.4052C261.423 42.6894 261.446 42.8316 261.446 42.8316H261.233L260.189 41.5761V28.2868H261.233ZM261.162 29.7555V28.2868H262.941V28.5237C262.941 28.5237 262.87 28.5237 262.728 28.5237C262.601 28.5237 262.538 28.5237 262.538 28.5237C262.19 28.5237 261.881 28.6421 261.612 28.879C261.359 29.1159 261.233 29.4081 261.233 29.7555H261.162ZM260.189 29.7555C260.173 29.4081 260.038 29.1159 259.785 28.879C259.532 28.6421 259.224 28.5237 258.86 28.5237C258.86 28.5237 258.789 28.5237 258.646 28.5237C258.519 28.5237 258.457 28.5237 258.457 28.5237V28.2868H260.236V29.7555H260.189ZM273.009 28.2868C274.575 28.2868 275.928 28.5711 277.067 29.1396C278.206 29.7081 279.083 30.5294 279.7 31.6032C280.317 32.6613 280.626 33.9247 280.626 35.3934C280.626 36.8621 280.317 38.1254 279.7 39.1835C279.083 40.2417 278.206 41.0628 277.067 41.6471C275.928 42.2157 274.575 42.4999 273.009 42.4999H267.955L267.907 41.7893C269.015 41.7893 269.94 41.7893 270.684 41.7893C271.443 41.7893 272.02 41.7893 272.416 41.7893C272.812 41.7893 273.009 41.7893 273.009 41.7893C274.844 41.7893 276.284 41.2208 277.328 40.0837C278.388 38.9308 278.917 37.3674 278.917 35.3934C278.917 33.4194 278.388 31.8638 277.328 30.7267C276.284 29.5739 274.844 28.9975 273.009 28.9975C273.009 28.9975 272.803 28.9975 272.392 28.9975C271.981 28.9975 271.379 28.9975 270.589 28.9975C269.798 28.9975 268.825 28.9975 267.67 28.9975V28.2868H273.009ZM268.287 28.2868V42.4999H266.745V28.2868H268.287ZM266.792 40.9602V42.4999H265.084V42.2631C265.084 42.2631 265.131 42.2631 265.226 42.2631C265.337 42.2631 265.392 42.2631 265.392 42.2631C265.772 42.2631 266.088 42.1367 266.341 41.884C266.595 41.6156 266.729 41.3076 266.745 40.9602H266.792ZM266.792 29.8266H266.745C266.729 29.4476 266.586 29.1396 266.318 28.9027C266.064 28.65 265.748 28.5237 265.368 28.5237C265.368 28.5237 265.321 28.5237 265.226 28.5237C265.131 28.5237 265.084 28.5237 265.084 28.5237V28.2868H266.792V29.8266ZM289.432 27.9552L295.957 42.3578H294.083L289.028 30.0635L289.432 27.9552ZM284.852 40.7707C284.678 41.2444 284.702 41.6156 284.923 41.884C285.145 42.1367 285.398 42.2631 285.683 42.2631H285.873V42.4999H281.34V42.2631C281.34 42.2631 281.372 42.2631 281.435 42.2631C281.498 42.2631 281.53 42.2631 281.53 42.2631C281.862 42.2631 282.202 42.1525 282.551 41.9314C282.898 41.6945 283.199 41.3076 283.452 40.7707H284.852ZM289.432 27.9552L289.598 29.5897L284.164 42.4289H282.669L288.293 30.3951C288.293 30.3951 288.332 30.3003 288.412 30.1108C288.506 29.9213 288.609 29.6923 288.72 29.4239C288.846 29.1396 288.957 28.8632 289.052 28.5948C289.147 28.3263 289.202 28.1131 289.218 27.9552H289.432ZM292.232 36.9805V37.6912H285.944V36.9805H292.232ZM293.442 40.7707H295.245C295.483 41.3076 295.775 41.6945 296.123 41.9314C296.471 42.1525 296.803 42.2631 297.12 42.2631C297.12 42.2631 297.151 42.2631 297.215 42.2631C297.278 42.2631 297.31 42.2631 297.31 42.2631V42.4999H292.445V42.2631H292.635C292.904 42.2631 293.149 42.1367 293.371 41.884C293.592 41.6156 293.616 41.2444 293.442 40.7707Z" fill="#0E1F2A"/>
<path d="M80.5077 51.9267L84.8681 57.0462C85.0831 57.2505 85.298 57.4038 85.513 57.506C85.7384 57.6082 86.0092 57.6644 86.3267 57.6746V57.8279H85.6665C85.5639 57.8279 85.416 57.8228 85.2212 57.8126C85.037 57.7921 84.8325 57.7563 84.6071 57.7053C84.3922 57.644 84.1723 57.5571 83.9469 57.4447C83.7319 57.3221 83.5372 57.1585 83.3635 56.9542C83.3635 56.9542 83.2713 56.8469 83.0871 56.6323C82.9133 56.4177 82.683 56.1418 82.3962 55.8046C82.1198 55.4674 81.8232 55.1098 81.5057 54.7317C81.1986 54.3434 80.902 53.9806 80.6152 53.6434C80.3388 53.3062 80.1085 53.0303 79.9242 52.8157C79.7505 52.6011 79.6632 52.4938 79.6632 52.4938L80.5077 51.9267ZM84.9449 47.2057L80.3541 52.4938H79.6632L83.8855 47.2057H84.9449ZM86.0043 47.0984V47.2363H85.9429C85.6051 47.2363 85.2875 47.3027 84.9909 47.4356C84.7041 47.5685 84.4584 47.7524 84.254 47.9874L83.2867 47.9567C83.42 47.783 83.4402 47.6195 83.3481 47.4662C83.2664 47.313 83.1227 47.2363 82.9182 47.2363H82.7647V47.0984H85.9429H86.0043ZM79.1719 47.0984V57.8279H78.1739V47.0984H79.1719ZM78.22 56.709V57.8279H76.9917V57.6746C76.9917 57.6746 77.0224 57.6746 77.0838 57.6746C77.1557 57.6746 77.1913 57.6746 77.1913 57.6746C77.4572 57.6746 77.6826 57.5826 77.8669 57.3987C78.0616 57.2045 78.1635 56.9746 78.1739 56.709H78.22ZM78.22 48.2173H78.1739C78.1635 47.9517 78.0616 47.7268 77.8669 47.5429C77.6826 47.3487 77.4572 47.2517 77.1913 47.2517C77.1913 47.2517 77.1557 47.2517 77.0838 47.2517C77.0224 47.2517 76.9917 47.2517 76.9917 47.2517V47.0984H78.22V48.2173ZM79.1259 56.709H79.1719C79.1824 56.9746 79.2794 57.2045 79.4636 57.3987C79.6583 57.5826 79.8886 57.6746 80.1545 57.6746C80.1545 57.6746 80.1853 57.6746 80.2467 57.6746C80.3081 57.6746 80.3437 57.6746 80.3541 57.6746V57.8279H79.1259V56.709ZM79.1259 48.2173V47.0984H80.3541V47.2517C80.3437 47.2517 80.3081 47.2517 80.2467 47.2517C80.1853 47.2517 80.1545 47.2517 80.1545 47.2517C79.8886 47.2517 79.6583 47.3487 79.4636 47.5429C79.2794 47.7268 79.1824 47.9517 79.1719 48.2173H79.1259ZM91.3201 48.4166L95.5424 57.7359H94.3294L91.0591 49.7808L91.3201 48.4166ZM88.3569 56.709C88.2445 57.0155 88.2599 57.2557 88.4029 57.4294C88.546 57.5929 88.71 57.6746 88.8943 57.6746H89.0171V57.8279H86.0845V57.6746C86.0845 57.6746 86.1048 57.6746 86.1459 57.6746C86.1871 57.6746 86.2074 57.6746 86.2074 57.6746C86.4223 57.6746 86.6422 57.6031 86.8676 57.46C87.093 57.3067 87.287 57.0564 87.451 56.709H88.3569ZM91.3201 48.4166L91.4276 49.4742L87.9116 57.7819H86.9443L90.5831 49.9953C90.5831 49.9953 90.609 49.934 90.6599 49.8114C90.7213 49.6888 90.7876 49.5406 90.8595 49.3669C90.9412 49.183 91.013 49.0041 91.0745 48.8304C91.1359 48.6567 91.1715 48.5188 91.1819 48.4166H91.3201ZM93.1319 54.2565V54.7163H89.0631V54.2565H93.1319ZM93.9149 56.709H95.0818C95.2353 57.0564 95.4244 57.3067 95.6498 57.46C95.8753 57.6031 96.0902 57.6746 96.2947 57.6746C96.2947 57.6746 96.3149 57.6746 96.3561 57.6746C96.3973 57.6746 96.4175 57.6746 96.4175 57.6746V57.8279H93.27V57.6746H93.3929C93.5666 57.6746 93.7258 57.5929 93.8688 57.4294C94.0119 57.2557 94.0272 57.0155 93.9149 56.709ZM98.0004 48.4012L106.506 56.4024L106.66 58.0425L98.1539 49.9953L98.0004 48.4012ZM98.0311 56.8776V57.8279H96.8795V57.6746C96.8795 57.6746 96.9207 57.6746 97.0024 57.6746C97.0945 57.6746 97.1405 57.6746 97.1405 57.6746C97.3757 57.6746 97.5753 57.598 97.7393 57.4447C97.9033 57.2914 97.985 57.1024 97.985 56.8776H98.0311ZM98.6759 56.8776C98.6759 57.1024 98.7576 57.2914 98.9216 57.4447C99.0953 57.598 99.2949 57.6746 99.5204 57.6746C99.5204 57.6746 99.5615 57.6746 99.6432 57.6746C99.7353 57.6746 99.7814 57.6746 99.7814 57.6746V57.8279H98.6298V56.8776H98.6759ZM98.0004 48.4012L98.6606 49.2596L98.6759 57.8279H97.985V50.3172C97.985 49.7961 97.9592 49.3465 97.9082 48.9684C97.8671 48.5903 97.8468 48.4012 97.8468 48.4012H98.0004ZM106.66 48.6312V56.0805C106.66 56.4075 106.67 56.7243 106.691 57.0308C106.711 57.3272 106.732 57.5724 106.752 57.7666C106.783 57.9505 106.798 58.0425 106.798 58.0425H106.66L105.984 57.2301V48.6312H106.66ZM106.614 49.5815V48.6312H107.765V48.7844C107.765 48.7844 107.719 48.7844 107.627 48.7844C107.545 48.7844 107.504 48.7844 107.504 48.7844C107.279 48.7844 107.079 48.8611 106.905 49.0144C106.741 49.1676 106.66 49.3567 106.66 49.5815H106.614ZM105.984 49.5815C105.974 49.3567 105.887 49.1676 105.723 49.0144C105.559 48.8611 105.36 48.7844 105.124 48.7844C105.124 48.7844 105.078 48.7844 104.986 48.7844C104.905 48.7844 104.863 48.7844 104.863 48.7844V48.6312H106.015V49.5815H105.984ZM118.458 53.9653L118.289 56.0652C118.023 56.4739 117.675 56.8265 117.245 57.1228C116.815 57.4191 116.328 57.649 115.786 57.8126C115.244 57.9658 114.67 58.0425 114.067 58.0425C113.033 58.0322 112.132 57.833 111.364 57.4447C110.607 57.0564 110.024 56.5046 109.614 55.7893C109.204 55.074 109 54.2208 109 53.2295C109 52.2281 109.204 51.3698 109.614 50.6544C110.024 49.9391 110.607 49.3873 111.364 48.999C112.132 48.6108 113.033 48.4166 114.067 48.4166C114.701 48.4166 115.341 48.4983 115.986 48.6618C116.631 48.8253 117.188 49.0553 117.659 49.3516L117.997 51.5128H117.859C117.633 50.5727 117.178 49.8983 116.492 49.4895C115.817 49.0808 115.003 48.8764 114.051 48.8764C113.242 48.8764 112.542 49.0553 111.948 49.4129C111.364 49.7603 110.909 50.261 110.581 50.915C110.264 51.5588 110.105 52.3303 110.105 53.2295C110.105 54.1083 110.264 54.8747 110.581 55.5287C110.909 56.1725 111.369 56.6732 111.963 57.0308C112.557 57.3783 113.258 57.5571 114.067 57.5673C114.834 57.5673 115.525 57.4447 116.139 57.1994C116.764 56.944 117.271 56.5506 117.659 56.0192C118.048 55.4878 118.269 54.8032 118.319 53.9653H118.458ZM121.99 48.6312V57.8279H121.008V48.6312H121.99ZM126.121 57.3527L126.09 57.8279H121.96V57.3527H126.121ZM125.399 52.9996V53.4594H121.96V52.9996H125.399ZM126.105 48.6312V49.1063H121.96V48.6312H126.105ZM126.98 55.636L126.136 57.8279H123.802L124.324 57.3527C124.836 57.3527 125.245 57.2812 125.552 57.1381C125.869 56.9849 126.125 56.7805 126.32 56.525C126.514 56.2594 126.683 55.963 126.827 55.636H126.98ZM125.399 53.4288V54.3025H125.23V54.1032C125.23 53.9295 125.178 53.7813 125.076 53.6587C124.974 53.5258 124.815 53.4594 124.601 53.4594V53.4288H125.399ZM125.399 52.1566V53.0303H124.601V52.9996C124.815 52.9996 124.974 52.9383 125.076 52.8157C125.178 52.6828 125.23 52.5295 125.23 52.3558V52.1566H125.399ZM126.105 49.0603V50.118H125.936V49.888C125.936 49.6735 125.864 49.4895 125.721 49.3362C125.588 49.183 125.404 49.1063 125.169 49.1063V49.0603H126.105ZM126.105 48.3859V48.7844L124.355 48.6312C124.672 48.6312 125.009 48.6056 125.368 48.5545C125.726 48.4932 125.972 48.437 126.105 48.3859ZM121.038 56.8469L121.238 57.8279H119.902V57.6746C119.902 57.6746 119.938 57.6746 120.01 57.6746C120.081 57.6746 120.117 57.6746 120.117 57.6746C120.373 57.6746 120.583 57.5929 120.747 57.4294C120.91 57.2658 120.997 57.0717 121.008 56.8469H121.038ZM121.038 49.5968H121.008C120.997 49.3618 120.91 49.1676 120.747 49.0144C120.583 48.8611 120.373 48.7844 120.117 48.7844C120.117 48.7844 120.081 48.7844 120.01 48.7844C119.938 48.7844 119.902 48.7844 119.902 48.7844V48.6312H121.238L121.038 49.5968ZM130.222 48.6312V57.8279H129.239V48.6312H130.222ZM134.352 57.3527L134.321 57.8279H130.191V57.3527H134.352ZM135.212 55.636L134.368 57.8279H132.034L132.556 57.3527C133.067 57.3527 133.477 57.2812 133.784 57.1381C134.101 56.9849 134.357 56.7805 134.552 56.525C134.746 56.2594 134.915 55.963 135.058 55.636H135.212ZM129.27 56.8469L129.47 57.8279H128.134V57.6746C128.134 57.6746 128.17 57.6746 128.241 57.6746C128.313 57.6746 128.349 57.6746 128.349 57.6746C128.604 57.6746 128.814 57.5929 128.978 57.4294C129.142 57.2658 129.229 57.0717 129.239 56.8469H129.27ZM130.176 49.6121V48.6312H131.312V48.7844C131.312 48.7844 131.281 48.7844 131.22 48.7844C131.159 48.7844 131.128 48.7844 131.128 48.7844C130.882 48.7844 130.667 48.8662 130.483 49.0297C130.309 49.183 130.222 49.3771 130.222 49.6121H130.176ZM129.27 49.6121H129.239C129.229 49.3771 129.137 49.183 128.963 49.0297C128.789 48.8662 128.574 48.7844 128.318 48.7844C128.318 48.7844 128.287 48.7844 128.226 48.7844C128.165 48.7844 128.134 48.7844 128.134 48.7844V48.6312H129.27V49.6121ZM140.68 48.4166L144.902 57.7359H143.689L140.419 49.7808L140.68 48.4166ZM137.717 56.709C137.604 57.0155 137.619 57.2557 137.763 57.4294C137.906 57.5929 138.07 57.6746 138.254 57.6746H138.377V57.8279H135.444V57.6746C135.444 57.6746 135.465 57.6746 135.506 57.6746C135.546 57.6746 135.567 57.6746 135.567 57.6746C135.782 57.6746 136.002 57.6031 136.227 57.46C136.452 57.3067 136.647 57.0564 136.811 56.709H137.717ZM140.68 48.4166L140.787 49.4742L137.271 57.7819H136.304L139.943 49.9953C139.943 49.9953 139.968 49.934 140.02 49.8114C140.081 49.6888 140.147 49.5406 140.219 49.3669C140.301 49.183 140.373 49.0041 140.434 48.8304C140.496 48.6567 140.531 48.5188 140.542 48.4166H140.68ZM142.492 54.2565V54.7163H138.423V54.2565H142.492ZM143.275 56.709H144.442C144.595 57.0564 144.784 57.3067 145.01 57.46C145.234 57.6031 145.449 57.6746 145.655 57.6746C145.655 57.6746 145.675 57.6746 145.716 57.6746C145.756 57.6746 145.777 57.6746 145.777 57.6746V57.8279H142.63V57.6746H142.753C142.926 57.6746 143.085 57.5929 143.229 57.4294C143.372 57.2557 143.387 57.0155 143.275 56.709ZM148.419 48.6312H150.399C150.881 48.6312 151.311 48.6874 151.689 48.7998C152.079 48.9122 152.406 49.0757 152.672 49.2903C152.948 49.5049 153.158 49.7654 153.301 50.072C153.445 50.3785 153.516 50.726 153.516 51.1143C153.516 51.5435 153.414 51.942 153.209 52.3099C153.005 52.6777 152.718 52.9792 152.349 53.2142C151.991 53.4492 151.582 53.5923 151.121 53.6434C151.296 53.7149 151.495 53.8733 151.72 54.1185C151.956 54.3638 152.155 54.6039 152.319 54.839C152.319 54.839 152.386 54.9309 152.518 55.1149C152.652 55.2885 152.82 55.5083 153.025 55.774C153.24 56.0294 153.45 56.2747 153.654 56.5097C153.869 56.7447 154.064 56.9491 154.238 57.1228C154.422 57.2965 154.617 57.4344 154.821 57.5367C155.036 57.6286 155.282 57.6746 155.558 57.6746V57.8279H155.082C154.52 57.8279 154.054 57.7563 153.685 57.6133C153.327 57.4703 153.035 57.2965 152.81 57.0922C152.585 56.8776 152.391 56.6732 152.227 56.479C152.186 56.428 152.088 56.3002 151.935 56.0958C151.792 55.8812 151.633 55.6513 151.459 55.4061C151.285 55.1608 151.127 54.9412 150.983 54.747C150.84 54.5426 150.753 54.42 150.722 54.3791C150.517 54.1135 150.282 53.8784 150.016 53.674C149.75 53.4594 149.469 53.3521 149.171 53.3521V53.1989C149.171 53.1989 149.254 53.204 149.417 53.2142C149.581 53.2142 149.791 53.2091 150.046 53.1989C150.333 53.1886 150.62 53.1682 150.906 53.1376C151.193 53.0967 151.459 52.9843 151.705 52.8003C151.961 52.6164 152.16 52.3099 152.303 51.8807C152.345 51.7683 152.375 51.6354 152.395 51.4821C152.416 51.3289 152.421 51.1705 152.411 51.007C152.401 50.7208 152.345 50.4654 152.242 50.2406C152.15 50.0158 152.012 49.8217 151.827 49.6581C151.654 49.4946 151.444 49.3669 151.198 49.2749C150.952 49.183 150.676 49.1319 150.369 49.1217C149.888 49.1012 149.469 49.0961 149.11 49.1063C148.752 49.1166 148.572 49.1166 148.572 49.1063C148.572 49.0961 148.557 49.0553 148.526 48.9837C148.506 48.902 148.48 48.8253 148.45 48.7538C148.429 48.6721 148.419 48.6312 148.419 48.6312ZM148.603 48.6312V57.8279H147.62V48.6312H148.603ZM147.667 56.8469L147.851 57.8279H146.546V57.6746C146.546 57.6746 146.582 57.6746 146.653 57.6746C146.725 57.6746 146.761 57.6746 146.761 57.6746C147.006 57.6746 147.212 57.5929 147.375 57.4294C147.539 57.2658 147.626 57.0717 147.636 56.8469H147.667ZM147.667 49.5968H147.636C147.626 49.3618 147.539 49.1676 147.375 49.0144C147.212 48.8611 147.006 48.7844 146.761 48.7844C146.761 48.7844 146.725 48.7844 146.653 48.7844C146.582 48.7844 146.546 48.7844 146.546 48.7844V48.6312H147.851L147.667 49.5968ZM148.557 56.8469H148.603C148.614 57.0717 148.701 57.2658 148.864 57.4294C149.028 57.5929 149.233 57.6746 149.478 57.6746C149.478 57.6746 149.509 57.6746 149.57 57.6746C149.642 57.6746 149.678 57.6746 149.678 57.6746L149.693 57.8279H148.373L148.557 56.8469ZM158.398 48.6312V57.8279H157.431V48.6312H158.398ZM157.477 56.8469V57.8279H156.172V57.6746C156.172 57.6746 156.208 57.6746 156.279 57.6746C156.351 57.6746 156.387 57.6746 156.387 57.6746C156.674 57.6746 156.914 57.5929 157.108 57.4294C157.314 57.2658 157.421 57.0717 157.431 56.8469H157.477ZM158.352 56.8469H158.398C158.409 57.0717 158.511 57.2658 158.705 57.4294C158.91 57.5929 159.156 57.6746 159.442 57.6746C159.442 57.6746 159.473 57.6746 159.534 57.6746C159.606 57.6746 159.642 57.6746 159.642 57.6746L159.657 57.8279H158.352V56.8469ZM158.352 49.6121V48.6312H159.657L159.642 48.7844C159.642 48.7844 159.606 48.7844 159.534 48.7844C159.473 48.7844 159.442 48.7844 159.442 48.7844C159.156 48.7844 158.91 48.8662 158.705 49.0297C158.511 49.183 158.409 49.3771 158.398 49.6121H158.352ZM157.477 49.6121H157.431C157.421 49.3771 157.314 49.183 157.108 49.0297C156.914 48.8662 156.674 48.7844 156.387 48.7844C156.377 48.7844 156.336 48.7844 156.264 48.7844C156.202 48.7844 156.172 48.7844 156.172 48.7844V48.6312H157.477V49.6121ZM165.644 48.4166L169.867 57.7359H168.654L165.383 49.7808L165.644 48.4166ZM162.681 56.709C162.569 57.0155 162.584 57.2557 162.727 57.4294C162.87 57.5929 163.034 57.6746 163.218 57.6746H163.341V57.8279H160.409V57.6746C160.409 57.6746 160.429 57.6746 160.47 57.6746C160.511 57.6746 160.531 57.6746 160.531 57.6746C160.746 57.6746 160.966 57.6031 161.192 57.46C161.417 57.3067 161.611 57.0564 161.775 56.709H162.681ZM165.644 48.4166L165.752 49.4742L162.236 57.7819H161.268L164.907 49.9953C164.907 49.9953 164.933 49.934 164.984 49.8114C165.045 49.6888 165.112 49.5406 165.184 49.3669C165.265 49.183 165.337 49.0041 165.399 48.8304C165.46 48.6567 165.496 48.5188 165.506 48.4166H165.644ZM167.456 54.2565V54.7163H163.387V54.2565H167.456ZM168.239 56.709H169.406C169.559 57.0564 169.749 57.3067 169.974 57.46C170.199 57.6031 170.414 57.6746 170.619 57.6746C170.619 57.6746 170.639 57.6746 170.68 57.6746C170.721 57.6746 170.742 57.6746 170.742 57.6746V57.8279H167.594V57.6746H167.717C167.891 57.6746 168.05 57.5929 168.193 57.4294C168.336 57.2557 168.351 57.0155 168.239 56.709ZM180.017 46.8838L184.561 57.7359H183.256L179.71 48.3399L180.017 46.8838ZM176.716 56.709C176.644 56.9133 176.634 57.0871 176.685 57.2301C176.736 57.3731 176.818 57.4856 176.931 57.5673C177.053 57.6389 177.176 57.6746 177.299 57.6746H177.437V57.8279H174.351V57.6746C174.351 57.6746 174.377 57.6746 174.428 57.6746C174.469 57.6746 174.489 57.6746 174.489 57.6746C174.725 57.6746 174.965 57.6031 175.211 57.46C175.467 57.3067 175.676 57.0564 175.84 56.709H176.716ZM180.017 46.8838L180.155 47.9567L176.301 57.7819H175.38L179.31 48.4626C179.31 48.4626 179.336 48.4012 179.387 48.2786C179.449 48.1458 179.515 47.9874 179.587 47.8035C179.668 47.6195 179.735 47.4407 179.786 47.267C179.848 47.0933 179.878 46.9655 179.878 46.8838H180.017ZM182.182 53.6434V54.1032H177.376V53.6434H182.182ZM182.872 56.709H184.131C184.285 57.0564 184.489 57.3067 184.746 57.46C185.002 57.6031 185.247 57.6746 185.483 57.6746C185.483 57.6746 185.503 57.6746 185.544 57.6746C185.585 57.6746 185.605 57.6746 185.605 57.6746V57.8279H182.151V57.6746H182.289C182.484 57.6746 182.657 57.5929 182.811 57.4294C182.965 57.2557 182.985 57.0155 182.872 56.709ZM191.408 48.6312C192.421 48.6312 193.296 48.8151 194.033 49.183C194.77 49.5508 195.338 50.0822 195.737 50.7771C196.137 51.4617 196.336 52.2792 196.336 53.2295C196.336 54.1799 196.137 54.9973 195.737 55.682C195.338 56.3667 194.77 56.898 194.033 57.2761C193.296 57.644 192.421 57.8279 191.408 57.8279H188.137L188.107 57.368C188.823 57.368 189.422 57.368 189.903 57.368C190.394 57.368 190.768 57.368 191.024 57.368C191.28 57.368 191.408 57.368 191.408 57.368C192.595 57.368 193.526 57.0002 194.202 56.2644C194.888 55.5185 195.231 54.5068 195.231 53.2295C195.231 51.9522 194.888 50.9457 194.202 50.2099C193.526 49.464 192.595 49.091 191.408 49.091C191.408 49.091 191.274 49.091 191.008 49.091C190.743 49.091 190.353 49.091 189.842 49.091C189.33 49.091 188.701 49.091 187.953 49.091V48.6312H191.408ZM188.352 48.6312V57.8279H187.354V48.6312H188.352ZM187.385 56.8316V57.8279H186.28V57.6746C186.28 57.6746 186.31 57.6746 186.372 57.6746C186.444 57.6746 186.479 57.6746 186.479 57.6746C186.725 57.6746 186.929 57.5929 187.093 57.4294C187.257 57.2557 187.344 57.0564 187.354 56.8316H187.385ZM187.385 49.6275H187.354C187.344 49.3822 187.252 49.183 187.078 49.0297C186.914 48.8662 186.709 48.7844 186.464 48.7844C186.464 48.7844 186.433 48.7844 186.372 48.7844C186.31 48.7844 186.28 48.7844 186.28 48.7844V48.6312H187.385V49.6275ZM197.825 48.7231H199.054L201.541 56.2798L201.403 58.0118L197.825 48.7231ZM204.136 48.3859L204.259 49.6275L201.879 56.3104C201.879 56.3104 201.853 56.4024 201.802 56.5863C201.751 56.76 201.695 56.9798 201.633 57.2454C201.582 57.5009 201.552 57.7563 201.541 58.0118H201.403L201.111 56.6476L203.982 48.3859H204.136ZM204.136 48.4012L207.084 55.8966L206.731 58.0118L203.614 50.0567L204.136 48.4012ZM209.786 48.7231L207.237 56.3104C207.237 56.3104 207.207 56.4024 207.145 56.5863C207.094 56.7703 207.038 56.9951 206.976 57.2608C206.925 57.5162 206.895 57.7666 206.884 58.0118H206.731L206.546 56.4944L208.911 48.7231H209.786ZM208.604 49.7041C208.716 49.3771 208.706 49.1421 208.573 48.999C208.45 48.856 208.307 48.7844 208.143 48.7844H208.02V48.6312H210.83V48.7844C210.83 48.7844 210.81 48.7844 210.769 48.7844C210.738 48.7844 210.723 48.7844 210.723 48.7844C210.405 48.7844 210.139 48.8713 209.924 49.045C209.709 49.2187 209.556 49.4385 209.464 49.7041H208.604ZM199.376 49.6888L198.209 49.7041C198.107 49.4385 197.953 49.2187 197.749 49.045C197.544 48.8713 197.278 48.7844 196.95 48.7844C196.95 48.7844 196.93 48.7844 196.889 48.7844C196.848 48.7844 196.827 48.7844 196.827 48.7844V48.6312H199.99V48.7844H199.867C199.703 48.7844 199.556 48.856 199.422 48.999C199.289 49.1319 199.274 49.3618 199.376 49.6888ZM216.551 48.4166C217.268 48.4166 217.939 48.5341 218.563 48.7691C219.198 48.9939 219.75 49.3209 220.221 49.7501C220.702 50.1793 221.076 50.6902 221.342 51.2829C221.608 51.8653 221.741 52.5142 221.741 53.2295C221.741 53.9449 221.608 54.5988 221.342 55.1915C221.076 55.774 220.702 56.2798 220.221 56.709C219.75 57.1381 219.198 57.4703 218.563 57.7053C217.939 57.9301 217.268 58.0425 216.551 58.0425C215.835 58.0425 215.165 57.9301 214.54 57.7053C213.916 57.4703 213.363 57.1381 212.882 56.709C212.411 56.2798 212.043 55.774 211.776 55.1915C211.51 54.5988 211.377 53.9449 211.377 53.2295C211.377 52.5142 211.51 51.8653 211.776 51.2829C212.043 50.6902 212.411 50.1793 212.882 49.7501C213.363 49.3209 213.916 48.9939 214.54 48.7691C215.165 48.5341 215.835 48.4166 216.551 48.4166ZM216.551 57.5826C217.309 57.5826 217.995 57.3987 218.609 57.0308C219.223 56.663 219.709 56.1521 220.067 55.4981C220.426 54.844 220.605 54.0879 220.605 53.2295C220.605 52.3609 220.426 51.6048 220.067 50.961C219.709 50.307 219.223 49.7961 218.609 49.4282C217.995 49.0603 217.309 48.8764 216.551 48.8764C215.805 48.8764 215.123 49.0603 214.509 49.4282C213.895 49.7961 213.409 50.307 213.051 50.961C212.693 51.6048 212.513 52.3609 212.513 53.2295C212.513 54.0879 212.693 54.844 213.051 55.4981C213.409 56.1521 213.895 56.663 214.509 57.0308C215.123 57.3987 215.805 57.5826 216.551 57.5826ZM226.589 52.693L230.596 57.0462C230.77 57.2505 230.954 57.4038 231.149 57.506C231.344 57.6082 231.605 57.6644 231.932 57.6746V57.8279H231.364C231.241 57.8279 231.088 57.8228 230.903 57.8126C230.73 57.7921 230.535 57.7563 230.32 57.7053C230.116 57.644 229.905 57.5571 229.691 57.4447C229.486 57.3221 229.291 57.1585 229.107 56.9542C229.107 56.9542 229.025 56.8673 228.861 56.6936C228.708 56.5097 228.503 56.2798 228.247 56.0039C227.991 55.7177 227.715 55.4214 227.418 55.1149C227.131 54.7981 226.861 54.5017 226.604 54.2258C226.348 53.9397 226.139 53.7098 225.975 53.5361C225.811 53.3521 225.729 53.2602 225.729 53.2602L226.589 52.693ZM230.688 48.7385L226.451 53.2602H225.729L229.583 48.7385H230.688ZM231.686 48.6312V48.7844H231.625C231.308 48.7844 231.011 48.8355 230.735 48.9377C230.469 49.0399 230.248 49.1932 230.074 49.3976L229.03 49.3822C229.143 49.2392 229.158 49.1063 229.076 48.9837C229.004 48.8508 228.877 48.7844 228.693 48.7844H228.554V48.6312H231.625H231.686ZM225.192 48.6312V57.8279H224.209V48.6312H225.192ZM224.24 56.8469V57.8279H223.119V57.6746C223.119 57.6746 223.15 57.6746 223.211 57.6746C223.273 57.6746 223.303 57.6746 223.303 57.6746C223.549 57.6746 223.759 57.5929 223.933 57.4294C224.107 57.2658 224.199 57.0717 224.209 56.8469H224.24ZM225.146 56.8469H225.192C225.192 57.0717 225.279 57.2658 225.453 57.4294C225.627 57.5929 225.842 57.6746 226.098 57.6746C226.098 57.6746 226.124 57.6746 226.175 57.6746C226.236 57.6746 226.267 57.6746 226.267 57.6746V57.8279H225.146V56.8469ZM225.146 49.6121V48.6312H226.267V48.7844C226.267 48.7844 226.236 48.7844 226.175 48.7844C226.124 48.7844 226.093 48.7844 226.082 48.7844C225.837 48.7844 225.627 48.8662 225.453 49.0297C225.279 49.183 225.192 49.3771 225.192 49.6121H225.146ZM224.24 49.6121H224.209C224.199 49.3771 224.107 49.183 223.933 49.0297C223.759 48.8662 223.549 48.7844 223.303 48.7844C223.303 48.7844 223.273 48.7844 223.211 48.7844C223.15 48.7844 223.119 48.7844 223.119 48.7844V48.6312H224.24V49.6121ZM237.015 48.4166L241.237 57.7359H240.024L236.754 49.7808L237.015 48.4166ZM234.052 56.709C233.939 57.0155 233.954 57.2557 234.098 57.4294C234.241 57.5929 234.405 57.6746 234.589 57.6746H234.712V57.8279H231.779V57.6746C231.779 57.6746 231.8 57.6746 231.841 57.6746C231.881 57.6746 231.902 57.6746 231.902 57.6746C232.117 57.6746 232.337 57.6031 232.562 57.46C232.787 57.3067 232.982 57.0564 233.146 56.709H234.052ZM237.015 48.4166L237.122 49.4742L233.606 57.7819H232.639L236.278 49.9953C236.278 49.9953 236.303 49.934 236.355 49.8114C236.416 49.6888 236.482 49.5406 236.554 49.3669C236.636 49.183 236.708 49.0041 236.769 48.8304C236.831 48.6567 236.866 48.5188 236.877 48.4166H237.015ZM238.827 54.2565V54.7163H234.758V54.2565H238.827ZM239.61 56.709H240.777C240.93 57.0564 241.119 57.3067 241.345 57.46C241.569 57.6031 241.784 57.6746 241.989 57.6746C241.989 57.6746 242.01 57.6746 242.051 57.6746C242.091 57.6746 242.112 57.6746 242.112 57.6746V57.8279H238.965V57.6746H239.088C239.261 57.6746 239.42 57.5929 239.564 57.4294C239.707 57.2557 239.722 57.0155 239.61 56.709ZM252.037 53.9653L251.868 56.0652C251.602 56.4739 251.254 56.8265 250.824 57.1228C250.394 57.4191 249.908 57.649 249.366 57.8126C248.823 57.9658 248.25 58.0425 247.646 58.0425C246.612 58.0322 245.711 57.833 244.944 57.4447C244.186 57.0564 243.603 56.5046 243.193 55.7893C242.784 55.074 242.579 54.2208 242.579 53.2295C242.579 52.2281 242.784 51.3698 243.193 50.6544C243.603 49.9391 244.186 49.3873 244.944 48.999C245.711 48.6108 246.612 48.4166 247.646 48.4166C248.281 48.4166 248.92 48.4983 249.565 48.6618C250.21 48.8253 250.768 49.0553 251.239 49.3516L251.576 51.5128H251.438C251.214 50.5727 250.758 49.8983 250.072 49.4895C249.396 49.0808 248.582 48.8764 247.631 48.8764C246.822 48.8764 246.121 49.0553 245.527 49.4129C244.944 49.7603 244.489 50.261 244.161 50.915C243.844 51.5588 243.685 52.3303 243.685 53.2295C243.685 54.1083 243.844 54.8747 244.161 55.5287C244.489 56.1725 244.949 56.6732 245.542 57.0308C246.136 57.3783 246.838 57.5571 247.646 57.5673C248.414 57.5673 249.104 57.4447 249.719 57.1994C250.343 56.944 250.85 56.5506 251.239 56.0192C251.628 55.4878 251.848 54.8032 251.899 53.9653H252.037ZM256.952 52.693L260.959 57.0462C261.133 57.2505 261.317 57.4038 261.512 57.506C261.706 57.6082 261.967 57.6644 262.295 57.6746V57.8279H261.727C261.604 57.8279 261.45 57.8228 261.266 57.8126C261.092 57.7921 260.897 57.7563 260.683 57.7053C260.478 57.644 260.268 57.5571 260.053 57.4447C259.849 57.3221 259.654 57.1585 259.47 56.9542C259.47 56.9542 259.388 56.8673 259.224 56.6936C259.07 56.5097 258.866 56.2798 258.61 56.0039C258.354 55.7177 258.077 55.4214 257.781 55.1149C257.494 54.7981 257.223 54.5017 256.967 54.2258C256.711 53.9397 256.501 53.7098 256.337 53.5361C256.173 53.3521 256.092 53.2602 256.092 53.2602L256.952 52.693ZM261.051 48.7385L256.813 53.2602H256.092L259.946 48.7385H261.051ZM262.049 48.6312V48.7844H261.988C261.67 48.7844 261.373 48.8355 261.097 48.9377C260.831 49.0399 260.611 49.1932 260.437 49.3976L259.393 49.3822C259.505 49.2392 259.521 49.1063 259.439 48.9837C259.367 48.8508 259.239 48.7844 259.055 48.7844H258.917V48.6312H261.988H262.049ZM255.554 48.6312V57.8279H254.572V48.6312H255.554ZM254.602 56.8469V57.8279H253.482V57.6746C253.482 57.6746 253.512 57.6746 253.574 57.6746C253.635 57.6746 253.666 57.6746 253.666 57.6746C253.912 57.6746 254.122 57.5929 254.295 57.4294C254.469 57.2658 254.561 57.0717 254.572 56.8469H254.602ZM255.508 56.8469H255.554C255.554 57.0717 255.642 57.2658 255.815 57.4294C255.989 57.5929 256.204 57.6746 256.46 57.6746C256.46 57.6746 256.486 57.6746 256.537 57.6746C256.598 57.6746 256.629 57.6746 256.629 57.6746V57.8279H255.508V56.8469ZM255.508 49.6121V48.6312H256.629V48.7844C256.629 48.7844 256.598 48.7844 256.537 48.7844C256.486 48.7844 256.455 48.7844 256.445 48.7844C256.199 48.7844 255.989 48.8662 255.815 49.0297C255.642 49.183 255.554 49.3771 255.554 49.6121H255.508ZM254.602 49.6121H254.572C254.561 49.3771 254.469 49.183 254.295 49.0297C254.122 48.8662 253.912 48.7844 253.666 48.7844C253.666 48.7844 253.635 48.7844 253.574 48.7844C253.512 48.7844 253.482 48.7844 253.482 48.7844V48.6312H254.602V49.6121ZM267.377 48.4166L271.6 57.7359H270.387L267.116 49.7808L267.377 48.4166ZM264.414 56.709C264.301 57.0155 264.316 57.2557 264.46 57.4294C264.603 57.5929 264.767 57.6746 264.952 57.6746H265.074V57.8279H262.142V57.6746C262.142 57.6746 262.162 57.6746 262.203 57.6746C262.244 57.6746 262.265 57.6746 262.265 57.6746C262.48 57.6746 262.699 57.6031 262.925 57.46C263.15 57.3067 263.344 57.0564 263.508 56.709H264.414ZM267.377 48.4166L267.485 49.4742L263.969 57.7819H263.002L266.64 49.9953C266.64 49.9953 266.666 49.934 266.717 49.8114C266.779 49.6888 266.845 49.5406 266.917 49.3669C266.998 49.183 267.07 49.0041 267.132 48.8304C267.193 48.6567 267.229 48.5188 267.239 48.4166H267.377ZM269.189 54.2565V54.7163H265.12V54.2565H269.189ZM269.972 56.709H271.139C271.293 57.0564 271.482 57.3067 271.707 57.46C271.932 57.6031 272.147 57.6746 272.352 57.6746C272.352 57.6746 272.372 57.6746 272.413 57.6746C272.454 57.6746 272.475 57.6746 272.475 57.6746V57.8279H269.327V57.6746H269.45C269.624 57.6746 269.782 57.5929 269.926 57.4294C270.069 57.2557 270.085 57.0155 269.972 56.709Z" fill="#0E1F2A"/>
<path fill-rule="evenodd" clip-rule="evenodd" d="M77.198 66.0133C69.661 77.0539 56.9642 84.3033 42.5714 84.3033C19.4453 84.3033 0.697892 65.5873 0.697892 42.5C0.697892 19.4127 19.4453 0.696721 42.5714 0.696721C56.9642 0.696721 69.661 7.94604 77.198 18.9867C77.3362 18.7789 77.4765 18.5724 77.6189 18.3673C69.9379 7.27063 57.105 0 42.5714 0C19.0599 0 0 19.0279 0 42.5C0 65.9721 19.0599 85 42.5714 85C57.105 85 69.9379 77.7297 77.6189 66.6327C77.4765 66.4276 77.3362 66.2211 77.198 66.0133Z" fill="#0E1F2A"/>
</g>
<defs>
<clipPath id="clip0_133_24">
<rect width="298" height="85" fill="white"/>
</clipPath>
</defs>
</svg>
