<svg width="235" height="67" viewBox="0 0 235 67" fill="none" xmlns="http://www.w3.org/2000/svg">
<path d="M14.1541 17.0247H20.208C22.1648 17.0247 23.8464 17.3855 25.2529 18.1073C26.6594 18.8291 27.7448 19.8804 28.5092 21.2612C29.2736 22.6106 29.6558 24.2268 29.6558 26.1097C29.6558 27.5532 29.3806 28.8556 28.8302 30.0167C28.2798 31.1464 27.5461 32.1036 26.6288 32.8881C25.7116 33.6727 24.672 34.2689 23.5101 34.6769C22.3483 35.0535 21.1405 35.1947 19.8869 35.1005C18.6639 35.0064 17.4715 34.6455 16.3096 34.0179V33.5471C16.3096 33.5471 16.5695 33.5942 17.0893 33.6884C17.6091 33.7511 18.2664 33.7668 19.0614 33.7354C19.8869 33.6727 20.7431 33.5001 21.6297 33.2176C22.547 32.9038 23.3878 32.3703 24.1522 31.6171C24.9471 30.864 25.5434 29.8127 25.9408 28.4633C26.0326 28.1181 26.109 27.6945 26.1702 27.1923C26.2313 26.6589 26.2466 26.1411 26.216 25.6389C26.1854 23.4736 25.6351 21.7319 24.565 20.4139C23.4948 19.0958 21.9814 18.4368 20.0245 18.4368H14.6127C14.6127 18.4368 14.5668 18.327 14.4751 18.1073C14.414 17.8563 14.3375 17.6209 14.2458 17.4012C14.1846 17.1502 14.1541 17.0247 14.1541 17.0247ZM14.7503 17.0247V49.9755H11.7692V17.0247H14.7503ZM11.9068 46.5392V49.9755H8.23773V49.5048C8.23773 49.5048 8.32944 49.5048 8.51293 49.5048C8.72694 49.5048 8.83398 49.5048 8.83398 49.5048C9.62892 49.5048 10.3016 49.2223 10.8519 48.6574C11.4329 48.0612 11.7386 47.3551 11.7692 46.5392H11.9068ZM11.9068 20.4609H11.7692C11.7692 19.645 11.4787 18.9546 10.8978 18.3898C10.3169 17.7935 9.62892 17.4954 8.83398 17.4954C8.83398 17.4954 8.74221 17.4954 8.55878 17.4954C8.3753 17.4954 8.28359 17.4954 8.28359 17.4954L8.23773 17.0247H11.9068V20.4609ZM14.6127 46.5392H14.7503C14.7808 47.3551 15.0713 48.0612 15.6217 48.6574C16.2026 49.2223 16.8906 49.5048 17.6855 49.5048C17.6855 49.5048 17.7773 49.5048 17.9607 49.5048C18.1747 49.5048 18.2817 49.5048 18.2817 49.5048V49.9755H14.6127V46.5392Z" fill="#70521D"/>
<path d="M41.5101 31.8525L54.8494 47.5748C55.5067 48.2024 56.1647 48.6731 56.822 48.9869C57.5107 49.3008 58.3405 49.4734 59.3115 49.5048V49.9755H57.2916C56.9785 49.9755 56.5244 49.9598 55.9296 49.9284C55.3662 49.8656 54.7398 49.7558 54.0509 49.5989C53.3933 49.4106 52.7201 49.1439 52.0312 48.7986C51.3737 48.4221 50.7787 47.9199 50.2464 47.2923C50.2464 47.2923 49.9646 46.9628 49.4009 46.3038C48.8686 45.6448 48.1641 44.7975 47.2873 43.7619C46.4419 42.7263 45.5338 41.6279 44.5631 40.4668C43.6237 39.2743 42.7156 38.1602 41.8389 37.1247C40.9934 36.0891 40.2888 35.2417 39.7252 34.5827C39.1929 33.9237 38.9268 33.5942 38.9268 33.5942L41.5101 31.8525ZM55.0844 17.3542L41.0404 33.5942H38.9268L51.8433 17.3542H55.0844ZM58.3251 17.0247V17.4483H58.1373C57.1038 17.4483 56.1334 17.6523 55.225 18.0602C54.3484 18.4682 53.5969 19.0331 52.9706 19.7549L50.0115 19.6607C50.4186 19.1272 50.4812 18.6251 50.1994 18.1544C49.9489 17.6837 49.5105 17.4483 48.8843 17.4483H48.4146V17.0247H58.3251ZM37.4237 17.0247V49.9755H34.3707V17.0247H37.4237ZM34.5116 46.5392V49.9755H30.7541V49.5048C30.7541 49.5048 30.8481 49.5048 31.0359 49.5048C31.2551 49.5048 31.3647 49.5048 31.3647 49.5048C32.1788 49.5048 32.8677 49.2223 33.4313 48.6574C34.0263 48.0612 34.3394 47.3551 34.3707 46.5392H34.5116ZM34.5116 20.4609H34.3707C34.3394 19.645 34.0263 18.9546 33.4313 18.3898C32.8677 17.7935 32.1788 17.4954 31.3647 17.4954C31.3647 17.4954 31.2551 17.4954 31.0359 17.4954C30.8481 17.4954 30.7541 17.4954 30.7541 17.4954V17.0247H34.5116V20.4609ZM37.2829 46.5392H37.4237C37.4551 47.3551 37.7525 48.0612 38.3161 48.6574C38.9111 49.2223 39.6157 49.5048 40.4298 49.5048C40.4298 49.5048 40.5237 49.5048 40.7116 49.5048C40.8995 49.5048 41.009 49.5048 41.0404 49.5048V49.9755H37.2829V46.5392ZM37.2829 20.4609V17.0247H41.0404V17.4954C41.009 17.4954 40.8995 17.4954 40.7116 17.4954C40.5237 17.4954 40.4298 17.4954 40.4298 17.4954C39.6157 17.4954 38.9111 17.7935 38.3161 18.3898C37.7525 18.9546 37.4551 19.645 37.4237 20.4609H37.2829Z" fill="#70521D"/>
<path d="M62.9262 20.4294H65.3909C66.1877 20.4294 66.8726 20.5726 67.4448 20.8589C68.0176 21.1452 68.4597 21.5622 68.7705 22.1099C69.0819 22.6452 69.2373 23.2863 69.2373 24.0332C69.2373 24.6058 69.1253 25.1224 68.9012 25.583C68.6772 26.0311 68.3784 26.4107 68.005 26.722C67.6315 27.0332 67.2087 27.2696 66.7353 27.4315C66.2624 27.5809 65.7709 27.6369 65.2602 27.5995C64.7626 27.5622 64.2771 27.419 63.8038 27.1701V26.9834C63.8038 26.9834 63.9097 27.002 64.1212 27.0394C64.3332 27.0643 64.6006 27.0705 64.9241 27.058C65.2602 27.0332 65.6089 26.9647 65.9697 26.8527C66.3432 26.7282 66.6859 26.5166 66.9967 26.2178C67.3207 25.9191 67.5634 25.5021 67.7249 24.9668C67.7622 24.8299 67.7935 24.6618 67.8183 24.4626C67.8435 24.251 67.8496 24.0456 67.8369 23.8464C67.8249 22.9875 67.6008 22.2967 67.1647 21.7738C66.7292 21.251 66.1131 20.9896 65.3162 20.9896H63.1129C63.1129 20.9896 63.0942 20.9461 63.0569 20.8589C63.0322 20.7593 63.0009 20.666 62.9635 20.5788C62.9388 20.4793 62.9262 20.4294 62.9262 20.4294ZM63.1689 20.4294V33.4999H61.9552V20.4294H63.1689ZM62.0112 32.1369V33.4999H60.5175V33.3132C60.5175 33.3132 60.5548 33.3132 60.6295 33.3132C60.7168 33.3132 60.7602 33.3132 60.7602 33.3132C61.0842 33.3132 61.3577 33.2012 61.5818 32.9771C61.8185 32.7406 61.9431 32.4605 61.9552 32.1369H62.0112ZM62.0112 21.7925H61.9552C61.9552 21.4689 61.8371 21.195 61.6004 20.9709C61.3643 20.7344 61.0842 20.6162 60.7602 20.6162C60.7602 20.6162 60.7228 20.6162 60.6482 20.6162C60.5735 20.6162 60.5361 20.6162 60.5361 20.6162L60.5175 20.4294H62.0112V21.7925ZM63.1129 32.1369H63.1689C63.1815 32.4605 63.2996 32.7406 63.5237 32.9771C63.7604 33.2012 64.0404 33.3132 64.3639 33.3132C64.3639 33.3132 64.4013 33.3132 64.4759 33.3132C64.5633 33.3132 64.6067 33.3132 64.6067 33.3132V33.4999H63.1129V32.1369ZM74.7703 22.0352L79.9052 33.3879H78.4301L74.4529 23.6971L74.7703 22.0352ZM71.1666 32.1369C71.0293 32.5103 71.048 32.8029 71.2226 33.0145C71.3967 33.2136 71.5961 33.3132 71.8201 33.3132H71.9695V33.4999H68.4031V33.3132C68.4031 33.3132 68.4279 33.3132 68.4778 33.3132C68.5273 33.3132 68.5525 33.3132 68.5525 33.3132C68.8139 33.3132 69.0814 33.2261 69.3554 33.0518C69.6289 32.8651 69.8656 32.5601 70.065 32.1369H71.1666ZM74.7703 22.0352L74.901 23.3236L70.6251 33.4439H69.4488L73.8741 23.9585C73.8741 23.9585 73.9048 23.8838 73.9674 23.7344C74.0421 23.585 74.1229 23.4045 74.2102 23.1929C74.3096 22.9689 74.3969 22.751 74.4716 22.5394C74.5463 22.3278 74.5897 22.1597 74.6023 22.0352H74.7703ZM76.9736 29.1493V29.7095H72.0255V29.1493H76.9736ZM77.9259 32.1369H79.345C79.5317 32.5601 79.7618 32.8651 80.0359 33.0518C80.3094 33.2261 80.5708 33.3132 80.8201 33.3132C80.8201 33.3132 80.8448 33.3132 80.8948 33.3132C80.9442 33.3132 80.9695 33.3132 80.9695 33.3132V33.4999H77.1417V33.3132H77.2911C77.5025 33.3132 77.6953 33.2136 77.8699 33.0145C78.044 32.8029 78.0627 32.5103 77.9259 32.1369ZM83.248 22.2967V29.3547C83.248 30.5622 83.5534 31.5145 84.163 32.2116C84.7857 32.9086 85.632 33.2572 86.7024 33.2572C87.8853 33.2572 88.8123 32.9273 89.4845 32.2676C90.1694 31.6078 90.5115 30.7053 90.5115 29.5601V22.2967H91.3704V29.5601C91.3704 30.8547 90.9536 31.8817 90.1194 32.641C89.2978 33.3879 88.1654 33.7613 86.7211 33.7613C85.2899 33.7613 84.1509 33.3879 83.3041 32.641C82.4704 31.8941 82.053 30.8734 82.053 29.5788V22.2967H83.248ZM82.0904 22.2967V23.2863H82.053C82.0409 23.0622 81.9476 22.8755 81.7729 22.7261C81.6115 22.5643 81.4061 22.4834 81.1568 22.4834C81.1568 22.4834 81.1073 22.4834 81.0074 22.4834C80.9206 22.4834 80.8767 22.4834 80.8767 22.4834V22.2967H82.0904ZM84.4244 22.2967V22.4834C84.4244 22.4834 84.3749 22.4834 84.275 22.4834C84.1882 22.4834 84.1443 22.4834 84.1443 22.4834C83.9081 22.4834 83.6962 22.5643 83.5094 22.7261C83.3354 22.8755 83.248 23.0622 83.248 23.2863H83.2107V22.2967H84.4244ZM90.5488 22.2967V23.2863H90.5115C90.5115 23.0622 90.4247 22.8755 90.2501 22.7261C90.076 22.5643 89.8646 22.4834 89.6152 22.4834C89.6152 22.4834 89.5658 22.4834 89.4659 22.4834C89.3791 22.4834 89.3351 22.4834 89.3351 22.4834V22.2967H90.5488ZM92.5468 22.2967V22.4834C92.5468 22.4834 92.4973 22.4834 92.3974 22.4834C92.3106 22.4834 92.2667 22.4834 92.2667 22.4834C92.0305 22.4834 91.8251 22.5643 91.6505 22.7261C91.4764 22.8755 91.383 23.0622 91.3704 23.2863H91.3331V22.2967H92.5468ZM96.7705 22.2967V33.4999H95.5755V22.2967H96.7705ZM101.793 32.9211L101.756 33.4999H96.7332V32.9211H101.793ZM102.839 30.8298L101.812 33.4999H98.9738L99.6087 32.9211C100.231 32.9211 100.729 32.8339 101.102 32.6597C101.489 32.473 101.799 32.224 102.036 31.9128C102.273 31.5892 102.478 31.2281 102.652 30.8298H102.839ZM95.6128 32.3049L95.8556 33.4999H94.2311V33.3132C94.2311 33.3132 94.2745 33.3132 94.3618 33.3132C94.4491 33.3132 94.4925 33.3132 94.4925 33.3132C94.8039 33.3132 95.0587 33.2136 95.2581 33.0145C95.4574 32.8153 95.5629 32.5788 95.5755 32.3049H95.6128ZM96.7145 23.4917V22.2967H98.0962V22.4834C98.0962 22.4834 98.0589 22.4834 97.9842 22.4834C97.9095 22.4834 97.8722 22.4834 97.8722 22.4834C97.5734 22.4834 97.312 22.5829 97.0879 22.7821C96.8765 22.9689 96.7705 23.2054 96.7705 23.4917H96.7145ZM95.6128 23.4917H95.5755C95.5629 23.2054 95.4508 22.9689 95.2394 22.7821C95.028 22.5829 94.7665 22.4834 94.4552 22.4834C94.4552 22.4834 94.4178 22.4834 94.3431 22.4834C94.2684 22.4834 94.2311 22.4834 94.2311 22.4834V22.2967H95.6128V23.4917ZM106.493 22.2967V33.4999H105.317V22.2967H106.493ZM105.373 32.3049V33.4999H103.786V33.3132C103.786 33.3132 103.83 33.3132 103.916 33.3132C104.004 33.3132 104.047 33.3132 104.047 33.3132C104.396 33.3132 104.689 33.2136 104.925 33.0145C105.174 32.8153 105.305 32.5788 105.317 32.3049H105.373ZM106.437 32.3049H106.493C106.506 32.5788 106.63 32.8153 106.867 33.0145C107.116 33.2136 107.415 33.3132 107.763 33.3132C107.763 33.3132 107.8 33.3132 107.875 33.3132C107.962 33.3132 108.006 33.3132 108.006 33.3132L108.024 33.4999H106.437V32.3049ZM106.437 23.4917V22.2967H108.024L108.006 22.4834C108.006 22.4834 107.962 22.4834 107.875 22.4834C107.8 22.4834 107.763 22.4834 107.763 22.4834C107.415 22.4834 107.116 22.5829 106.867 22.7821C106.63 22.9689 106.506 23.2054 106.493 23.4917H106.437ZM105.373 23.4917H105.317C105.305 23.2054 105.174 22.9689 104.925 22.7821C104.689 22.5829 104.396 22.4834 104.047 22.4834C104.035 22.4834 103.985 22.4834 103.898 22.4834C103.823 22.4834 103.786 22.4834 103.786 22.4834V22.2967H105.373V23.4917ZM111.048 22.0166L121.392 31.7634L121.579 33.7613L111.235 23.9585L111.048 22.0166ZM111.085 32.3423V33.4999H109.685V33.3132C109.685 33.3132 109.735 33.3132 109.834 33.3132C109.946 33.3132 110.002 33.3132 110.002 33.3132C110.289 33.3132 110.531 33.2199 110.731 33.0331C110.93 32.8464 111.029 32.6161 111.029 32.3423H111.085ZM111.87 32.3423C111.87 32.6161 111.969 32.8464 112.168 33.0331C112.38 33.2199 112.623 33.3132 112.897 33.3132C112.897 33.3132 112.947 33.3132 113.046 33.3132C113.158 33.3132 113.214 33.3132 113.214 33.3132V33.4999H111.814V32.3423H111.87ZM111.048 22.0166L111.851 23.0622L111.87 33.4999H111.029V24.3506C111.029 23.7157 110.998 23.168 110.936 22.7074C110.886 22.2468 110.861 22.0166 110.861 22.0166H111.048ZM121.579 22.2967V31.3713C121.579 31.7696 121.592 32.1555 121.617 32.529C121.641 32.89 121.667 33.1887 121.691 33.4252C121.729 33.6493 121.747 33.7613 121.747 33.7613H121.579L120.758 32.7717V22.2967H121.579ZM121.523 23.4543V22.2967H122.924V22.4834C122.924 22.4834 122.868 22.4834 122.756 22.4834C122.656 22.4834 122.606 22.4834 122.606 22.4834C122.332 22.4834 122.089 22.5767 121.878 22.7635C121.679 22.9502 121.579 23.1805 121.579 23.4543H121.523ZM120.758 23.4543C120.745 23.1805 120.64 22.9502 120.44 22.7635C120.241 22.5767 119.998 22.4834 119.712 22.4834C119.712 22.4834 119.656 22.4834 119.544 22.4834C119.445 22.4834 119.395 22.4834 119.395 22.4834V22.2967H120.795V23.4543H120.758ZM129.856 22.0352L134.991 33.3879H133.516L129.539 23.6971L129.856 22.0352ZM126.253 32.1369C126.116 32.5103 126.135 32.8029 126.309 33.0145C126.483 33.2136 126.682 33.3132 126.906 33.3132H127.056V33.4999H123.489V33.3132C123.489 33.3132 123.514 33.3132 123.564 33.3132C123.614 33.3132 123.639 33.3132 123.639 33.3132C123.9 33.3132 124.168 33.2261 124.442 33.0518C124.716 32.8651 124.952 32.5601 125.151 32.1369H126.253ZM129.856 22.0352L129.987 23.3236L125.711 33.4439H124.535L128.96 23.9585C128.96 23.9585 128.991 23.8838 129.054 23.7344C129.128 23.585 129.209 23.4045 129.296 23.1929C129.396 22.9689 129.483 22.751 129.558 22.5394C129.632 22.3278 129.676 22.1597 129.688 22.0352H129.856ZM132.06 29.1493V29.7095H127.112V29.1493H132.06ZM133.012 32.1369H134.431C134.618 32.5601 134.848 32.8651 135.122 33.0518C135.396 33.2261 135.657 33.3132 135.906 33.3132C135.906 33.3132 135.931 33.3132 135.981 33.3132C136.031 33.3132 136.056 33.3132 136.056 33.3132V33.4999H132.228V33.3132H132.377C132.589 33.3132 132.782 33.2136 132.956 33.0145C133.131 32.8029 133.149 32.5103 133.012 32.1369ZM146.028 26.3112L151.331 32.5477C151.592 32.7966 151.854 32.9833 152.115 33.1078C152.389 33.2323 152.719 33.3007 153.105 33.3132V33.4999H152.302C152.178 33.4999 151.997 33.4937 151.76 33.4813C151.536 33.4564 151.288 33.4128 151.014 33.3506C150.752 33.2759 150.485 33.17 150.211 33.0331C149.949 32.8838 149.713 32.6846 149.501 32.4356C149.501 32.4356 149.389 32.3049 149.165 32.0435C148.954 31.7821 148.674 31.446 148.325 31.0352C147.989 30.6244 147.628 30.1888 147.242 29.7282C146.868 29.2552 146.508 28.8132 146.159 28.4024C145.823 27.9917 145.543 27.6556 145.319 27.3941C145.107 27.1327 145.001 27.002 145.001 27.002L146.028 26.3112ZM151.424 20.5601L145.841 27.002H145.001L150.136 20.5601H151.424ZM152.713 20.4294V20.5975H152.638C152.227 20.5975 151.842 20.6784 151.48 20.8402C151.132 21.0021 150.833 21.2261 150.584 21.5124L149.408 21.4751C149.57 21.2635 149.595 21.0643 149.482 20.8776C149.383 20.6909 149.209 20.5975 148.96 20.5975H148.773V20.4294H152.638H152.713ZM144.404 20.4294V33.4999H143.19V20.4294H144.404ZM143.246 32.1369V33.4999H141.752V33.3132C141.752 33.3132 141.79 33.3132 141.864 33.3132C141.952 33.3132 141.995 33.3132 141.995 33.3132C142.319 33.3132 142.592 33.2012 142.817 32.9771C143.053 32.7406 143.178 32.4605 143.19 32.1369H143.246ZM143.246 21.7925H143.19C143.178 21.4689 143.053 21.195 142.817 20.9709C142.592 20.7344 142.319 20.6162 141.995 20.6162C141.995 20.6162 141.952 20.6162 141.864 20.6162C141.79 20.6162 141.752 20.6162 141.752 20.6162V20.4294H143.246V21.7925ZM144.348 32.1369H144.404C144.416 32.4605 144.534 32.7406 144.758 32.9771C144.995 33.2012 145.275 33.3132 145.599 33.3132C145.599 33.3132 145.636 33.3132 145.711 33.3132C145.785 33.3132 145.829 33.3132 145.841 33.3132V33.4999H144.348V32.1369ZM144.348 21.7925V20.4294H145.841V20.6162C145.829 20.6162 145.785 20.6162 145.711 20.6162C145.636 20.6162 145.599 20.6162 145.599 20.6162C145.275 20.6162 144.995 20.7344 144.758 20.9709C144.534 21.195 144.416 21.4689 144.404 21.7925H144.348ZM159.383 22.0352C160.254 22.0352 161.069 22.1784 161.829 22.4647C162.6 22.7386 163.272 23.1369 163.845 23.6597C164.43 24.1825 164.884 24.8049 165.208 25.5269C165.532 26.2365 165.694 27.0269 165.694 27.8983C165.694 28.7697 165.532 29.5663 165.208 30.2883C164.884 30.9979 164.43 31.614 163.845 32.1369C163.272 32.6597 162.6 33.0643 161.829 33.3506C161.069 33.6244 160.254 33.7613 159.383 33.7613C158.511 33.7613 157.695 33.6244 156.937 33.3506C156.177 33.0643 155.505 32.6597 154.92 32.1369C154.347 31.614 153.899 30.9979 153.576 30.2883C153.252 29.5663 153.09 28.7697 153.09 27.8983C153.09 27.0269 153.252 26.2365 153.576 25.5269C153.899 24.8049 154.347 24.1825 154.92 23.6597C155.505 23.1369 156.177 22.7386 156.937 22.4647C157.695 22.1784 158.511 22.0352 159.383 22.0352ZM159.383 33.2012C160.304 33.2012 161.138 32.9771 161.885 32.529C162.632 32.0809 163.222 31.4585 163.658 30.6618C164.094 29.8651 164.312 28.9439 164.312 27.8983C164.312 26.8402 164.094 25.9191 163.658 25.1348C163.222 24.3381 162.632 23.7157 161.885 23.2676C161.138 22.8195 160.304 22.5954 159.383 22.5954C158.474 22.5954 157.646 22.8195 156.899 23.2676C156.152 23.7157 155.561 24.3381 155.125 25.1348C154.689 25.9191 154.472 26.8402 154.472 27.8983C154.472 28.9439 154.689 29.8651 155.125 30.6618C155.561 31.4585 156.152 32.0809 156.899 32.529C157.646 32.9771 158.474 33.2012 159.383 33.2012ZM179.467 22.0352L179.635 23.2489L175.266 31.8568C175.266 31.8568 175.216 31.9626 175.117 32.1742C175.029 32.3858 174.936 32.641 174.837 32.9398C174.737 33.2261 174.662 33.4999 174.612 33.7613H174.426L174.164 32.585L179.467 22.0352ZM168.525 32.2489V33.4999H166.583V33.3132C166.583 33.3132 166.627 33.3132 166.714 33.3132C166.814 33.3132 166.863 33.3132 166.863 33.3132C167.187 33.3132 167.467 33.2199 167.704 33.0331C167.953 32.8464 168.096 32.585 168.133 32.2489H168.525ZM169.085 32.529C169.073 32.7157 169.116 32.8962 169.216 33.0705C169.316 33.2323 169.502 33.3194 169.776 33.3319H170.038V33.4999H168.973V32.529H169.085ZM169.59 22.0352H169.776L170.15 23.1369L168.992 33.4999H167.965L169.59 22.0352ZM169.776 22.0352L174.855 31.8008L174.426 33.7613L169.422 24.0892L169.776 22.0352ZM179.635 22.0352L181.316 33.4999H179.897L178.683 24.1079L179.467 22.0352H179.635ZM180.756 32.2489H181.129C181.178 32.585 181.328 32.8464 181.577 33.0331C181.826 33.2199 182.106 33.3132 182.417 33.3132C182.417 33.3132 182.461 33.3132 182.548 33.3132C182.647 33.3132 182.697 33.3132 182.697 33.3132V33.4999H180.756V32.2489ZM179.766 32.529H179.897V33.4999H178.814V33.3319H179.094C179.38 33.3194 179.567 33.2261 179.654 33.0518C179.753 32.8775 179.791 32.7032 179.766 32.529ZM186.393 22.2967V33.4999H185.198V22.2967H186.393ZM191.416 32.9211L191.378 33.4999H186.356V32.9211H191.416ZM190.538 27.6182V28.1784H186.356V27.6182H190.538ZM191.397 22.2967V22.8755H186.356V22.2967H191.397ZM192.461 30.8298L191.434 33.4999H188.596L189.231 32.9211C189.854 32.9211 190.351 32.8339 190.725 32.6597C191.111 32.473 191.422 32.224 191.658 31.9128C191.895 31.5892 192.101 31.2281 192.275 30.8298H192.461ZM190.538 28.141V29.2053H190.333V28.9626C190.333 28.751 190.271 28.5705 190.146 28.4211C190.022 28.2593 189.829 28.1784 189.567 28.1784V28.141H190.538ZM190.538 26.5912V27.6556H189.567V27.6182C189.829 27.6182 190.022 27.5435 190.146 27.3941C190.271 27.2323 190.333 27.0456 190.333 26.834V26.5912H190.538ZM191.397 22.8195V24.1079H191.192V23.8278C191.192 23.5664 191.105 23.3423 190.93 23.1556C190.769 22.9689 190.545 22.8755 190.258 22.8755V22.8195H191.397ZM191.397 21.9979V22.4834L189.268 22.2967C189.654 22.2967 190.065 22.2655 190.501 22.2033C190.937 22.1286 191.236 22.0601 191.397 21.9979ZM185.235 32.3049L185.478 33.4999H183.853V33.3132C183.853 33.3132 183.897 33.3132 183.984 33.3132C184.072 33.3132 184.115 33.3132 184.115 33.3132C184.426 33.3132 184.682 33.2136 184.88 33.0145C185.08 32.8153 185.186 32.5788 185.198 32.3049H185.235ZM185.235 23.473H185.198C185.186 23.1867 185.08 22.9502 184.88 22.7635C184.682 22.5767 184.426 22.4834 184.115 22.4834C184.115 22.4834 184.072 22.4834 183.984 22.4834C183.897 22.4834 183.853 22.4834 183.853 22.4834V22.2967H185.478L185.235 23.473ZM195.036 22.0166L205.381 31.7634L205.568 33.7613L195.223 23.9585L195.036 22.0166ZM195.074 32.3423V33.4999H193.673V33.3132C193.673 33.3132 193.723 33.3132 193.823 33.3132C193.935 33.3132 193.991 33.3132 193.991 33.3132C194.277 33.3132 194.52 33.2199 194.719 33.0331C194.918 32.8464 195.018 32.6161 195.018 32.3423H195.074ZM195.858 32.3423C195.858 32.6161 195.957 32.8464 196.157 33.0331C196.368 33.2199 196.611 33.3132 196.885 33.3132C196.885 33.3132 196.934 33.3132 197.034 33.3132C197.146 33.3132 197.202 33.3132 197.202 33.3132V33.4999H195.802V32.3423H195.858ZM195.036 22.0166L195.839 23.0622L195.858 33.4999H195.018V24.3506C195.018 23.7157 194.986 23.168 194.924 22.7074C194.874 22.2468 194.85 22.0166 194.85 22.0166H195.036ZM205.568 22.2967V31.3713C205.568 31.7696 205.58 32.1555 205.605 32.529C205.63 32.89 205.654 33.1887 205.68 33.4252C205.717 33.6493 205.736 33.7613 205.736 33.7613H205.568L204.746 32.7717V22.2967H205.568ZM205.512 23.4543V22.2967H206.912V22.4834C206.912 22.4834 206.856 22.4834 206.744 22.4834C206.644 22.4834 206.595 22.4834 206.595 22.4834C206.32 22.4834 206.078 22.5767 205.866 22.7635C205.667 22.9502 205.568 23.1805 205.568 23.4543H205.512ZM204.746 23.4543C204.733 23.1805 204.627 22.9502 204.429 22.7635C204.229 22.5767 203.986 22.4834 203.7 22.4834C203.7 22.4834 203.644 22.4834 203.532 22.4834C203.432 22.4834 203.383 22.4834 203.383 22.4834V22.2967H204.783V23.4543H204.746ZM214.834 22.2967C216.067 22.2967 217.131 22.5207 218.027 22.9689C218.924 23.417 219.614 24.0643 220.1 24.9108C220.585 25.7448 220.828 26.7406 220.828 27.8983C220.828 29.056 220.585 30.0518 220.1 30.8858C219.614 31.7199 218.924 32.3671 218.027 32.8277C217.131 33.2759 216.067 33.4999 214.834 33.4999H210.857L210.82 32.9398C211.691 32.9398 212.42 32.9398 213.005 32.9398C213.602 32.9398 214.056 32.9398 214.368 32.9398C214.679 32.9398 214.834 32.9398 214.834 32.9398C216.278 32.9398 217.411 32.4916 218.233 31.5954C219.067 30.6866 219.484 29.4543 219.484 27.8983C219.484 26.3423 219.067 25.1161 218.233 24.2199C217.411 23.3112 216.278 22.8568 214.834 22.8568C214.834 22.8568 214.672 22.8568 214.349 22.8568C214.025 22.8568 213.552 22.8568 212.93 22.8568C212.308 22.8568 211.542 22.8568 210.633 22.8568V22.2967H214.834ZM211.119 22.2967V33.4999H209.905V22.2967H211.119ZM209.942 32.2862V33.4999H208.598V33.3132C208.598 33.3132 208.635 33.3132 208.71 33.3132C208.797 33.3132 208.841 33.3132 208.841 33.3132C209.139 33.3132 209.388 33.2136 209.588 33.0145C209.787 32.8029 209.892 32.5601 209.905 32.2862H209.942ZM209.942 23.5103H209.905C209.892 23.2116 209.78 22.9689 209.569 22.7821C209.369 22.5829 209.121 22.4834 208.822 22.4834C208.822 22.4834 208.785 22.4834 208.71 22.4834C208.635 22.4834 208.598 22.4834 208.598 22.4834V22.2967H209.942V23.5103ZM227.758 22.0352L232.893 33.3879H231.417L227.44 23.6971L227.758 22.0352ZM224.154 32.1369C224.017 32.5103 224.035 32.8029 224.21 33.0145C224.384 33.2136 224.583 33.3132 224.808 33.3132H224.957V33.4999H221.391V33.3132C221.391 33.3132 221.415 33.3132 221.465 33.3132C221.515 33.3132 221.54 33.3132 221.54 33.3132C221.801 33.3132 222.069 33.2261 222.343 33.0518C222.616 32.8651 222.853 32.5601 223.052 32.1369H224.154ZM227.758 22.0352L227.888 23.3236L223.613 33.4439H222.436L226.861 23.9585C226.861 23.9585 226.892 23.8838 226.955 23.7344C227.029 23.585 227.11 23.4045 227.198 23.1929C227.297 22.9689 227.384 22.751 227.459 22.5394C227.534 22.3278 227.577 22.1597 227.59 22.0352H227.758ZM229.961 29.1493V29.7095H225.013V29.1493H229.961ZM230.913 32.1369H232.332C232.519 32.5601 232.749 32.8651 233.023 33.0518C233.297 33.2261 233.558 33.3132 233.807 33.3132C233.807 33.3132 233.832 33.3132 233.882 33.3132C233.932 33.3132 233.957 33.3132 233.957 33.3132V33.4999H230.129V33.3132H230.278C230.49 33.3132 230.683 33.2136 230.857 33.0145C231.031 32.8029 231.05 32.5103 230.913 32.1369Z" fill="#70521D"/>
<path d="M63.3523 40.9305L66.7836 44.9659C66.9528 45.127 67.1219 45.2478 67.2911 45.3284C67.4684 45.4089 67.6815 45.4532 67.9314 45.4613V45.5821H67.4119C67.3312 45.5821 67.2147 45.5781 67.0615 45.57C66.9165 45.5539 66.7556 45.5257 66.5782 45.4854C66.4091 45.4371 66.2361 45.3686 66.0587 45.28C65.8896 45.1834 65.7363 45.0545 65.5996 44.8934C65.5996 44.8934 65.5271 44.8088 65.3821 44.6397C65.2454 44.4705 65.0641 44.2531 64.8384 43.9873C64.621 43.7215 64.3875 43.4396 64.1377 43.1415C63.896 42.8355 63.6626 42.5495 63.4369 42.2837C63.2194 42.0179 63.0382 41.8004 62.8932 41.6313C62.7565 41.4621 62.6878 41.3776 62.6878 41.3776L63.3523 40.9305ZM66.844 37.2093L63.2315 41.3776H62.6878L66.0104 37.2093H66.844ZM67.6777 37.1247V37.2334H67.6294C67.3636 37.2334 67.1137 37.2858 66.8803 37.3905C66.6546 37.4952 66.4613 37.6402 66.3003 37.8255L65.5392 37.8013C65.6441 37.6644 65.66 37.5355 65.5875 37.4147C65.5233 37.2939 65.4101 37.2334 65.2492 37.2334H65.1284V37.1247H67.6294H67.6777ZM62.3012 37.1247V45.5821H61.5159V37.1247H62.3012ZM61.5521 44.7001V45.5821H60.5856V45.4613C60.5856 45.4613 60.6097 45.4613 60.6581 45.4613C60.7146 45.4613 60.7426 45.4613 60.7426 45.4613C60.9519 45.4613 61.1293 45.3888 61.2742 45.2438C61.4275 45.0907 61.5076 44.9095 61.5159 44.7001H61.5521ZM61.5521 38.0067H61.5159C61.5076 37.7973 61.4275 37.6201 61.2742 37.4751C61.1293 37.322 60.9519 37.2455 60.7426 37.2455C60.7426 37.2455 60.7146 37.2455 60.6581 37.2455C60.6097 37.2455 60.5856 37.2455 60.5856 37.2455V37.1247H61.5521V38.0067ZM62.265 44.7001H62.3012C62.3094 44.9095 62.3858 45.0907 62.5308 45.2438C62.684 45.3888 62.8652 45.4613 63.0745 45.4613C63.0745 45.4613 63.0986 45.4613 63.1469 45.4613C63.1953 45.4613 63.2233 45.4613 63.2315 45.4613V45.5821H62.265V44.7001ZM62.265 38.0067V37.1247H63.2315V37.2455C63.2233 37.2455 63.1953 37.2455 63.1469 37.2455C63.0986 37.2455 63.0745 37.2455 63.0745 37.2455C62.8652 37.2455 62.684 37.322 62.5308 37.4751C62.3858 37.6201 62.3094 37.7973 62.3012 38.0067H62.265ZM71.8608 38.1638L75.1833 45.5096H74.2289L71.6554 39.2391L71.8608 38.1638ZM69.529 44.7001C69.4406 44.9417 69.4526 45.1311 69.5652 45.268C69.6778 45.3969 69.8069 45.4613 69.9518 45.4613H70.0485V45.5821H67.7408V45.4613C67.7408 45.4613 67.7568 45.4613 67.7892 45.4613C67.8216 45.4613 67.8375 45.4613 67.8375 45.4613C68.0066 45.4613 68.1796 45.4049 68.357 45.2921C68.5344 45.1713 68.6871 44.974 68.8161 44.7001H69.529ZM71.8608 38.1638L71.9454 38.9974L69.1786 45.5458H68.4174L71.2809 39.4082C71.2809 39.4082 71.3012 39.3599 71.3413 39.2632C71.3896 39.1666 71.4418 39.0498 71.4983 38.9128C71.5626 38.7679 71.6191 38.6269 71.6675 38.49C71.7158 38.3531 71.7438 38.2443 71.7521 38.1638H71.8608ZM73.2865 42.767V43.1294H70.0847V42.767H73.2865ZM73.9026 44.7001H74.8209C74.9417 44.974 75.0905 45.1713 75.2679 45.2921C75.4453 45.4049 75.6144 45.4613 75.7754 45.4613C75.7754 45.4613 75.7913 45.4613 75.8237 45.4613C75.8561 45.4613 75.872 45.4613 75.872 45.4613V45.5821H73.3952V45.4613H73.4919C73.6286 45.4613 73.7538 45.3969 73.8664 45.268C73.979 45.1311 73.9911 44.9417 73.9026 44.7001ZM77.1175 38.1517L83.811 44.4585L83.9318 45.7512L77.2384 39.4082L77.1175 38.1517ZM77.1417 44.833V45.5821H76.2356V45.4613C76.2356 45.4613 76.268 45.4613 76.3322 45.4613C76.4047 45.4613 76.441 45.4613 76.441 45.4613C76.626 45.4613 76.7831 45.4009 76.9122 45.28C77.0412 45.1592 77.1055 45.0102 77.1055 44.833H77.1417ZM77.6492 44.833C77.6492 45.0102 77.7134 45.1592 77.8425 45.28C77.9792 45.4009 78.1363 45.4613 78.3137 45.4613C78.3137 45.4613 78.3461 45.4613 78.4103 45.4613C78.4828 45.4613 78.5191 45.4613 78.5191 45.4613V45.5821H77.6129V44.833H77.6492ZM77.1175 38.1517L77.6371 38.8283L77.6492 45.5821H77.1055V39.6619C77.1055 39.2511 77.0851 38.8968 77.0451 38.5987C77.0127 38.3007 76.9967 38.1517 76.9967 38.1517H77.1175ZM83.9318 38.3329V44.2047C83.9318 44.4625 83.94 44.7122 83.9559 44.9538C83.9719 45.1874 83.9883 45.3807 84.0043 45.5338C84.0284 45.6787 84.0405 45.7512 84.0405 45.7512H83.9318L83.4002 45.1109V38.3329H83.9318ZM83.8955 39.082V38.3329H84.8017V38.4537C84.8017 38.4537 84.7654 38.4537 84.6929 38.4537C84.6287 38.4537 84.5963 38.4537 84.5963 38.4537C84.4189 38.4537 84.2618 38.5141 84.1251 38.635C83.996 38.7558 83.9318 38.9048 83.9318 39.082H83.8955ZM83.4002 39.082C83.3919 38.9048 83.3238 38.7558 83.1948 38.635C83.0657 38.5141 82.9087 38.4537 82.7236 38.4537C82.7236 38.4537 82.6873 38.4537 82.6148 38.4537C82.5506 38.4537 82.5182 38.4537 82.5182 38.4537V38.3329H83.4243V39.082H83.4002ZM93.2157 42.5374L93.0828 44.1927C92.8735 44.5149 92.5995 44.7928 92.2612 45.0263C91.9229 45.2599 91.5401 45.4411 91.1134 45.57C90.6867 45.6908 90.2353 45.7512 89.7602 45.7512C88.9469 45.7432 88.2379 45.5861 87.6338 45.28C87.0379 44.974 86.5788 44.539 86.2565 43.9752C85.9341 43.4113 85.7732 42.7388 85.7732 41.9575C85.7732 41.1682 85.9341 40.4916 86.2565 39.9277C86.5788 39.3639 87.0379 38.9289 87.6338 38.6229C88.2379 38.3168 88.9469 38.1638 89.7602 38.1638C90.2594 38.1638 90.763 38.2282 91.2705 38.3571C91.7779 38.486 92.2167 38.6672 92.5874 38.9008L92.8532 40.6043H92.7445C92.5671 39.8633 92.209 39.3317 91.6692 39.0095C91.1376 38.6873 90.4972 38.5262 89.7481 38.5262C89.1116 38.5262 88.5603 38.6672 88.0929 38.9491C87.6338 39.223 87.2752 39.6176 87.0176 40.1331C86.7677 40.6406 86.6431 41.2487 86.6431 41.9575C86.6431 42.6502 86.7677 43.2543 87.0176 43.7698C87.2752 44.2772 87.6376 44.6719 88.105 44.9538C88.5723 45.2277 89.1237 45.3686 89.7602 45.3767C90.3643 45.3767 90.908 45.28 91.3913 45.0867C91.8828 44.8853 92.2815 44.5753 92.5874 44.1564C92.8933 43.7376 93.0668 43.1979 93.1069 42.5374H93.2157ZM95.9956 38.3329V45.5821H95.2224V38.3329H95.9956ZM99.2457 45.2076L99.2215 45.5821H95.9715V45.2076H99.2457ZM98.6778 41.7763V42.1387H95.9715V41.7763H98.6778ZM99.2336 38.3329V38.7075H95.9715V38.3329H99.2336ZM99.9223 43.8544L99.2578 45.5821H97.4213L97.8321 45.2076C98.2346 45.2076 98.557 45.1512 98.7986 45.0384C99.048 44.9176 99.2495 44.7565 99.4027 44.5551C99.5554 44.3457 99.6883 44.1121 99.8014 43.8544H99.9223ZM98.6778 42.1146V42.8032H98.5449V42.6462C98.5449 42.5093 98.5043 42.3925 98.4241 42.2958C98.3434 42.1911 98.2187 42.1387 98.0496 42.1387V42.1146H98.6778ZM98.6778 41.1118V41.8004H98.0496V41.7763C98.2187 41.7763 98.3434 41.7279 98.4241 41.6313C98.5043 41.5266 98.5449 41.4057 98.5449 41.2688V41.1118H98.6778ZM99.2336 38.6712V39.5049H99.1007V39.3236C99.1007 39.1545 99.0441 39.0095 98.9315 38.8887C98.8266 38.7679 98.6817 38.7075 98.4966 38.7075V38.6712H99.2336ZM99.2336 38.1396V38.4537L97.8562 38.3329C98.1056 38.3329 98.3714 38.3128 98.6537 38.2725C98.9354 38.2242 99.1287 38.1799 99.2336 38.1396ZM95.2465 44.8088L95.4036 45.5821H94.3525V45.4613C94.3525 45.4613 94.3805 45.4613 94.437 45.4613C94.4931 45.4613 94.5216 45.4613 94.5216 45.4613C94.7226 45.4613 94.8879 45.3969 95.017 45.268C95.1455 45.1391 95.2141 44.9861 95.2224 44.8088H95.2465ZM95.2465 39.0941H95.2224C95.2141 38.9088 95.1455 38.7558 95.017 38.635C94.8879 38.5141 94.7226 38.4537 94.5216 38.4537C94.5216 38.4537 94.4931 38.4537 94.437 38.4537C94.3805 38.4537 94.3525 38.4537 94.3525 38.4537V38.3329H95.4036L95.2465 39.0941ZM102.473 38.3329V45.5821H101.7V38.3329H102.473ZM105.723 45.2076L105.699 45.5821H102.449V45.2076H105.723ZM106.4 43.8544L105.735 45.5821H103.899L104.31 45.2076C104.712 45.2076 105.035 45.1512 105.276 45.0384C105.526 44.9176 105.727 44.7565 105.88 44.5551C106.033 44.3457 106.166 44.1121 106.279 43.8544H106.4ZM101.724 44.8088L101.881 45.5821H100.83V45.4613C100.83 45.4613 100.858 45.4613 100.915 45.4613C100.971 45.4613 100.999 45.4613 100.999 45.4613C101.2 45.4613 101.366 45.3969 101.495 45.268C101.623 45.1391 101.692 44.9861 101.7 44.8088H101.724ZM102.437 39.1062V38.3329H103.331V38.4537C103.331 38.4537 103.307 38.4537 103.259 38.4537C103.21 38.4537 103.186 38.4537 103.186 38.4537C102.993 38.4537 102.824 38.5182 102.679 38.647C102.541 38.7679 102.473 38.9209 102.473 39.1062H102.437ZM101.724 39.1062H101.7C101.692 38.9209 101.619 38.7679 101.482 38.647C101.345 38.5182 101.176 38.4537 100.975 38.4537C100.975 38.4537 100.951 38.4537 100.903 38.4537C100.854 38.4537 100.83 38.4537 100.83 38.4537V38.3329H101.724V39.1062ZM110.703 38.1638L114.025 45.5096H113.071L110.497 39.2391L110.703 38.1638ZM108.371 44.7001C108.282 44.9417 108.294 45.1311 108.407 45.268C108.52 45.3969 108.649 45.4613 108.794 45.4613H108.89V45.5821H106.583V45.4613C106.583 45.4613 106.599 45.4613 106.631 45.4613C106.663 45.4613 106.679 45.4613 106.679 45.4613C106.849 45.4613 107.022 45.4049 107.199 45.2921C107.376 45.1713 107.529 44.974 107.658 44.7001H108.371ZM110.703 38.1638L110.787 38.9974L108.02 45.5458H107.259L110.123 39.4082C110.123 39.4082 110.143 39.3599 110.183 39.2632C110.231 39.1666 110.284 39.0498 110.34 38.9128C110.404 38.7679 110.461 38.6269 110.509 38.49C110.558 38.3531 110.586 38.2443 110.594 38.1638H110.703ZM112.128 42.767V43.1294H108.927V42.767H112.128ZM112.745 44.7001H113.663C113.784 44.974 113.932 45.1713 114.11 45.2921C114.287 45.4049 114.456 45.4613 114.617 45.4613C114.617 45.4613 114.633 45.4613 114.666 45.4613C114.697 45.4613 114.714 45.4613 114.714 45.4613V45.5821H112.237V45.4613H112.334C112.47 45.4613 112.595 45.3969 112.708 45.268C112.821 45.1311 112.833 44.9417 112.745 44.7001ZM116.793 38.3329H118.351C118.73 38.3329 119.068 38.3772 119.366 38.4658C119.672 38.5544 119.93 38.6833 120.139 38.8524C120.357 39.0216 120.522 39.227 120.635 39.4686C120.748 39.7103 120.804 39.9841 120.804 40.2902C120.804 40.6285 120.724 40.9426 120.562 41.2326C120.401 41.5226 120.175 41.7602 119.886 41.9454C119.604 42.1307 119.281 42.2435 118.919 42.2837C119.056 42.3401 119.213 42.4649 119.39 42.6583C119.576 42.8516 119.733 43.0409 119.861 43.2261C119.861 43.2261 119.914 43.2986 120.018 43.4436C120.123 43.5805 120.256 43.7537 120.417 43.9631C120.586 44.1645 120.752 44.3578 120.912 44.543C121.082 44.7283 121.235 44.8894 121.372 45.0263C121.517 45.1632 121.67 45.272 121.831 45.3525C122 45.425 122.193 45.4613 122.411 45.4613V45.5821H122.036C121.593 45.5821 121.227 45.5257 120.937 45.4129C120.655 45.3002 120.425 45.1632 120.248 45.0022C120.071 44.833 119.918 44.6719 119.789 44.5189C119.757 44.4786 119.68 44.3779 119.559 44.2168C119.447 44.0477 119.322 43.8665 119.185 43.6731C119.048 43.4798 118.923 43.3067 118.81 43.1536C118.698 42.9925 118.629 42.8959 118.605 42.8637C118.444 42.6542 118.259 42.469 118.049 42.3079C117.84 42.1387 117.618 42.0542 117.385 42.0542V41.9333C117.385 41.9333 117.449 41.9373 117.578 41.9454C117.707 41.9454 117.872 41.9414 118.073 41.9333C118.299 41.9253 118.525 41.9092 118.75 41.885C118.976 41.8528 119.185 41.7642 119.378 41.6192C119.58 41.4742 119.737 41.2326 119.849 40.8943C119.882 40.8057 119.906 40.701 119.922 40.5802C119.938 40.4593 119.942 40.3345 119.934 40.2056C119.926 39.9801 119.882 39.7787 119.801 39.6015C119.728 39.4243 119.62 39.2713 119.475 39.1424C119.338 39.0135 119.173 38.9128 118.979 38.8404C118.786 38.7679 118.569 38.7276 118.327 38.7195C117.949 38.7034 117.618 38.6994 117.336 38.7075C117.054 38.7155 116.913 38.7155 116.913 38.7075C116.913 38.6994 116.901 38.6672 116.877 38.6108C116.861 38.5464 116.841 38.486 116.817 38.4296C116.801 38.3651 116.793 38.3329 116.793 38.3329ZM116.938 38.3329V45.5821H116.164V38.3329H116.938ZM116.201 44.8088L116.345 45.5821H115.319V45.4613C115.319 45.4613 115.347 45.4613 115.403 45.4613C115.46 45.4613 115.488 45.4613 115.488 45.4613C115.681 45.4613 115.842 45.3969 115.971 45.268C116.1 45.1391 116.169 44.9861 116.176 44.8088H116.201ZM116.201 39.0941H116.176C116.169 38.9088 116.1 38.7558 115.971 38.635C115.842 38.5141 115.681 38.4537 115.488 38.4537C115.488 38.4537 115.46 38.4537 115.403 38.4537C115.347 38.4537 115.319 38.4537 115.319 38.4537V38.3329H116.345L116.201 39.0941ZM116.901 44.8088H116.938C116.946 44.9861 117.014 45.1391 117.143 45.268C117.272 45.3969 117.433 45.4613 117.626 45.4613C117.626 45.4613 117.65 45.4613 117.699 45.4613C117.755 45.4613 117.783 45.4613 117.783 45.4613L117.795 45.5821H116.756L116.901 44.8088ZM124.645 38.3329V45.5821H123.884V38.3329H124.645ZM123.92 44.8088V45.5821H122.893V45.4613C122.893 45.4613 122.922 45.4613 122.978 45.4613C123.035 45.4613 123.063 45.4613 123.063 45.4613C123.288 45.4613 123.478 45.3969 123.63 45.268C123.792 45.1391 123.876 44.9861 123.884 44.8088H123.92ZM124.609 44.8088H124.645C124.654 44.9861 124.734 45.1391 124.887 45.268C125.048 45.3969 125.242 45.4613 125.467 45.4613C125.467 45.4613 125.491 45.4613 125.539 45.4613C125.596 45.4613 125.624 45.4613 125.624 45.4613L125.636 45.5821H124.609V44.8088ZM124.609 39.1062V38.3329H125.636L125.624 38.4537C125.624 38.4537 125.596 38.4537 125.539 38.4537C125.491 38.4537 125.467 38.4537 125.467 38.4537C125.242 38.4537 125.048 38.5182 124.887 38.647C124.734 38.7679 124.654 38.9209 124.645 39.1062H124.609ZM123.92 39.1062H123.884C123.876 38.9209 123.792 38.7679 123.63 38.647C123.478 38.5182 123.288 38.4537 123.063 38.4537C123.055 38.4537 123.022 38.4537 122.966 38.4537C122.918 38.4537 122.893 38.4537 122.893 38.4537V38.3329H123.92V39.1062ZM130.347 38.1638L133.67 45.5096H132.715L130.142 39.2391L130.347 38.1638ZM128.016 44.7001C127.927 44.9417 127.939 45.1311 128.052 45.268C128.164 45.3969 128.293 45.4613 128.438 45.4613H128.535V45.5821H126.227V45.4613C126.227 45.4613 126.243 45.4613 126.276 45.4613C126.308 45.4613 126.324 45.4613 126.324 45.4613C126.493 45.4613 126.666 45.4049 126.844 45.2921C127.021 45.1713 127.174 44.974 127.303 44.7001H128.016ZM130.347 38.1638L130.432 38.9974L127.665 45.5458H126.904L129.767 39.4082C129.767 39.4082 129.788 39.3599 129.828 39.2632C129.876 39.1666 129.928 39.0498 129.985 38.9128C130.049 38.7679 130.106 38.6269 130.154 38.49C130.202 38.3531 130.23 38.2443 130.239 38.1638H130.347ZM131.773 42.767V43.1294H128.571V42.767H131.773ZM132.389 44.7001H133.307C133.428 44.974 133.577 45.1713 133.755 45.2921C133.932 45.4049 134.101 45.4613 134.262 45.4613C134.262 45.4613 134.278 45.4613 134.31 45.4613C134.343 45.4613 134.359 45.4613 134.359 45.4613V45.5821H131.882V45.4613H131.978C132.115 45.4613 132.24 45.3969 132.353 45.268C132.466 45.1311 132.478 44.9417 132.389 44.7001ZM141.657 36.9556L145.233 45.5096H144.207L141.416 38.1034L141.657 36.9556ZM139.06 44.7001C139.003 44.8612 138.995 44.9981 139.035 45.1109C139.076 45.2236 139.14 45.3123 139.229 45.3767C139.325 45.4331 139.422 45.4613 139.519 45.4613H139.627V45.5821H137.199V45.4613C137.199 45.4613 137.219 45.4613 137.259 45.4613C137.292 45.4613 137.308 45.4613 137.308 45.4613C137.493 45.4613 137.682 45.4049 137.876 45.2921C138.077 45.1713 138.242 44.974 138.371 44.7001H139.06ZM141.657 36.9556L141.766 37.8013L138.733 45.5458H138.008L141.101 38.2C141.101 38.2 141.122 38.1517 141.162 38.055C141.21 37.9503 141.262 37.8255 141.319 37.6805C141.383 37.5355 141.436 37.3945 141.476 37.2576C141.524 37.1207 141.548 37.02 141.548 36.9556H141.657ZM143.361 42.2837V42.6462H139.579V42.2837H143.361ZM143.904 44.7001H144.895C145.016 44.974 145.177 45.1713 145.378 45.2921C145.58 45.4049 145.773 45.4613 145.958 45.4613C145.958 45.4613 145.974 45.4613 146.007 45.4613C146.039 45.4613 146.055 45.4613 146.055 45.4613V45.5821H143.337V45.4613H143.445C143.599 45.4613 143.735 45.3969 143.856 45.268C143.977 45.1311 143.993 44.9417 143.904 44.7001ZM150.621 38.3329C151.418 38.3329 152.107 38.4779 152.687 38.7679C153.267 39.0578 153.714 39.4767 154.028 40.0244C154.342 40.5641 154.499 41.2084 154.499 41.9575C154.499 42.7066 154.342 43.3509 154.028 43.8906C153.714 44.4303 153.267 44.8491 152.687 45.1471C152.107 45.4371 151.418 45.5821 150.621 45.5821H148.047L148.023 45.2196C148.587 45.2196 149.059 45.2196 149.437 45.2196C149.824 45.2196 150.117 45.2196 150.319 45.2196C150.52 45.2196 150.621 45.2196 150.621 45.2196C151.555 45.2196 152.288 44.9297 152.82 44.3497C153.36 43.7617 153.629 42.9643 153.629 41.9575C153.629 40.9507 153.36 40.1573 152.82 39.5774C152.288 38.9893 151.555 38.6954 150.621 38.6954C150.621 38.6954 150.516 38.6954 150.307 38.6954C150.098 38.6954 149.791 38.6954 149.389 38.6954C148.986 38.6954 148.491 38.6954 147.902 38.6954V38.3329H150.621ZM148.217 38.3329V45.5821H147.431V38.3329H148.217ZM147.455 44.7968V45.5821H146.586V45.4613C146.586 45.4613 146.61 45.4613 146.658 45.4613C146.715 45.4613 146.743 45.4613 146.743 45.4613C146.936 45.4613 147.097 45.3969 147.226 45.268C147.355 45.1311 147.423 44.974 147.431 44.7968H147.455ZM147.455 39.1182H147.431C147.423 38.9249 147.351 38.7679 147.214 38.647C147.085 38.5182 146.924 38.4537 146.731 38.4537C146.731 38.4537 146.706 38.4537 146.658 38.4537C146.61 38.4537 146.586 38.4537 146.586 38.4537V38.3329H147.455V39.1182ZM155.671 38.4054H156.638L158.595 44.3618L158.486 45.7271L155.671 38.4054ZM160.637 38.1396L160.734 39.1182L158.861 44.386C158.861 44.386 158.841 44.4585 158.8 44.6035C158.76 44.7404 158.716 44.9136 158.668 45.123C158.627 45.3244 158.603 45.5257 158.595 45.7271H158.486L158.257 44.6518L160.516 38.1396H160.637ZM160.637 38.1517L162.957 44.0598L162.679 45.7271L160.226 39.4565L160.637 38.1517ZM165.083 38.4054L163.077 44.386C163.077 44.386 163.053 44.4585 163.005 44.6035C162.965 44.7484 162.92 44.9257 162.872 45.1351C162.832 45.3364 162.808 45.5338 162.8 45.7271H162.679L162.534 44.531L164.394 38.4054H165.083ZM164.153 39.1786C164.241 38.9209 164.233 38.7356 164.129 38.6229C164.032 38.5101 163.919 38.4537 163.79 38.4537H163.694V38.3329H165.905V38.4537C165.905 38.4537 165.889 38.4537 165.856 38.4537C165.832 38.4537 165.82 38.4537 165.82 38.4537C165.57 38.4537 165.361 38.5222 165.192 38.6591C165.023 38.796 164.902 38.9692 164.829 39.1786H164.153ZM156.891 39.1666L155.973 39.1786C155.893 38.9692 155.772 38.796 155.611 38.6591C155.45 38.5222 155.24 38.4537 154.983 38.4537C154.983 38.4537 154.967 38.4537 154.934 38.4537C154.902 38.4537 154.886 38.4537 154.886 38.4537V38.3329H157.375V38.4537H157.278C157.149 38.4537 157.033 38.5101 156.928 38.6229C156.823 38.7276 156.811 38.9088 156.891 39.1666ZM170.407 38.1638C170.971 38.1638 171.499 38.2564 171.99 38.4416C172.489 38.6189 172.924 38.8766 173.294 39.2149C173.673 39.5532 173.967 39.9559 174.176 40.4231C174.386 40.8822 174.491 41.3937 174.491 41.9575C174.491 42.5213 174.386 43.0368 174.176 43.504C173.967 43.9631 173.673 44.3618 173.294 44.7001C172.924 45.0384 172.489 45.3002 171.99 45.4854C171.499 45.6627 170.971 45.7512 170.407 45.7512C169.843 45.7512 169.316 45.6627 168.824 45.4854C168.333 45.3002 167.898 45.0384 167.519 44.7001C167.149 44.3618 166.859 43.9631 166.649 43.504C166.44 43.0368 166.335 42.5213 166.335 41.9575C166.335 41.3937 166.44 40.8822 166.649 40.4231C166.859 39.9559 167.149 39.5532 167.519 39.2149C167.898 38.8766 168.333 38.6189 168.824 38.4416C169.316 38.2564 169.843 38.1638 170.407 38.1638ZM170.407 45.3888C171.003 45.3888 171.543 45.2438 172.026 44.9538C172.509 44.6639 172.892 44.2611 173.174 43.7456C173.456 43.2301 173.596 42.6341 173.596 41.9575C173.596 41.2728 173.456 40.6768 173.174 40.1694C172.892 39.6539 172.509 39.2511 172.026 38.9612C171.543 38.6712 171.003 38.5262 170.407 38.5262C169.819 38.5262 169.283 38.6712 168.8 38.9612C168.317 39.2511 167.934 39.6539 167.652 40.1694C167.37 40.6768 167.229 41.2728 167.229 41.9575C167.229 42.6341 167.37 43.2301 167.652 43.7456C167.934 44.2611 168.317 44.6639 168.8 44.9538C169.283 45.2438 169.819 45.3888 170.407 45.3888ZM178.306 41.5346L181.459 44.9659C181.596 45.127 181.741 45.2478 181.894 45.3284C182.047 45.4089 182.253 45.4532 182.51 45.4613V45.5821H182.063C181.967 45.5821 181.846 45.5781 181.701 45.57C181.564 45.5539 181.411 45.5257 181.242 45.4854C181.081 45.4371 180.915 45.3686 180.746 45.28C180.585 45.1834 180.432 45.0545 180.287 44.8934C180.287 44.8934 180.223 44.8249 180.094 44.688C179.973 44.543 179.812 44.3618 179.611 44.1443C179.409 43.9188 179.191 43.6852 178.958 43.4436C178.732 43.1939 178.519 42.9603 178.318 42.7428C178.116 42.5173 177.951 42.336 177.822 42.1991C177.693 42.0542 177.629 41.9817 177.629 41.9817L178.306 41.5346ZM181.532 38.4175L178.197 41.9817H177.629L180.662 38.4175H181.532ZM182.317 38.3329V38.4537H182.269C182.019 38.4537 181.785 38.494 181.568 38.5745C181.359 38.6551 181.185 38.7759 181.048 38.937L180.227 38.9249C180.315 38.8122 180.327 38.7075 180.263 38.6108C180.206 38.5061 180.106 38.4537 179.961 38.4537H179.852V38.3329H182.269H182.317ZM177.206 38.3329V45.5821H176.433V38.3329H177.206ZM176.457 44.8088V45.5821H175.575V45.4613C175.575 45.4613 175.599 45.4613 175.648 45.4613C175.696 45.4613 175.72 45.4613 175.72 45.4613C175.913 45.4613 176.079 45.3969 176.215 45.268C176.352 45.1391 176.425 44.9861 176.433 44.8088H176.457ZM177.17 44.8088H177.206C177.206 44.9861 177.275 45.1391 177.412 45.268C177.548 45.3969 177.717 45.4613 177.919 45.4613C177.919 45.4613 177.939 45.4613 177.979 45.4613C178.028 45.4613 178.052 45.4613 178.052 45.4613V45.5821H177.17V44.8088ZM177.17 39.1062V38.3329H178.052V38.4537C178.052 38.4537 178.028 38.4537 177.979 38.4537C177.939 38.4537 177.915 38.4537 177.907 38.4537C177.714 38.4537 177.548 38.5182 177.412 38.647C177.275 38.7679 177.206 38.9209 177.206 39.1062H177.17ZM176.457 39.1062H176.433C176.425 38.9209 176.352 38.7679 176.215 38.647C176.079 38.5182 175.913 38.4537 175.72 38.4537C175.72 38.4537 175.696 38.4537 175.648 38.4537C175.599 38.4537 175.575 38.4537 175.575 38.4537V38.3329H176.457V39.1062ZM186.51 38.1638L189.832 45.5096H188.878L186.304 39.2391L186.51 38.1638ZM184.178 44.7001C184.089 44.9417 184.101 45.1311 184.214 45.268C184.327 45.3969 184.456 45.4613 184.601 45.4613H184.698V45.5821H182.39V45.4613C182.39 45.4613 182.406 45.4613 182.438 45.4613C182.47 45.4613 182.487 45.4613 182.487 45.4613C182.656 45.4613 182.829 45.4049 183.006 45.2921C183.183 45.1713 183.336 44.974 183.465 44.7001H184.178ZM186.51 38.1638L186.594 38.9974L183.828 45.5458H183.067L185.93 39.4082C185.93 39.4082 185.95 39.3599 185.99 39.2632C186.039 39.1666 186.091 39.0498 186.147 38.9128C186.212 38.7679 186.268 38.6269 186.317 38.49C186.365 38.3531 186.393 38.2443 186.401 38.1638H186.51ZM187.936 42.767V43.1294H184.734V42.767H187.936ZM188.552 44.7001H189.47C189.591 44.974 189.74 45.1713 189.917 45.2921C190.094 45.4049 190.263 45.4613 190.424 45.4613C190.424 45.4613 190.44 45.4613 190.473 45.4613C190.505 45.4613 190.521 45.4613 190.521 45.4613V45.5821H188.044V45.4613H188.141C188.278 45.4613 188.402 45.3969 188.515 45.268C188.628 45.1311 188.64 44.9417 188.552 44.7001ZM198.331 42.5374L198.198 44.1927C197.989 44.5149 197.715 44.7928 197.377 45.0263C197.038 45.2599 196.656 45.4411 196.229 45.57C195.802 45.6908 195.351 45.7512 194.876 45.7512C194.062 45.7432 193.353 45.5861 192.749 45.28C192.153 44.974 191.694 44.539 191.372 43.9752C191.05 43.4113 190.888 42.7388 190.888 41.9575C190.888 41.1682 191.05 40.4916 191.372 39.9277C191.694 39.3639 192.153 38.9289 192.749 38.6229C193.353 38.3168 194.062 38.1638 194.876 38.1638C195.375 38.1638 195.878 38.2282 196.386 38.3571C196.893 38.486 197.333 38.6672 197.703 38.9008L197.969 40.6043H197.86C197.683 39.8633 197.324 39.3317 196.784 39.0095C196.253 38.6873 195.613 38.5262 194.863 38.5262C194.227 38.5262 193.676 38.6672 193.208 38.9491C192.749 39.223 192.391 39.6176 192.133 40.1331C191.884 40.6406 191.758 41.2487 191.758 41.9575C191.758 42.6502 191.884 43.2543 192.133 43.7698C192.391 44.2772 192.754 44.6719 193.22 44.9538C193.688 45.2277 194.24 45.3686 194.876 45.3767C195.48 45.3767 196.023 45.28 196.507 45.0867C196.998 44.8853 197.397 44.5753 197.703 44.1564C198.009 43.7376 198.182 43.1979 198.222 42.5374H198.331ZM202.198 41.5346L205.352 44.9659C205.488 45.127 205.633 45.2478 205.787 45.3284C205.94 45.4089 206.145 45.4532 206.403 45.4613V45.5821H205.956C205.859 45.5821 205.738 45.5781 205.593 45.57C205.457 45.5539 205.303 45.5257 205.134 45.4854C204.973 45.4371 204.808 45.3686 204.639 45.28C204.478 45.1834 204.325 45.0545 204.18 44.8934C204.18 44.8934 204.115 44.8249 203.986 44.688C203.866 44.543 203.705 44.3618 203.503 44.1443C203.302 43.9188 203.084 43.6852 202.851 43.4436C202.625 43.1939 202.412 42.9603 202.21 42.7428C202.009 42.5173 201.844 42.336 201.715 42.1991C201.586 42.0542 201.522 41.9817 201.522 41.9817L202.198 41.5346ZM205.424 38.4175L202.09 41.9817H201.522L204.554 38.4175H205.424ZM206.21 38.3329V38.4537H206.161C205.911 38.4537 205.678 38.494 205.46 38.5745C205.251 38.6551 205.078 38.7759 204.941 38.937L204.119 38.9249C204.208 38.8122 204.22 38.7075 204.156 38.6108C204.099 38.5061 203.999 38.4537 203.854 38.4537H203.745V38.3329H206.161H206.21ZM201.099 38.3329V45.5821H200.326V38.3329H201.099ZM200.35 44.8088V45.5821H199.468V45.4613C199.468 45.4613 199.492 45.4613 199.54 45.4613C199.589 45.4613 199.613 45.4613 199.613 45.4613C199.806 45.4613 199.971 45.3969 200.108 45.268C200.245 45.1391 200.317 44.9861 200.326 44.8088H200.35ZM201.063 44.8088H201.099C201.099 44.9861 201.167 45.1391 201.304 45.268C201.441 45.3969 201.61 45.4613 201.812 45.4613C201.812 45.4613 201.832 45.4613 201.872 45.4613C201.92 45.4613 201.945 45.4613 201.945 45.4613V45.5821H201.063V44.8088ZM201.063 39.1062V38.3329H201.945V38.4537C201.945 38.4537 201.92 38.4537 201.872 38.4537C201.832 38.4537 201.808 38.4537 201.8 38.4537C201.606 38.4537 201.441 38.5182 201.304 38.647C201.167 38.7679 201.099 38.9209 201.099 39.1062H201.063ZM200.35 39.1062H200.326C200.317 38.9209 200.245 38.7679 200.108 38.647C199.971 38.5182 199.806 38.4537 199.613 38.4537C199.613 38.4537 199.589 38.4537 199.54 38.4537C199.492 38.4537 199.468 38.4537 199.468 38.4537V38.3329H200.35V39.1062ZM210.403 38.1638L213.725 45.5096H212.771L210.197 39.2391L210.403 38.1638ZM208.071 44.7001C207.982 44.9417 207.994 45.1311 208.107 45.268C208.22 45.3969 208.349 45.4613 208.494 45.4613H208.59V45.5821H206.283V45.4613C206.283 45.4613 206.298 45.4613 206.331 45.4613C206.363 45.4613 206.379 45.4613 206.379 45.4613C206.548 45.4613 206.721 45.4049 206.899 45.2921C207.076 45.1713 207.229 44.974 207.358 44.7001H208.071ZM210.403 38.1638L210.487 38.9974L207.72 45.5458H206.959L209.823 39.4082C209.823 39.4082 209.842 39.3599 209.883 39.2632C209.931 39.1666 209.983 39.0498 210.04 38.9128C210.104 38.7679 210.161 38.6269 210.209 38.49C210.258 38.3531 210.286 38.2443 210.294 38.1638H210.403ZM211.828 42.767V43.1294H208.626V42.767H211.828ZM212.444 44.7001H213.363C213.483 44.974 213.632 45.1713 213.81 45.2921C213.986 45.4049 214.156 45.4613 214.317 45.4613C214.317 45.4613 214.333 45.4613 214.365 45.4613C214.397 45.4613 214.414 45.4613 214.414 45.4613V45.5821H211.937V45.4613H212.034C212.17 45.4613 212.295 45.3969 212.408 45.268C212.521 45.1311 212.533 44.9417 212.444 44.7001Z" fill="#70521D"/>
<path fill-rule="evenodd" clip-rule="evenodd" d="M60.7481 52.034C54.8171 60.7366 44.8259 66.4508 33.5 66.4508C15.3018 66.4508 0.54918 51.6982 0.54918 33.5C0.54918 15.3018 15.3018 0.54918 33.5 0.54918C44.8259 0.54918 54.8171 6.26335 60.7481 14.966C60.8569 14.8022 60.9673 14.6394 61.0793 14.4778C55.035 5.73097 44.9366 0 33.5 0C14.9984 0 0 14.9984 0 33.5C0 52.0016 14.9984 67 33.5 67C44.9366 67 55.035 61.2693 61.0793 52.5222C60.9673 52.3606 60.8569 52.1978 60.7481 52.034Z" fill="#70521D"/>
</svg>
