<svg width="298" height="85" viewBox="0 0 298 85" fill="none" xmlns="http://www.w3.org/2000/svg">
<path d="M17.9488 21.5986H25.6256C28.107 21.5986 30.2394 22.0564 32.023 22.9721C33.8065 23.8878 35.1829 25.2215 36.1522 26.9733C37.1216 28.6852 37.6062 30.7356 37.6062 33.1244C37.6062 34.9557 37.2572 36.608 36.5593 38.081C35.8613 39.5142 34.9309 40.7286 33.7677 41.7238C32.6046 42.7192 31.2863 43.4756 29.813 43.9932C28.3397 44.471 26.8081 44.6501 25.2184 44.5306C23.6676 44.4112 22.1555 43.9534 20.6821 43.1572V42.5599C20.6821 42.5599 21.0117 42.6196 21.6708 42.7391C22.33 42.8187 23.1635 42.8386 24.1716 42.7988C25.2184 42.7192 26.3042 42.5003 27.4284 42.1419C28.5917 41.7438 29.6579 41.0669 30.6272 40.1114C31.6352 39.156 32.3914 37.8222 32.8953 36.1103C33.0117 35.6723 33.1086 35.1349 33.1862 34.4978C33.2637 33.8211 33.2831 33.1642 33.2443 32.5271C33.2055 29.7801 32.5076 27.5705 31.1507 25.8984C29.7936 24.2261 27.8744 23.3901 25.3929 23.3901H18.5303C18.5303 23.3901 18.4721 23.2508 18.3558 22.9721C18.2783 22.6536 18.1813 22.355 18.065 22.0763C17.9874 21.7578 17.9488 21.5986 17.9488 21.5986ZM18.7048 21.5986V63.4019H14.9245V21.5986H18.7048ZM15.099 59.0424V63.4019H10.4463V62.8047C10.4463 62.8047 10.5626 62.8047 10.7953 62.8047C11.0666 62.8047 11.2024 62.8047 11.2024 62.8047C12.2104 62.8047 13.0635 62.4463 13.7613 61.7297C14.498 60.9733 14.8857 60.0775 14.9245 59.0424H15.099ZM15.099 25.958H14.9245C14.9245 24.9229 14.5561 24.047 13.8195 23.3305C13.0829 22.574 12.2104 22.1958 11.2024 22.1958C11.2024 22.1958 11.086 22.1958 10.8534 22.1958C10.6207 22.1958 10.5044 22.1958 10.5044 22.1958L10.4463 21.5986H15.099V25.958ZM18.5303 59.0424H18.7048C18.7435 60.0775 19.1118 60.9733 19.8098 61.7297C20.5464 62.4463 21.4189 62.8047 22.4269 62.8047C22.4269 62.8047 22.5433 62.8047 22.7758 62.8047C23.0472 62.8047 23.1829 62.8047 23.1829 62.8047V63.4019H18.5303V59.0424Z" fill="#B58C67"/>
<path d="M52.6385 40.41L69.5539 60.3562C70.3874 61.1524 71.2218 61.7496 72.0553 62.1477C72.9287 62.5459 73.9809 62.7649 75.2122 62.8047V63.4019H72.6508C72.2538 63.4019 71.678 63.382 70.9237 63.3421C70.2093 63.2625 69.4149 63.1232 68.5413 62.9241C67.7075 62.6852 66.8538 62.3469 65.9802 61.9088C65.1464 61.4312 64.3919 60.794 63.7169 59.9978C63.7169 59.9978 63.3596 59.5798 62.6448 58.7438C61.9698 57.9077 61.0764 56.8328 59.9645 55.519C58.8925 54.2051 57.7409 52.8116 56.51 51.3386C55.3188 49.8257 54.1672 48.4123 53.0555 47.0986C51.9833 45.7848 51.0898 44.7097 50.3751 43.8737C49.7001 43.0377 49.3627 42.6196 49.3627 42.6196L52.6385 40.41ZM69.8519 22.0167L52.0429 42.6196H49.3627L65.7419 22.0167H69.8519ZM73.9614 21.5986V22.136H73.7232C72.4127 22.136 71.1821 22.3948 70.0302 22.9123C68.9186 23.4299 67.9656 24.1466 67.1714 25.0623L63.419 24.9428C63.9353 24.266 64.0147 23.629 63.6573 23.0318C63.3397 22.4347 62.7837 22.136 61.9897 22.136H61.394V21.5986H73.9614ZM47.4566 21.5986V63.4019H43.5852V21.5986H47.4566ZM43.7639 59.0424V63.4019H38.999V62.8047C38.999 62.8047 39.1182 62.8047 39.3564 62.8047C39.6343 62.8047 39.7733 62.8047 39.7733 62.8047C40.8057 62.8047 41.6792 62.4463 42.3939 61.7297C43.1485 60.9733 43.5455 60.0775 43.5852 59.0424H43.7639ZM43.7639 25.958H43.5852C43.5455 24.9229 43.1485 24.047 42.3939 23.3305C41.6792 22.574 40.8057 22.1958 39.7733 22.1958C39.7733 22.1958 39.6343 22.1958 39.3564 22.1958C39.1182 22.1958 38.999 22.1958 38.999 22.1958V21.5986H43.7639V25.958ZM47.2781 59.0424H47.4566C47.4965 60.0775 47.8736 60.9733 48.5883 61.7297C49.3428 62.4463 50.2363 62.8047 51.2686 62.8047C51.2686 62.8047 51.3877 62.8047 51.626 62.8047C51.8643 62.8047 52.0031 62.8047 52.0429 62.8047V63.4019H47.2781V59.0424ZM47.2781 25.958V21.5986H52.0429V22.1958C52.0031 22.1958 51.8643 22.1958 51.626 22.1958C51.3877 22.1958 51.2686 22.1958 51.2686 22.1958C50.2363 22.1958 49.3428 22.574 48.5883 23.3305C47.8736 24.047 47.4965 24.9229 47.4566 25.958H47.2781Z" fill="#B58C67"/>
<path d="M79.7956 25.918H82.9211C83.9315 25.918 84.8 26.0996 85.5256 26.4629C86.252 26.8261 86.8126 27.3551 87.2067 28.0499C87.6016 28.7291 87.7987 29.5424 87.7987 30.49C87.7987 31.2164 87.6566 31.8718 87.3725 32.4561C87.0884 33.0246 86.7095 33.5062 86.236 33.9011C85.7624 34.2959 85.2262 34.5958 84.6259 34.8012C84.0262 34.9908 83.403 35.0618 82.7554 35.0144C82.1244 34.967 81.5087 34.7854 80.9085 34.4696V34.2327C80.9085 34.2327 81.0428 34.2563 81.311 34.3038C81.5798 34.3354 81.9189 34.3432 82.3292 34.3274C82.7554 34.2959 83.1975 34.209 83.6551 34.0669C84.1287 33.909 84.5633 33.6405 84.9574 33.2615C85.3682 32.8825 85.676 32.3535 85.8808 31.6744C85.9281 31.5007 85.9678 31.2874 85.9992 31.0347C86.0312 30.7663 86.0389 30.5057 86.0228 30.253C86.0076 29.1633 85.7234 28.2869 85.1704 27.6236C84.6182 26.9603 83.8369 26.6287 82.8264 26.6287H80.0324C80.0324 26.6287 80.0087 26.5735 79.9614 26.4629C79.9301 26.3365 79.8904 26.2181 79.8429 26.1075C79.8116 25.9813 79.7956 25.918 79.7956 25.918ZM80.1034 25.918V42.4999H78.5643V25.918H80.1034ZM78.6353 40.7708V42.4999H76.7412V42.2631C76.7412 42.2631 76.7885 42.2631 76.8832 42.2631C76.9939 42.2631 77.049 42.2631 77.049 42.2631C77.4598 42.2631 77.8067 42.121 78.0908 41.8367C78.391 41.5367 78.549 41.1813 78.5643 40.7708H78.6353ZM78.6353 27.6473H78.5643C78.5643 27.2367 78.4146 26.8893 78.1144 26.6049C77.815 26.3049 77.4598 26.155 77.049 26.155C77.049 26.155 77.0015 26.155 76.9069 26.155C76.8122 26.155 76.7648 26.155 76.7648 26.155L76.7412 25.918H78.6353V27.6473ZM80.0324 40.7708H80.1034C80.1194 41.1813 80.2691 41.5367 80.5533 41.8367C80.8535 42.121 81.2085 42.2631 81.6188 42.2631C81.6188 42.2631 81.6662 42.2631 81.7608 42.2631C81.8716 42.2631 81.9267 42.2631 81.9267 42.2631V42.4999H80.0324V40.7708ZM94.815 27.9552L101.326 42.3579H99.4559L94.4125 30.0636L94.815 27.9552ZM90.2452 40.7708C90.0711 41.2445 90.0948 41.6157 90.3162 41.8841C90.537 42.1367 90.7898 42.2631 91.0739 42.2631H91.2633V42.4999H86.7408V42.2631C86.7408 42.2631 86.7723 42.2631 86.8355 42.2631C86.8983 42.2631 86.9303 42.2631 86.9303 42.2631C87.2617 42.2631 87.601 42.1526 87.9484 41.9315C88.2952 41.6946 88.5954 41.3077 88.8483 40.7708H90.2452ZM94.815 27.9552L94.9807 29.5897L89.5585 42.4289H88.0669L93.6785 30.3952C93.6785 30.3952 93.7174 30.3004 93.7968 30.1109C93.8916 29.9213 93.994 29.6923 94.1047 29.4239C94.2308 29.1397 94.3415 28.8633 94.4362 28.5948C94.5309 28.3264 94.586 28.1131 94.6019 27.9552H94.815ZM97.6089 36.9805V37.6912H91.3343V36.9805H97.6089ZM98.8165 40.7708H100.616C100.853 41.3077 101.145 41.6946 101.492 41.9315C101.839 42.1526 102.17 42.2631 102.487 42.2631C102.487 42.2631 102.518 42.2631 102.581 42.2631C102.644 42.2631 102.676 42.2631 102.676 42.2631V42.4999H97.8221V42.2631H98.0116C98.2796 42.2631 98.5241 42.1367 98.7455 41.8841C98.9663 41.6157 98.99 41.2445 98.8165 40.7708ZM105.565 28.2869V37.2411C105.565 38.773 105.953 39.9812 106.726 40.8655C107.515 41.7498 108.589 42.192 109.946 42.192C111.446 42.192 112.621 41.7735 113.474 40.9366C114.342 40.0995 114.776 38.9546 114.776 37.5017V28.2869H115.865V37.5017C115.865 39.1441 115.337 40.447 114.279 41.4103C113.237 42.3579 111.801 42.8316 109.97 42.8316C108.155 42.8316 106.71 42.3579 105.637 41.4103C104.579 40.4627 104.05 39.1678 104.05 37.5254V28.2869H105.565ZM104.097 28.2869V29.5424H104.05C104.035 29.2581 103.916 29.0212 103.695 28.8317C103.49 28.6264 103.23 28.5238 102.914 28.5238C102.914 28.5238 102.851 28.5238 102.724 28.5238C102.614 28.5238 102.558 28.5238 102.558 28.5238V28.2869H104.097ZM107.057 28.2869V28.5238C107.057 28.5238 106.994 28.5238 106.868 28.5238C106.758 28.5238 106.702 28.5238 106.702 28.5238C106.402 28.5238 106.134 28.6264 105.897 28.8317C105.676 29.0212 105.565 29.2581 105.565 29.5424H105.518V28.2869H107.057ZM114.823 28.2869V29.5424H114.776C114.776 29.2581 114.666 29.0212 114.445 28.8317C114.224 28.6264 113.956 28.5238 113.64 28.5238C113.64 28.5238 113.577 28.5238 113.45 28.5238C113.34 28.5238 113.284 28.5238 113.284 28.5238V28.2869H114.823ZM117.357 28.2869V28.5238C117.357 28.5238 117.294 28.5238 117.168 28.5238C117.058 28.5238 117.002 28.5238 117.002 28.5238C116.702 28.5238 116.442 28.6264 116.22 28.8317C116 29.0212 115.881 29.2581 115.865 29.5424H115.818V28.2869H117.357ZM122.713 28.2869V42.4999H121.198V28.2869H122.713ZM129.082 41.7656L129.035 42.4999H122.666V41.7656H129.082ZM130.408 39.1125L129.106 42.4999H125.507L126.312 41.7656C127.101 41.7656 127.733 41.655 128.206 41.434C128.697 41.1972 129.09 40.8813 129.39 40.4865C129.691 40.0759 129.951 39.6178 130.171 39.1125H130.408ZM121.245 40.9839L121.553 42.4999H119.493V42.2631C119.493 42.2631 119.548 42.2631 119.659 42.2631C119.769 42.2631 119.824 42.2631 119.824 42.2631C120.219 42.2631 120.542 42.1367 120.795 41.8841C121.048 41.6314 121.182 41.3314 121.198 40.9839H121.245ZM122.642 29.803V28.2869H124.394V28.5238C124.394 28.5238 124.347 28.5238 124.252 28.5238C124.157 28.5238 124.11 28.5238 124.11 28.5238C123.731 28.5238 123.4 28.65 123.116 28.9027C122.848 29.1397 122.713 29.4398 122.713 29.803H122.642ZM121.245 29.803H121.198C121.182 29.4398 121.04 29.1397 120.772 28.9027C120.503 28.65 120.172 28.5238 119.777 28.5238C119.777 28.5238 119.73 28.5238 119.635 28.5238C119.54 28.5238 119.493 28.5238 119.493 28.5238V28.2869H121.245V29.803ZM135.042 28.2869V42.4999H133.551V28.2869H135.042ZM133.622 40.9839V42.4999H131.609V42.2631C131.609 42.2631 131.665 42.2631 131.774 42.2631C131.886 42.2631 131.94 42.2631 131.94 42.2631C132.383 42.2631 132.754 42.1367 133.054 41.8841C133.369 41.6314 133.536 41.3314 133.551 40.9839H133.622ZM134.971 40.9839H135.042C135.059 41.3314 135.216 41.6314 135.516 41.8841C135.832 42.1367 136.211 42.2631 136.653 42.2631C136.653 42.2631 136.699 42.2631 136.795 42.2631C136.905 42.2631 136.961 42.2631 136.961 42.2631L136.983 42.4999H134.971V40.9839ZM134.971 29.803V28.2869H136.983L136.961 28.5238C136.961 28.5238 136.905 28.5238 136.795 28.5238C136.699 28.5238 136.653 28.5238 136.653 28.5238C136.211 28.5238 135.832 28.65 135.516 28.9027C135.216 29.1397 135.059 29.4398 135.042 29.803H134.971ZM133.622 29.803H133.551C133.536 29.4398 133.369 29.1397 133.054 28.9027C132.754 28.65 132.383 28.5238 131.94 28.5238C131.925 28.5238 131.862 28.5238 131.751 28.5238C131.656 28.5238 131.609 28.5238 131.609 28.5238V28.2869H133.622V29.803ZM140.818 27.9316L153.935 40.2969L154.172 42.8316L141.055 30.3952L140.818 27.9316ZM140.865 41.0314V42.4999H139.09V42.2631C139.09 42.2631 139.153 42.2631 139.279 42.2631C139.421 42.2631 139.492 42.2631 139.492 42.2631C139.856 42.2631 140.163 42.1447 140.416 41.9077C140.669 41.6709 140.794 41.3787 140.794 41.0314H140.865ZM141.861 41.0314C141.861 41.3787 141.986 41.6709 142.238 41.9077C142.507 42.1447 142.815 42.2631 143.163 42.2631C143.163 42.2631 143.226 42.2631 143.352 42.2631C143.494 42.2631 143.565 42.2631 143.565 42.2631V42.4999H141.79V41.0314H141.861ZM140.818 27.9316L141.836 29.2581L141.861 42.4999H140.794V30.8926C140.794 30.0872 140.755 29.3923 140.676 28.808C140.613 28.2236 140.581 27.9316 140.581 27.9316H140.818ZM154.172 28.2869V39.7995C154.172 40.3048 154.189 40.7944 154.221 41.2682C154.251 41.7262 154.284 42.1051 154.314 42.4052C154.363 42.6895 154.385 42.8316 154.385 42.8316H154.172L153.131 41.5761V28.2869H154.172ZM154.101 29.7555V28.2869H155.878V28.5238C155.878 28.5238 155.807 28.5238 155.665 28.5238C155.538 28.5238 155.475 28.5238 155.475 28.5238C155.127 28.5238 154.819 28.6422 154.552 28.8791C154.299 29.116 154.172 29.4082 154.172 29.7555H154.101ZM153.131 29.7555C153.115 29.4082 152.982 29.116 152.728 28.8791C152.476 28.6422 152.168 28.5238 151.805 28.5238C151.805 28.5238 151.734 28.5238 151.592 28.5238C151.466 28.5238 151.403 28.5238 151.403 28.5238V28.2869H153.178V29.7555H153.131ZM164.668 27.9552L171.18 42.3579H169.31L164.266 30.0636L164.668 27.9552ZM160.099 40.7708C159.926 41.2445 159.95 41.6157 160.17 41.8841C160.391 42.1367 160.643 42.2631 160.927 42.2631H161.118V42.4999H156.594V42.2631C156.594 42.2631 156.626 42.2631 156.69 42.2631C156.753 42.2631 156.785 42.2631 156.785 42.2631C157.116 42.2631 157.455 42.1526 157.803 41.9315C158.15 41.6946 158.45 41.3077 158.702 40.7708H160.099ZM164.668 27.9552L164.834 29.5897L159.412 42.4289H157.921L163.532 30.3952C163.532 30.3952 163.571 30.3004 163.651 30.1109C163.745 29.9213 163.848 29.6923 163.958 29.4239C164.085 29.1397 164.195 28.8633 164.29 28.5948C164.384 28.3264 164.44 28.1131 164.455 27.9552H164.668ZM167.463 36.9805V37.6912H161.189V36.9805H167.463ZM168.67 40.7708H170.47C170.707 41.3077 170.999 41.6946 171.346 41.9315C171.694 42.1526 172.024 42.2631 172.34 42.2631C172.34 42.2631 172.372 42.2631 172.435 42.2631C172.499 42.2631 172.53 42.2631 172.53 42.2631V42.4999H167.676V42.2631H167.865C168.134 42.2631 168.379 42.1367 168.599 41.8841C168.821 41.6157 168.844 41.2445 168.67 40.7708ZM185.176 33.38L191.9 41.2919C192.231 41.6077 192.564 41.8446 192.895 42.0025C193.242 42.1605 193.661 42.2472 194.15 42.2631V42.4999H193.132C192.975 42.4999 192.745 42.4921 192.444 42.4764C192.16 42.4448 191.846 42.3894 191.498 42.3105C191.166 42.2158 190.828 42.0814 190.48 41.9077C190.148 41.7183 189.849 41.4656 189.58 41.1497C189.58 41.1497 189.438 40.9839 189.154 40.6523C188.886 40.3206 188.531 39.8943 188.089 39.3731C187.663 38.8519 187.205 38.2993 186.715 37.715C186.241 37.1149 185.784 36.5541 185.342 36.033C184.916 35.5119 184.561 35.0855 184.277 34.7538C184.008 34.4222 183.873 34.2563 183.873 34.2563L185.176 33.38ZM192.018 26.0838L184.939 34.2563H183.873L190.385 26.0838H192.018ZM193.653 25.918V26.1312H193.558C193.037 26.1312 192.548 26.2339 192.089 26.4391C191.648 26.6445 191.269 26.9287 190.953 27.2919L189.462 27.2446C189.667 26.9762 189.699 26.7234 189.556 26.4866C189.43 26.2497 189.21 26.1312 188.894 26.1312H188.657V25.918H193.558H193.653ZM183.116 25.918V42.4999H181.577V25.918H183.116ZM181.648 40.7708V42.4999H179.753V42.2631C179.753 42.2631 179.802 42.2631 179.895 42.2631C180.007 42.2631 180.062 42.2631 180.062 42.2631C180.472 42.2631 180.819 42.121 181.104 41.8367C181.403 41.5367 181.562 41.1813 181.577 40.7708H181.648ZM181.648 27.6473H181.577C181.562 27.2367 181.403 26.8893 181.104 26.6049C180.819 26.3049 180.472 26.155 180.062 26.155C180.062 26.155 180.007 26.155 179.895 26.155C179.802 26.155 179.753 26.155 179.753 26.155V25.918H181.648V27.6473ZM183.045 40.7708H183.116C183.132 41.1813 183.281 41.5367 183.565 41.8367C183.866 42.121 184.221 42.2631 184.632 42.2631C184.632 42.2631 184.679 42.2631 184.774 42.2631C184.868 42.2631 184.923 42.2631 184.939 42.2631V42.4999H183.045V40.7708ZM183.045 27.6473V25.918H184.939V26.155C184.923 26.155 184.868 26.155 184.774 26.155C184.679 26.155 184.632 26.155 184.632 26.155C184.221 26.155 183.866 26.3049 183.565 26.6049C183.281 26.8893 183.132 27.2367 183.116 27.6473H183.045ZM202.111 27.9552C203.216 27.9552 204.249 28.1369 205.213 28.5001C206.191 28.8476 207.043 29.3529 207.769 30.0161C208.511 30.6794 209.087 31.469 209.498 32.3849C209.909 33.2852 210.114 34.2879 210.114 35.3934C210.114 36.4989 209.909 37.5096 209.498 38.4255C209.087 39.3258 208.511 40.1074 207.769 40.7708C207.043 41.434 206.191 41.9473 205.213 42.3105C204.249 42.6579 203.216 42.8316 202.111 42.8316C201.005 42.8316 199.971 42.6579 199.009 42.3105C198.046 41.9473 197.193 41.434 196.452 40.7708C195.725 40.1074 195.157 39.3258 194.747 38.4255C194.336 37.5096 194.131 36.4989 194.131 35.3934C194.131 34.2879 194.336 33.2852 194.747 32.3849C195.157 31.469 195.725 30.6794 196.452 30.0161C197.193 29.3529 198.046 28.8476 199.009 28.5001C199.971 28.1369 201.005 27.9552 202.111 27.9552ZM202.111 42.121C203.279 42.121 204.337 41.8367 205.284 41.2682C206.231 40.6997 206.979 39.9101 207.532 38.8994C208.085 37.8886 208.361 36.7199 208.361 35.3934C208.361 34.0511 208.085 32.8825 207.532 31.8875C206.979 30.8768 206.231 30.0872 205.284 29.5187C204.337 28.9502 203.279 28.6659 202.111 28.6659C200.958 28.6659 199.908 28.9502 198.961 29.5187C198.014 30.0872 197.264 30.8768 196.712 31.8875C196.159 32.8825 195.884 34.0511 195.884 35.3934C195.884 36.7199 196.159 37.8886 196.712 38.8994C197.264 39.9101 198.014 40.6997 198.961 41.2682C199.908 41.8367 200.958 42.121 202.111 42.121ZM227.579 27.9552L227.792 29.4949L222.252 40.4154C222.252 40.4154 222.189 40.5496 222.063 40.8181C221.952 41.0865 221.834 41.4103 221.708 41.7894C221.581 42.1526 221.486 42.4999 221.423 42.8316H221.187L220.855 41.3393L227.579 27.9552ZM213.704 40.9129V42.4999H211.241V42.2631C211.241 42.2631 211.297 42.2631 211.407 42.2631C211.534 42.2631 211.596 42.2631 211.596 42.2631C212.007 42.2631 212.362 42.1447 212.663 41.9077C212.979 41.6709 213.16 41.3393 213.207 40.9129H213.704ZM214.414 41.2682C214.399 41.5051 214.453 41.7341 214.58 41.9552C214.707 42.1605 214.943 42.271 215.29 42.2868H215.623V42.4999H214.272V41.2682H214.414ZM215.054 27.9552H215.29L215.765 29.3529L214.296 42.4999H212.994L215.054 27.9552ZM215.29 27.9552L221.731 40.3444L221.187 42.8316L214.841 30.561L215.29 27.9552ZM227.792 27.9552L229.924 42.4999H228.125L226.585 30.5847L227.579 27.9552H227.792ZM229.214 40.9129H229.687C229.749 41.3393 229.939 41.6709 230.255 41.9077C230.571 42.1447 230.926 42.2631 231.32 42.2631C231.32 42.2631 231.376 42.2631 231.486 42.2631C231.612 42.2631 231.675 42.2631 231.675 42.2631V42.4999H229.214V40.9129ZM227.958 41.2682H228.125V42.4999H226.751V42.2868H227.106C227.469 42.271 227.706 42.1526 227.816 41.9315C227.942 41.7103 227.99 41.4892 227.958 41.2682ZM236.362 28.2869V42.4999H234.847V28.2869H236.362ZM242.732 41.7656L242.683 42.4999H236.315V41.7656H242.732ZM241.618 35.0381V35.7488H236.315V35.0381H241.618ZM242.708 28.2869V29.0212H236.315V28.2869H242.708ZM244.057 39.1125L242.754 42.4999H239.156L239.961 41.7656C240.751 41.7656 241.381 41.655 241.855 41.434C242.345 41.1972 242.739 40.8813 243.039 40.4865C243.339 40.0759 243.6 39.6178 243.821 39.1125H244.057ZM241.618 35.7013V37.0516H241.358V36.7437C241.358 36.4752 241.28 36.2462 241.121 36.0567C240.964 35.8514 240.719 35.7488 240.387 35.7488V35.7013H241.618ZM241.618 33.7352V35.0855H240.387V35.0381C240.719 35.0381 240.964 34.9433 241.121 34.7538C241.28 34.5485 241.358 34.3117 241.358 34.0432V33.7352H241.618ZM242.708 28.9502V30.5847H242.448V30.2294C242.448 29.8977 242.337 29.6134 242.115 29.3766C241.911 29.1397 241.627 29.0212 241.263 29.0212V28.9502H242.708ZM242.708 27.9079V28.5238L240.008 28.2869C240.497 28.2869 241.018 28.2474 241.571 28.1684C242.124 28.0737 242.503 27.9868 242.708 27.9079ZM234.894 40.9839L235.202 42.4999H233.141V42.2631C233.141 42.2631 233.197 42.2631 233.307 42.2631C233.419 42.2631 233.473 42.2631 233.473 42.2631C233.868 42.2631 234.192 42.1367 234.443 41.8841C234.697 41.6314 234.831 41.3314 234.847 40.9839H234.894ZM234.894 29.7793H234.847C234.831 29.416 234.697 29.116 234.443 28.8791C234.192 28.6422 233.868 28.5238 233.473 28.5238C233.473 28.5238 233.419 28.5238 233.307 28.5238C233.197 28.5238 233.141 28.5238 233.141 28.5238V28.2869H235.202L234.894 29.7793ZM247.322 27.9316L260.44 40.2969L260.678 42.8316L247.559 30.3952L247.322 27.9316ZM247.37 41.0314V42.4999H245.594V42.2631C245.594 42.2631 245.657 42.2631 245.784 42.2631C245.926 42.2631 245.997 42.2631 245.997 42.2631C246.36 42.2631 246.668 42.1447 246.92 41.9077C247.172 41.6709 247.299 41.3787 247.299 41.0314H247.37ZM248.364 41.0314C248.364 41.3787 248.49 41.6709 248.744 41.9077C249.011 42.1447 249.319 42.2631 249.667 42.2631C249.667 42.2631 249.729 42.2631 249.856 42.2631C249.998 42.2631 250.069 42.2631 250.069 42.2631V42.4999H248.293V41.0314H248.364ZM247.322 27.9316L248.34 29.2581L248.364 42.4999H247.299V30.8926C247.299 30.0872 247.259 29.3923 247.18 28.808C247.117 28.2236 247.086 27.9316 247.086 27.9316H247.322ZM260.678 28.2869V39.7995C260.678 40.3048 260.693 40.7944 260.725 41.2682C260.756 41.7262 260.787 42.1051 260.82 42.4052C260.867 42.6895 260.891 42.8316 260.891 42.8316H260.678L259.635 41.5761V28.2869H260.678ZM260.607 29.7555V28.2869H262.382V28.5238C262.382 28.5238 262.311 28.5238 262.169 28.5238C262.042 28.5238 261.98 28.5238 261.98 28.5238C261.631 28.5238 261.324 28.6422 261.055 28.8791C260.803 29.116 260.678 29.4082 260.678 29.7555H260.607ZM259.635 29.7555C259.619 29.4082 259.484 29.116 259.233 28.8791C258.98 28.6422 258.671 28.5238 258.309 28.5238C258.309 28.5238 258.238 28.5238 258.096 28.5238C257.969 28.5238 257.907 28.5238 257.907 28.5238V28.2869H259.682V29.7555H259.635ZM272.428 28.2869C273.991 28.2869 275.34 28.5711 276.477 29.1397C277.614 29.7082 278.489 30.5294 279.105 31.6033C279.72 32.6614 280.029 33.9247 280.029 35.3934C280.029 36.8622 279.72 38.1255 279.105 39.1836C278.489 40.2417 277.614 41.0628 276.477 41.6472C275.34 42.2158 273.991 42.4999 272.428 42.4999H267.384L267.338 41.7894C268.442 41.7894 269.367 41.7894 270.108 41.7894C270.865 41.7894 271.441 41.7894 271.837 41.7894C272.231 41.7894 272.428 41.7894 272.428 41.7894C274.259 41.7894 275.696 41.2208 276.738 40.0838C277.795 38.9308 278.324 37.3675 278.324 35.3934C278.324 33.4194 277.795 31.8638 276.738 30.7268C275.696 29.574 274.259 28.9975 272.428 28.9975C272.428 28.9975 272.222 28.9975 271.813 28.9975C271.402 28.9975 270.802 28.9975 270.013 28.9975C269.224 28.9975 268.253 28.9975 267.1 28.9975V28.2869H272.428ZM267.717 28.2869V42.4999H266.177V28.2869H267.717ZM266.224 40.9602V42.4999H264.52V42.2631C264.52 42.2631 264.567 42.2631 264.662 42.2631C264.772 42.2631 264.828 42.2631 264.828 42.2631C265.206 42.2631 265.522 42.1367 265.775 41.8841C266.028 41.6157 266.161 41.3077 266.177 40.9602H266.224ZM266.224 29.8266H266.177C266.161 29.4476 266.019 29.1397 265.751 28.9027C265.498 28.65 265.183 28.5238 264.804 28.5238C264.804 28.5238 264.757 28.5238 264.662 28.5238C264.567 28.5238 264.52 28.5238 264.52 28.5238V28.2869H266.224V29.8266ZM288.816 27.9552L295.328 42.3579H293.456L288.413 30.0636L288.816 27.9552ZM284.246 40.7708C284.073 41.2445 284.095 41.6157 284.317 41.8841C284.538 42.1367 284.79 42.2631 285.076 42.2631H285.264V42.4999H280.743V42.2631C280.743 42.2631 280.773 42.2631 280.836 42.2631C280.9 42.2631 280.931 42.2631 280.931 42.2631C281.262 42.2631 281.602 42.1526 281.95 41.9315C282.296 41.6946 282.596 41.3077 282.849 40.7708H284.246ZM288.816 27.9552L288.981 29.5897L283.56 42.4289H282.068L287.679 30.3952C287.679 30.3952 287.718 30.3004 287.798 30.1109C287.892 29.9213 287.995 29.6923 288.106 29.4239C288.232 29.1397 288.342 28.8633 288.437 28.5948C288.532 28.3264 288.587 28.1131 288.603 27.9552H288.816ZM291.61 36.9805V37.6912H285.336V36.9805H291.61ZM292.817 40.7708H294.617C294.854 41.3077 295.145 41.6946 295.493 41.9315C295.84 42.1526 296.171 42.2631 296.487 42.2631C296.487 42.2631 296.519 42.2631 296.582 42.2631C296.646 42.2631 296.677 42.2631 296.677 42.2631V42.4999H291.823V42.2631H292.012C292.281 42.2631 292.526 42.1367 292.746 41.8841C292.967 41.6157 292.991 41.2445 292.817 40.7708Z" fill="#B58C67"/>
<path d="M80.3365 51.9266L84.6877 57.0461C84.9023 57.2505 85.1167 57.4037 85.3313 57.506C85.5561 57.6081 85.8263 57.6643 86.1432 57.6746V57.8279H85.4845C85.3821 57.8279 85.2344 57.8228 85.0401 57.8125C84.8562 57.7921 84.6522 57.7563 84.4273 57.7052C84.2128 57.6439 83.9934 57.557 83.7685 57.4446C83.554 57.322 83.3597 57.1585 83.1863 56.9541C83.1863 56.9541 83.0944 56.8468 82.9105 56.6323C82.7371 56.4176 82.5072 56.1418 82.221 55.8046C81.9454 55.4674 81.6493 55.1098 81.3325 54.7316C81.026 54.3434 80.73 53.9805 80.4438 53.6433C80.168 53.3061 79.9382 53.0302 79.7544 52.8156C79.581 52.601 79.4939 52.4938 79.4939 52.4938L80.3365 51.9266ZM84.7643 47.2056L80.1833 52.4938H79.4939L83.7072 47.2056H84.7643ZM85.8215 47.0983V47.2362H85.7603C85.4232 47.2362 85.1063 47.3027 84.8103 47.4355C84.5241 47.5684 84.279 47.7523 84.0748 47.9874L83.1097 47.9567C83.2427 47.783 83.2629 47.6195 83.171 47.4662C83.0895 47.313 82.946 47.2362 82.742 47.2362H82.5888V47.0983H85.7603H85.8215ZM79.0037 47.0983V57.8279H78.0078V47.0983H79.0037ZM78.0537 56.7089V57.8279H76.8281V57.6746C76.8281 57.6746 76.8587 57.6746 76.9201 57.6746C76.9917 57.6746 77.0272 57.6746 77.0272 57.6746C77.2926 57.6746 77.5176 57.5826 77.7013 57.3987C77.8957 57.2044 77.9973 56.9746 78.0078 56.7089H78.0537ZM78.0537 48.2173H78.0078C77.9973 47.9516 77.8957 47.7268 77.7013 47.5429C77.5176 47.3486 77.2926 47.2516 77.0272 47.2516C77.0272 47.2516 76.9917 47.2516 76.9201 47.2516C76.8587 47.2516 76.8281 47.2516 76.8281 47.2516V47.0983H78.0537V48.2173ZM78.9577 56.7089H79.0037C79.014 56.9746 79.1109 57.2044 79.2948 57.3987C79.4891 57.5826 79.7189 57.6746 79.9843 57.6746C79.9843 57.6746 80.0148 57.6746 80.0761 57.6746C80.1374 57.6746 80.1729 57.6746 80.1833 57.6746V57.8279H78.9577V56.7089ZM78.9577 48.2173V47.0983H80.1833V47.2516C80.1729 47.2516 80.1374 47.2516 80.0761 47.2516C80.0148 47.2516 79.9843 47.2516 79.9843 47.2516C79.7189 47.2516 79.4891 47.3486 79.2948 47.5429C79.1109 47.7268 79.014 47.9516 79.0037 48.2173H78.9577ZM91.126 48.4166L95.3392 57.7359H94.129L90.8656 49.7808L91.126 48.4166ZM88.1691 56.7089C88.057 57.0154 88.0722 57.2557 88.215 57.4294C88.3578 57.5929 88.5215 57.6746 88.7053 57.6746H88.8279V57.8279H85.9015V57.6746C85.9015 57.6746 85.9218 57.6746 85.9629 57.6746C86.004 57.6746 86.0242 57.6746 86.0242 57.6746C86.2386 57.6746 86.458 57.603 86.6829 57.4599C86.9079 57.3067 87.1015 57.0564 87.2651 56.7089H88.1691ZM91.126 48.4166L91.2333 49.4741L87.7248 57.7818H86.7595L90.3907 49.9953C90.3907 49.9953 90.4164 49.934 90.4673 49.8113C90.5285 49.6888 90.5947 49.5406 90.6664 49.3668C90.7479 49.183 90.8195 49.0041 90.8809 48.8304C90.9422 48.6567 90.9777 48.5187 90.9882 48.4166H91.126ZM92.9339 54.2565V54.7162H88.8738V54.2565H92.9339ZM93.7152 56.7089H94.8797C95.0329 57.0564 95.2216 57.3067 95.4465 57.4599C95.6715 57.603 95.8859 57.6746 96.0901 57.6746C96.0901 57.6746 96.1102 57.6746 96.1513 57.6746C96.1924 57.6746 96.2126 57.6746 96.2126 57.6746V57.8279H93.0718V57.6746H93.1944C93.3678 57.6746 93.5265 57.5929 93.6693 57.4294C93.8121 57.2557 93.8274 57.0154 93.7152 56.7089ZM97.792 48.4012L106.28 56.4024L106.433 58.0424L97.9453 49.9953L97.792 48.4012ZM97.8227 56.8775V57.8279H96.6737V57.6746C96.6737 57.6746 96.7147 57.6746 96.7962 57.6746C96.8881 57.6746 96.9341 57.6746 96.9341 57.6746C97.1687 57.6746 97.3679 57.598 97.5316 57.4446C97.6952 57.2913 97.7768 57.1023 97.7768 56.8775H97.8227ZM98.4662 56.8775C98.4662 57.1023 98.5476 57.2913 98.7113 57.4446C98.8847 57.598 99.0839 57.6746 99.3089 57.6746C99.3089 57.6746 99.35 57.6746 99.4314 57.6746C99.5233 57.6746 99.5693 57.6746 99.5693 57.6746V57.8279H98.4202V56.8775H98.4662ZM97.792 48.4012L98.4509 49.2596L98.4662 57.8279H97.7768V50.3172C97.7768 49.796 97.7509 49.3465 97.7002 48.9683C97.6591 48.5903 97.6388 48.4012 97.6388 48.4012H97.792ZM106.433 48.6311V56.0804C106.433 56.4075 106.443 56.7243 106.464 57.0308C106.484 57.3271 106.505 57.5723 106.525 57.7666C106.556 57.9504 106.571 58.0424 106.571 58.0424H106.433L105.759 57.2301V48.6311H106.433ZM106.387 49.5815V48.6311H107.536V48.7844C107.536 48.7844 107.49 48.7844 107.398 48.7844C107.317 48.7844 107.276 48.7844 107.276 48.7844C107.051 48.7844 106.852 48.861 106.678 49.0144C106.515 49.1676 106.433 49.3567 106.433 49.5815H106.387ZM105.759 49.5815C105.748 49.3567 105.662 49.1676 105.499 49.0144C105.335 48.861 105.136 48.7844 104.901 48.7844C104.901 48.7844 104.855 48.7844 104.763 48.7844C104.682 48.7844 104.641 48.7844 104.641 48.7844V48.6311H105.79V49.5815H105.759ZM118.206 53.9652L118.037 56.0652C117.772 56.4739 117.424 56.8265 116.995 57.1227C116.566 57.4191 116.081 57.649 115.54 57.8125C114.999 57.9658 114.426 58.0424 113.824 58.0424C112.793 58.0322 111.894 57.8329 111.128 57.4446C110.372 57.0564 109.79 56.5045 109.381 55.7893C108.972 55.0739 108.768 54.2207 108.768 53.2295C108.768 52.2281 108.972 51.3698 109.381 50.6544C109.79 49.9391 110.372 49.3872 111.128 48.999C111.894 48.6107 112.793 48.4166 113.824 48.4166C114.457 48.4166 115.096 48.4983 115.739 48.6618C116.383 48.8253 116.939 49.0552 117.409 49.3516L117.746 51.5127H117.608C117.383 50.5727 116.929 49.8982 116.245 49.4895C115.571 49.0807 114.759 48.8763 113.809 48.8763C113.002 48.8763 112.302 49.0552 111.71 49.4129C111.128 49.7603 110.673 50.261 110.346 50.9149C110.029 51.5588 109.871 52.3303 109.871 53.2295C109.871 54.1083 110.029 54.8747 110.346 55.5287C110.673 56.1724 111.132 56.6731 111.725 57.0308C112.318 57.3782 113.017 57.557 113.824 57.5673C114.59 57.5673 115.28 57.4446 115.892 57.1994C116.516 56.9439 117.021 56.5506 117.409 56.0191C117.797 55.4878 118.017 54.8031 118.068 53.9652H118.206ZM121.731 48.6311V57.8279H120.751V48.6311H121.731ZM125.852 57.3527L125.822 57.8279H121.7V57.3527H125.852ZM125.132 52.9996V53.4594H121.7V52.9996H125.132ZM125.837 48.6311V49.1063H121.7V48.6311H125.837ZM126.71 55.636L125.868 57.8279H123.539L124.06 57.3527C124.57 57.3527 124.979 57.2812 125.285 57.1381C125.602 56.9848 125.857 56.7805 126.052 56.5249C126.245 56.2593 126.414 55.9629 126.557 55.636H126.71ZM125.132 53.4288V54.3024H124.964V54.1032C124.964 53.9295 124.912 53.7813 124.811 53.6587C124.708 53.5258 124.55 53.4594 124.336 53.4594V53.4288H125.132ZM125.132 52.1566V53.0302H124.336V52.9996C124.55 52.9996 124.708 52.9382 124.811 52.8156C124.912 52.6828 124.964 52.5294 124.964 52.3558V52.1566H125.132ZM125.837 49.0603V50.118H125.669V49.888C125.669 49.6734 125.597 49.4895 125.454 49.3362C125.321 49.183 125.137 49.1063 124.902 49.1063V49.0603H125.837ZM125.837 48.3859V48.7844L124.09 48.6311C124.407 48.6311 124.744 48.6056 125.102 48.5545C125.459 48.4932 125.704 48.437 125.837 48.3859ZM120.781 56.8468L120.98 57.8279H119.647V57.6746C119.647 57.6746 119.683 57.6746 119.755 57.6746C119.826 57.6746 119.862 57.6746 119.862 57.6746C120.117 57.6746 120.326 57.5929 120.49 57.4294C120.653 57.2658 120.74 57.0717 120.751 56.8468H120.781ZM120.781 49.5968H120.751C120.74 49.3617 120.653 49.1676 120.49 49.0144C120.326 48.861 120.117 48.7844 119.862 48.7844C119.862 48.7844 119.826 48.7844 119.755 48.7844C119.683 48.7844 119.647 48.7844 119.647 48.7844V48.6311H120.98L120.781 49.5968ZM129.945 48.6311V57.8279H128.965V48.6311H129.945ZM134.066 57.3527L134.036 57.8279H129.914V57.3527H134.066ZM134.925 55.636L134.081 57.8279H131.753L132.274 57.3527C132.784 57.3527 133.194 57.2812 133.499 57.1381C133.816 56.9848 134.071 56.7805 134.265 56.5249C134.459 56.2593 134.628 55.9629 134.771 55.636H134.925ZM128.995 56.8468L129.194 57.8279H127.861V57.6746C127.861 57.6746 127.897 57.6746 127.969 57.6746C128.04 57.6746 128.076 57.6746 128.076 57.6746C128.331 57.6746 128.541 57.5929 128.705 57.4294C128.867 57.2658 128.955 57.0717 128.965 56.8468H128.995ZM129.899 49.6122V48.6311H131.033V48.7844C131.033 48.7844 131.002 48.7844 130.942 48.7844C130.879 48.7844 130.849 48.7844 130.849 48.7844C130.604 48.7844 130.39 48.8662 130.206 49.0296C130.031 49.183 129.945 49.3771 129.945 49.6122H129.899ZM128.995 49.6122H128.965C128.955 49.3771 128.862 49.183 128.688 49.0296C128.515 48.8662 128.3 48.7844 128.045 48.7844C128.045 48.7844 128.015 48.7844 127.954 48.7844C127.892 48.7844 127.861 48.7844 127.861 48.7844V48.6311H128.995V49.6122ZM140.381 48.4166L144.594 57.7359H143.384L140.12 49.7808L140.381 48.4166ZM137.424 56.7089C137.311 57.0154 137.326 57.2557 137.47 57.4294C137.613 57.5929 137.777 57.6746 137.96 57.6746H138.082V57.8279H135.157V57.6746C135.157 57.6746 135.177 57.6746 135.218 57.6746C135.258 57.6746 135.278 57.6746 135.278 57.6746C135.494 57.6746 135.713 57.603 135.938 57.4599C136.162 57.3067 136.356 57.0564 136.52 56.7089H137.424ZM140.381 48.4166L140.488 49.4741L136.979 57.7818H136.014L139.646 49.9953C139.646 49.9953 139.671 49.934 139.722 49.8113C139.783 49.6888 139.85 49.5406 139.921 49.3668C140.002 49.183 140.074 49.0041 140.135 48.8304C140.197 48.6567 140.233 48.5187 140.243 48.4166H140.381ZM142.188 54.2565V54.7162H138.129V54.2565H142.188ZM142.971 56.7089H144.135C144.288 57.0564 144.476 57.3067 144.702 57.4599C144.926 57.603 145.14 57.6746 145.345 57.6746C145.345 57.6746 145.365 57.6746 145.407 57.6746C145.446 57.6746 145.468 57.6746 145.468 57.6746V57.8279H142.326V57.6746H142.449C142.622 57.6746 142.78 57.5929 142.924 57.4294C143.067 57.2557 143.082 57.0154 142.971 56.7089ZM148.104 48.6311H150.08C150.56 48.6311 150.989 48.6873 151.367 48.7997C151.755 48.9121 152.082 49.0756 152.347 49.2902C152.623 49.5048 152.833 49.7654 152.976 50.0719C153.119 50.3786 153.19 50.7259 153.19 51.1142C153.19 51.5434 153.089 51.9419 152.883 52.3098C152.679 52.6777 152.393 52.9792 152.026 53.2141C151.668 53.4492 151.259 53.5923 150.8 53.6433C150.974 53.7149 151.173 53.8732 151.397 54.1186C151.633 54.3638 151.832 54.6039 151.994 54.8389C151.994 54.8389 152.062 54.9309 152.193 55.1148C152.327 55.2885 152.495 55.5082 152.699 55.7739C152.914 56.0294 153.124 56.2746 153.327 56.5096C153.543 56.7447 153.737 56.9491 153.91 57.1227C154.094 57.2964 154.288 57.4344 154.493 57.5366C154.707 57.6286 154.952 57.6746 155.228 57.6746V57.8279H154.752C154.191 57.8279 153.727 57.7563 153.359 57.6132C153.001 57.4702 152.71 57.2964 152.485 57.0922C152.261 56.8775 152.067 56.6731 151.903 56.479C151.862 56.4279 151.765 56.3001 151.611 56.0958C151.469 55.8812 151.311 55.6513 151.137 55.406C150.963 55.1608 150.805 54.9412 150.662 54.7469C150.52 54.5425 150.432 54.42 150.402 54.3791C150.198 54.1134 149.963 53.8784 149.697 53.674C149.432 53.4594 149.15 53.3522 148.855 53.3522V53.1988C148.855 53.1988 148.936 53.2039 149.099 53.2141C149.263 53.2141 149.472 53.2091 149.727 53.1988C150.014 53.1886 150.3 53.1682 150.586 53.1375C150.872 53.0967 151.137 52.9843 151.382 52.8003C151.638 52.6163 151.837 52.3098 151.979 51.8806C152.021 51.7682 152.051 51.6354 152.072 51.4822C152.092 51.3288 152.097 51.1705 152.087 51.0069C152.077 50.7208 152.021 50.4653 151.918 50.2405C151.826 50.0157 151.689 49.8216 151.505 49.6581C151.331 49.4946 151.122 49.3668 150.876 49.275C150.631 49.183 150.356 49.1318 150.049 49.1216C149.57 49.1011 149.15 49.0961 148.792 49.1063C148.435 49.1165 148.256 49.1165 148.256 49.1063C148.256 49.0961 148.241 49.0552 148.21 48.9837C148.19 48.902 148.165 48.8253 148.134 48.7538C148.114 48.672 148.104 48.6311 148.104 48.6311ZM148.288 48.6311V57.8279H147.306V48.6311H148.288ZM147.353 56.8468L147.536 57.8279H146.235V57.6746C146.235 57.6746 146.27 57.6746 146.341 57.6746C146.414 57.6746 146.449 57.6746 146.449 57.6746C146.694 57.6746 146.898 57.5929 147.062 57.4294C147.225 57.2658 147.313 57.0717 147.321 56.8468H147.353ZM147.353 49.5968H147.321C147.313 49.3617 147.225 49.1676 147.062 49.0144C146.898 48.861 146.694 48.7844 146.449 48.7844C146.449 48.7844 146.414 48.7844 146.341 48.7844C146.27 48.7844 146.235 48.7844 146.235 48.7844V48.6311H147.536L147.353 49.5968ZM148.241 56.8468H148.288C148.298 57.0717 148.384 57.2658 148.548 57.4294C148.711 57.5929 148.915 57.6746 149.16 57.6746C149.16 57.6746 149.191 57.6746 149.253 57.6746C149.324 57.6746 149.359 57.6746 149.359 57.6746L149.375 57.8279H148.057L148.241 56.8468ZM158.061 48.6311V57.8279H157.096V48.6311H158.061ZM157.142 56.8468V57.8279H155.839V57.6746C155.839 57.6746 155.876 57.6746 155.947 57.6746C156.019 57.6746 156.055 57.6746 156.055 57.6746C156.34 57.6746 156.581 57.5929 156.774 57.4294C156.979 57.2658 157.086 57.0717 157.096 56.8468H157.142ZM158.015 56.8468H158.061C158.072 57.0717 158.174 57.2658 158.368 57.4294C158.572 57.5929 158.818 57.6746 159.103 57.6746C159.103 57.6746 159.134 57.6746 159.195 57.6746C159.267 57.6746 159.302 57.6746 159.302 57.6746L159.318 57.8279H158.015V56.8468ZM158.015 49.6122V48.6311H159.318L159.302 48.7844C159.302 48.7844 159.267 48.7844 159.195 48.7844C159.134 48.7844 159.103 48.7844 159.103 48.7844C158.818 48.7844 158.572 48.8662 158.368 49.0296C158.174 49.183 158.072 49.3771 158.061 49.6122H158.015ZM157.142 49.6122H157.096C157.086 49.3771 156.979 49.183 156.774 49.0296C156.581 48.8662 156.34 48.7844 156.055 48.7844C156.045 48.7844 156.003 48.7844 155.932 48.7844C155.871 48.7844 155.839 48.7844 155.839 48.7844V48.6311H157.142V49.6122ZM165.292 48.4166L169.505 57.7359H168.294L165.032 49.7808L165.292 48.4166ZM162.336 56.7089C162.223 57.0154 162.238 57.2557 162.381 57.4294C162.523 57.5929 162.687 57.6746 162.871 57.6746H162.994V57.8279H160.067V57.6746C160.067 57.6746 160.087 57.6746 160.129 57.6746C160.17 57.6746 160.19 57.6746 160.19 57.6746C160.404 57.6746 160.624 57.603 160.849 57.4599C161.074 57.3067 161.268 57.0564 161.431 56.7089H162.336ZM165.292 48.4166L165.399 49.4741L161.891 57.7818H160.925L164.556 49.9953C164.556 49.9953 164.583 49.934 164.633 49.8113C164.694 49.6888 164.76 49.5406 164.832 49.3668C164.914 49.183 164.986 49.0041 165.047 48.8304C165.108 48.6567 165.143 48.5187 165.155 48.4166H165.292ZM167.1 54.2565V54.7162H163.039V54.2565H167.1ZM167.881 56.7089H169.045C169.198 57.0564 169.387 57.3067 169.613 57.4599C169.838 57.603 170.052 57.6746 170.256 57.6746C170.256 57.6746 170.276 57.6746 170.317 57.6746C170.359 57.6746 170.379 57.6746 170.379 57.6746V57.8279H167.238V57.6746H167.36C167.533 57.6746 167.692 57.5929 167.835 57.4294C167.979 57.2557 167.994 57.0154 167.881 56.7089ZM179.634 46.8838L184.168 57.7359H182.867L179.328 48.34L179.634 46.8838ZM176.34 56.7089C176.268 56.9133 176.258 57.087 176.309 57.2301C176.361 57.373 176.442 57.4856 176.555 57.5673C176.676 57.6388 176.799 57.6746 176.922 57.6746H177.059V57.8279H173.98V57.6746C173.98 57.6746 174.006 57.6746 174.057 57.6746C174.098 57.6746 174.119 57.6746 174.119 57.6746C174.353 57.6746 174.593 57.603 174.839 57.4599C175.094 57.3067 175.303 57.0564 175.467 56.7089H176.34ZM179.634 46.8838L179.772 47.9567L175.926 57.7818H175.006L178.929 48.4625C178.929 48.4625 178.955 48.4012 179.006 48.2785C179.067 48.1457 179.133 47.9874 179.205 47.8034C179.286 47.6195 179.353 47.4406 179.404 47.2669C179.465 47.0932 179.495 46.9655 179.495 46.8838H179.634ZM181.794 53.6433V54.1032H176.998V53.6433H181.794ZM182.483 56.7089H183.74C183.893 57.0564 184.097 57.3067 184.352 57.4599C184.608 57.603 184.853 57.6746 185.088 57.6746C185.088 57.6746 185.108 57.6746 185.15 57.6746C185.19 57.6746 185.211 57.6746 185.211 57.6746V57.8279H181.764V57.6746H181.901C182.096 57.6746 182.269 57.5929 182.422 57.4294C182.576 57.2557 182.596 57.0154 182.483 56.7089ZM191.001 48.6311C192.011 48.6311 192.885 48.8151 193.621 49.183C194.356 49.5508 194.923 50.0822 195.321 50.777C195.719 51.4617 195.918 52.2791 195.918 53.2295C195.918 54.1798 195.719 54.9972 195.321 55.6819C194.923 56.3666 194.356 56.8979 193.621 57.276C192.885 57.6439 192.011 57.8279 191.001 57.8279H187.737L187.706 57.368C188.421 57.368 189.02 57.368 189.499 57.368C189.99 57.368 190.362 57.368 190.618 57.368C190.873 57.368 191.001 57.368 191.001 57.368C192.185 57.368 193.115 57.0002 193.789 56.2644C194.474 55.5184 194.815 54.5068 194.815 53.2295C194.815 51.9522 194.474 50.9456 193.789 50.21C193.115 49.4639 192.185 49.091 191.001 49.091C191.001 49.091 190.868 49.091 190.603 49.091C190.337 49.091 189.948 49.091 189.438 49.091C188.927 49.091 188.3 49.091 187.553 49.091V48.6311H191.001ZM187.952 48.6311V57.8279H186.955V48.6311H187.952ZM186.986 56.8316V57.8279H185.884V57.6746C185.884 57.6746 185.914 57.6746 185.975 57.6746C186.048 57.6746 186.083 57.6746 186.083 57.6746C186.328 57.6746 186.532 57.5929 186.696 57.4294C186.859 57.2557 186.945 57.0564 186.955 56.8316H186.986ZM186.986 49.6274H186.955C186.945 49.3822 186.854 49.183 186.68 49.0296C186.517 48.8662 186.313 48.7844 186.068 48.7844C186.068 48.7844 186.036 48.7844 185.975 48.7844C185.914 48.7844 185.884 48.7844 185.884 48.7844V48.6311H186.986V49.6274ZM197.405 48.7231H198.631L201.112 56.2797L200.974 58.0118L197.405 48.7231ZM203.702 48.3859L203.825 49.6274L201.45 56.3104C201.45 56.3104 201.424 56.4024 201.372 56.5863C201.322 56.76 201.266 56.9798 201.205 57.2454C201.153 57.5009 201.123 57.7563 201.112 58.0118H200.974L200.684 56.6476L203.548 48.3859H203.702ZM203.702 48.4012L206.644 55.8966L206.291 58.0118L203.181 50.0566L203.702 48.4012ZM209.34 48.7231L206.796 56.3104C206.796 56.3104 206.766 56.4024 206.705 56.5863C206.654 56.7702 206.597 56.9951 206.536 57.2608C206.485 57.5161 206.455 57.7666 206.445 58.0118H206.291L206.107 56.4944L208.466 48.7231H209.34ZM208.16 49.704C208.272 49.3771 208.262 49.142 208.13 48.999C208.007 48.8559 207.864 48.7844 207.7 48.7844H207.578V48.6311H210.382V48.7844C210.382 48.7844 210.362 48.7844 210.32 48.7844C210.29 48.7844 210.274 48.7844 210.274 48.7844C209.957 48.7844 209.692 48.8713 209.478 49.0449C209.264 49.2186 209.11 49.4384 209.018 49.704H208.16ZM198.952 49.6888L197.787 49.704C197.686 49.4384 197.533 49.2186 197.328 49.0449C197.124 48.8713 196.858 48.7844 196.532 48.7844C196.532 48.7844 196.512 48.7844 196.47 48.7844C196.429 48.7844 196.409 48.7844 196.409 48.7844V48.6311H199.565V48.7844H199.442C199.279 48.7844 199.132 48.8559 198.998 48.999C198.865 49.1318 198.85 49.3617 198.952 49.6888ZM216.091 48.4166C216.806 48.4166 217.476 48.5341 218.098 48.769C218.731 48.9939 219.283 49.3209 219.752 49.7501C220.233 50.1793 220.605 50.6901 220.87 51.2829C221.137 51.8653 221.27 52.5142 221.27 53.2295C221.27 53.9448 221.137 54.5987 220.87 55.1915C220.605 55.7739 220.233 56.2797 219.752 56.7089C219.283 57.1381 218.731 57.4702 218.098 57.7052C217.476 57.9301 216.806 58.0424 216.091 58.0424C215.376 58.0424 214.708 57.9301 214.084 57.7052C213.461 57.4702 212.909 57.1381 212.429 56.7089C211.96 56.2797 211.592 55.7739 211.326 55.1915C211.061 54.5987 210.927 53.9448 210.927 53.2295C210.927 52.5142 211.061 51.8653 211.326 51.2829C211.592 50.6901 211.96 50.1793 212.429 49.7501C212.909 49.3209 213.461 48.9939 214.084 48.769C214.708 48.5341 215.376 48.4166 216.091 48.4166ZM216.091 57.5826C216.847 57.5826 217.532 57.3987 218.144 57.0308C218.757 56.663 219.242 56.152 219.6 55.498C219.957 54.844 220.135 54.0879 220.135 53.2295C220.135 52.3608 219.957 51.6047 219.6 50.961C219.242 50.307 218.757 49.796 218.144 49.4282C217.532 49.0603 216.847 48.8763 216.091 48.8763C215.345 48.8763 214.666 49.0603 214.053 49.4282C213.441 49.796 212.955 50.307 212.597 50.961C212.24 51.6047 212.061 52.3608 212.061 53.2295C212.061 54.0879 212.24 54.844 212.597 55.498C212.955 56.152 213.441 56.663 214.053 57.0308C214.666 57.3987 215.345 57.5826 216.091 57.5826ZM226.108 52.693L230.106 57.0461C230.28 57.2505 230.463 57.4037 230.657 57.506C230.852 57.6081 231.113 57.6643 231.439 57.6746V57.8279H230.872C230.75 57.8279 230.597 57.8228 230.413 57.8125C230.239 57.7921 230.045 57.7563 229.831 57.7052C229.627 57.6439 229.416 57.557 229.202 57.4446C228.998 57.322 228.804 57.1585 228.62 56.9541C228.62 56.9541 228.539 56.8672 228.375 56.6935C228.222 56.5096 228.017 56.2797 227.762 56.0038C227.506 55.7177 227.23 55.4213 226.934 55.1148C226.648 54.798 226.378 54.5017 226.123 54.2258C225.867 53.9397 225.657 53.7097 225.494 53.536C225.33 53.3522 225.249 53.2602 225.249 53.2602L226.108 52.693ZM230.198 48.7384L225.969 53.2602H225.249L229.095 48.7384H230.198ZM231.194 48.6311V48.7844H231.133C230.816 48.7844 230.519 48.8355 230.244 48.9376C229.979 49.0399 229.758 49.1931 229.585 49.3975L228.544 49.3822C228.655 49.2392 228.67 49.1064 228.589 48.9837C228.517 48.8508 228.39 48.7844 228.206 48.7844H228.068V48.6311H231.133H231.194ZM224.713 48.6311V57.8279H223.732V48.6311H224.713ZM223.763 56.8468V57.8279H222.644V57.6746C222.644 57.6746 222.675 57.6746 222.737 57.6746C222.798 57.6746 222.828 57.6746 222.828 57.6746C223.073 57.6746 223.284 57.5929 223.456 57.4294C223.63 57.2658 223.722 57.0717 223.732 56.8468H223.763ZM224.667 56.8468H224.713C224.713 57.0717 224.8 57.2658 224.974 57.4294C225.146 57.5929 225.361 57.6746 225.617 57.6746C225.617 57.6746 225.642 57.6746 225.693 57.6746C225.755 57.6746 225.786 57.6746 225.786 57.6746V57.8279H224.667V56.8468ZM224.667 49.6122V48.6311H225.786V48.7844C225.786 48.7844 225.755 48.7844 225.693 48.7844C225.642 48.7844 225.612 48.7844 225.602 48.7844C225.357 48.7844 225.146 48.8662 224.974 49.0296C224.8 49.183 224.713 49.3771 224.713 49.6122H224.667ZM223.763 49.6122H223.732C223.722 49.3771 223.63 49.183 223.456 49.0296C223.284 48.8662 223.073 48.7844 222.828 48.7844C222.828 48.7844 222.798 48.7844 222.737 48.7844C222.675 48.7844 222.644 48.7844 222.644 48.7844V48.6311H223.763V49.6122ZM236.511 48.4166L240.724 57.7359H239.514L236.25 49.7808L236.511 48.4166ZM233.554 56.7089C233.441 57.0154 233.456 57.2557 233.599 57.4294C233.743 57.5929 233.906 57.6746 234.09 57.6746H234.213V57.8279H231.286V57.6746C231.286 57.6746 231.307 57.6746 231.347 57.6746C231.388 57.6746 231.409 57.6746 231.409 57.6746C231.624 57.6746 231.843 57.603 232.068 57.4599C232.292 57.3067 232.486 57.0564 232.65 56.7089H233.554ZM236.511 48.4166L236.617 49.4741L233.11 57.7818H232.145L235.775 49.9953C235.775 49.9953 235.801 49.934 235.852 49.8113C235.914 49.6888 235.98 49.5406 236.051 49.3668C236.133 49.183 236.204 49.0041 236.266 48.8304C236.327 48.6567 236.363 48.5187 236.373 48.4166H236.511ZM238.319 54.2565V54.7162H234.259V54.2565H238.319ZM239.1 56.7089H240.265C240.418 57.0564 240.607 57.3067 240.831 57.4599C241.056 57.603 241.27 57.6746 241.474 57.6746C241.474 57.6746 241.495 57.6746 241.536 57.6746C241.577 57.6746 241.597 57.6746 241.597 57.6746V57.8279H238.456V57.6746H238.579C238.753 57.6746 238.91 57.5929 239.053 57.4294C239.197 57.2557 239.212 57.0154 239.1 56.7089ZM251.501 53.9652L251.332 56.0652C251.067 56.4739 250.72 56.8265 250.291 57.1227C249.861 57.4191 249.377 57.649 248.836 57.8125C248.294 57.9658 247.722 58.0424 247.12 58.0424C246.088 58.0322 245.188 57.8329 244.423 57.4446C243.667 57.0564 243.085 56.5045 242.676 55.7893C242.268 55.0739 242.063 54.2207 242.063 53.2295C242.063 52.2281 242.268 51.3698 242.676 50.6544C243.085 49.9391 243.667 49.3872 244.423 48.999C245.188 48.6107 246.088 48.4166 247.12 48.4166C247.753 48.4166 248.39 48.4983 249.035 48.6618C249.678 48.8253 250.235 49.0552 250.705 49.3516L251.042 51.5127H250.904C250.679 50.5727 250.224 49.8982 249.539 49.4895C248.866 49.0807 248.054 48.8763 247.103 48.8763C246.297 48.8763 245.598 49.0552 245.005 49.4129C244.423 49.7603 243.969 50.261 243.641 50.9149C243.326 51.5588 243.166 52.3303 243.166 53.2295C243.166 54.1083 243.326 54.8747 243.641 55.5287C243.969 56.1724 244.429 56.6731 245.02 57.0308C245.613 57.3782 246.313 57.557 247.12 57.5673C247.886 57.5673 248.574 57.4446 249.188 57.1994C249.811 56.9439 250.317 56.5506 250.705 56.0191C251.093 55.4878 251.312 54.8031 251.363 53.9652H251.501ZM256.405 52.693L260.404 57.0461C260.577 57.2505 260.761 57.4037 260.956 57.506C261.15 57.6081 261.41 57.6643 261.737 57.6746V57.8279H261.17C261.047 57.8279 260.894 57.8228 260.71 57.8125C260.537 57.7921 260.342 57.7563 260.128 57.7052C259.924 57.6439 259.714 57.557 259.5 57.4446C259.296 57.322 259.102 57.1585 258.918 56.9541C258.918 56.9541 258.836 56.8672 258.672 56.6935C258.52 56.5096 258.316 56.2797 258.06 56.0038C257.805 55.7177 257.528 55.4213 257.233 55.1148C256.946 54.798 256.676 54.5017 256.42 54.2258C256.165 53.9397 255.956 53.7097 255.792 53.536C255.629 53.3522 255.547 53.2602 255.547 53.2602L256.405 52.693ZM260.496 48.7384L256.268 53.2602H255.547L259.392 48.7384H260.496ZM261.492 48.6311V48.7844H261.43C261.113 48.7844 260.818 48.8355 260.541 48.9376C260.276 49.0399 260.057 49.1931 259.883 49.3975L258.841 49.3822C258.954 49.2392 258.969 49.1064 258.888 48.9837C258.815 48.8508 258.689 48.7844 258.505 48.7844H258.366V48.6311H261.43H261.492ZM255.011 48.6311V57.8279H254.031V48.6311H255.011ZM254.061 56.8468V57.8279H252.943V57.6746C252.943 57.6746 252.973 57.6746 253.034 57.6746C253.096 57.6746 253.127 57.6746 253.127 57.6746C253.371 57.6746 253.581 57.5929 253.754 57.4294C253.928 57.2658 254.019 57.0717 254.031 56.8468H254.061ZM254.965 56.8468H255.011C255.011 57.0717 255.097 57.2658 255.271 57.4294C255.445 57.5929 255.659 57.6746 255.915 57.6746C255.915 57.6746 255.941 57.6746 255.991 57.6746C256.052 57.6746 256.084 57.6746 256.084 57.6746V57.8279H254.965V56.8468ZM254.965 49.6122V48.6311H256.084V48.7844C256.084 48.7844 256.052 48.7844 255.991 48.7844C255.941 48.7844 255.91 48.7844 255.9 48.7844C255.654 48.7844 255.445 48.8662 255.271 49.0296C255.097 49.183 255.011 49.3771 255.011 49.6122H254.965ZM254.061 49.6122H254.031C254.019 49.3771 253.928 49.183 253.754 49.0296C253.581 48.8662 253.371 48.7844 253.127 48.7844C253.127 48.7844 253.096 48.7844 253.034 48.7844C252.973 48.7844 252.943 48.7844 252.943 48.7844V48.6311H254.061V49.6122ZM266.809 48.4166L271.022 57.7359H269.812L266.548 49.7808L266.809 48.4166ZM263.852 56.7089C263.739 57.0154 263.755 57.2557 263.898 57.4294C264.041 57.5929 264.205 57.6746 264.389 57.6746H264.51V57.8279H261.585V57.6746C261.585 57.6746 261.604 57.6746 261.646 57.6746C261.686 57.6746 261.707 57.6746 261.707 57.6746C261.921 57.6746 262.14 57.603 262.366 57.4599C262.59 57.3067 262.784 57.0564 262.948 56.7089H263.852ZM266.809 48.4166L266.916 49.4741L263.407 57.7818H262.442L266.074 49.9953C266.074 49.9953 266.098 49.934 266.15 49.8113C266.211 49.6888 266.277 49.5406 266.349 49.3668C266.43 49.183 266.502 49.0041 266.563 48.8304C266.625 48.6567 266.661 48.5187 266.671 48.4166H266.809ZM268.616 54.2565V54.7162H264.556V54.2565H268.616ZM269.398 56.7089H270.563C270.715 57.0564 270.904 57.3067 271.13 57.4599C271.353 57.603 271.568 57.6746 271.773 57.6746C271.773 57.6746 271.793 57.6746 271.833 57.6746C271.874 57.6746 271.896 57.6746 271.896 57.6746V57.8279H268.755V57.6746H268.878C269.05 57.6746 269.209 57.5929 269.352 57.4294C269.495 57.2557 269.51 57.0154 269.398 56.7089Z" fill="#B58C67"/>
<path fill-rule="evenodd" clip-rule="evenodd" d="M77.0338 66.0133C69.5127 77.0539 56.8431 84.3033 42.4809 84.3033C19.404 84.3033 0.696407 65.5873 0.696407 42.5C0.696407 19.4127 19.404 0.696721 42.4809 0.696721C56.8431 0.696721 69.5127 7.94604 77.0338 18.9867C77.1717 18.7789 77.3117 18.5724 77.4538 18.3674C69.7891 7.27063 56.9834 0 42.4809 0C19.0192 0 0 19.0278 0 42.5C0 65.9722 19.0192 85 42.4809 85C56.9834 85 69.7891 77.7297 77.4538 66.6326C77.3117 66.4276 77.1717 66.2211 77.0338 66.0133Z" fill="#B58C67"/>
</svg>
