<svg width="66" height="50" viewBox="0 0 66 50" fill="none" xmlns="http://www.w3.org/2000/svg">
<g clip-path="url(#clip0_26_11)">
<path d="M2.96857 5.77845C4.04804 3.1618 6.11705 1.41736 9.17557 0.545137C12.0542 -0.327082 15.1127 -0.152639 18.3511 1.06847C21.4097 2.28958 23.7485 4.73179 25.3677 8.39511C27.7066 13.8029 28.6062 18.949 28.0664 23.8334C27.5267 28.7178 25.9974 33.0789 23.4787 36.9167C20.78 40.9289 17.4516 44.0689 13.4935 46.3367C9.53539 48.6045 5.21748 49.8256 0.539742 50L0 47.645C5.75722 45.9006 9.53539 43.2839 11.3345 39.795C13.1337 36.4806 13.6734 33.1662 12.9537 29.8517C12.2341 26.5373 11.0647 23.9206 9.44544 22.0017C8.18605 20.6062 6.92665 19.1234 5.66726 17.5534C4.22796 15.9834 3.14848 14.239 2.42883 12.3201C1.70918 10.4012 1.88908 8.22066 2.96857 5.77845ZM40.7503 5.77845C41.8298 3.1618 43.8988 1.41736 46.9573 0.545137C49.8359 -0.327082 52.8945 -0.152639 56.1329 1.06847C59.1914 2.28958 61.5303 4.73179 63.1495 8.39511C65.4884 13.8029 66.3879 18.949 65.8482 23.8334C65.3085 28.7178 63.7792 33.0789 61.2604 36.9167C58.5617 40.9289 55.2333 44.0689 51.2752 46.3367C47.3171 48.6045 42.9992 49.8256 38.3215 50L37.7818 47.645C43.539 45.9006 47.3171 43.2839 49.1163 39.795C50.9154 36.4806 51.4551 33.1662 50.7355 29.8517C50.0158 26.5373 48.8464 23.9206 47.2272 22.0017C45.9678 20.6062 44.7084 19.1234 43.449 17.5534C42.0097 15.9834 40.9302 14.239 40.2106 12.3201C39.4909 10.4012 39.6708 8.22066 40.7503 5.77845Z" fill="#B58C67"/>
</g>
<defs>
<clipPath id="clip0_26_11">
<rect width="66" height="50" fill="white"/>
</clipPath>
</defs>
</svg>
